/* XPM */
static char *result[] = {
/* columns rows colors chars-per-pixel */
"50 50 195 2 ",
"   c #010000",
".  c #0B0203",
"X  c #0F0900",
"o  c #0F0008",
"O  c #140205",
"+  c #1A0207",
"@  c #140E00",
"#  c #190F00",
"$  c #150409",
"%  c #1C0309",
"&  c #19080B",
"*  c #161000",
"=  c #1C1100",
"-  c #25030A",
";  c #2B030C",
":  c #23090F",
">  c #34040E",
",  c #3A050F",
"<  c #340B0A",
"1  c #241500",
"2  c #2A1900",
"3  c #331E00",
"4  c #381607",
"5  c #240B10",
"6  c #2C0D14",
"7  c #330310",
"8  c #3E0411",
"9  c #3C0C17",
"0  c #351018",
"q  c #3F131C",
"w  c #362200",
"e  c #3A2600",
"r  c #3E2A00",
"t  c #4E190B",
"y  c #5C1D0F",
"u  c #440612",
"i  c #4B0614",
"p  c #4E0915",
"a  c #530716",
"s  c #530816",
"d  c #530518",
"f  c #5E061B",
"g  c #520A18",
"h  c #5D0919",
"j  c #5A0A15",
"k  c #41131D",
"l  c #5D1213",
"z  c #51111E",
"x  c #69071E",
"c  c #63091B",
"v  c #6B091D",
"b  c #730A1F",
"n  c #78091F",
"m  c #601D10",
"M  c #76141C",
"N  c #422601",
"B  c #442900",
"V  c #4A2B00",
"C  c #492604",
"Z  c #502E00",
"A  c #5C3600",
"S  c #63240C",
"D  c #602808",
"F  c #602F05",
"G  c #663404",
"H  c #633A00",
"J  c #6E3906",
"K  c #763B08",
"L  c #7E2413",
"P  c #4E1420",
"I  c #5F1322",
"U  c #541925",
"Y  c #5A1C29",
"T  c #6F0C20",
"R  c #760B21",
"E  c #7B0B21",
"W  c #651B2A",
"Q  c #691627",
"!  c #771428",
"~  c #742528",
"^  c #6B2131",
"/  c #712132",
"(  c #664400",
")  c #734300",
"_  c #7C4900",
"`  c #764D00",
"'  c #811A1A",
"]  c #9F2C19",
"[  c #B6331B",
"{  c #840C24",
"}  c #8C0C25",
"|  c #920D27",
" . c #950D28",
".. c #9B0E2A",
"X. c #980C27",
"o. c #85152C",
"O. c #8C122A",
"+. c #831027",
"@. c #95122C",
"#. c #9D102C",
"$. c #881B32",
"%. c #9B1D36",
"&. c #A30E2C",
"*. c #AB0E2E",
"=. c #B20E2F",
"-. c #AC102F",
";. c #AF1A29",
":. c #B1122D",
">. c #B41B2B",
",. c #B50F30",
"<. c #BA0F31",
"1. c #A51633",
"2. c #AC1231",
"3. c #A21A35",
"4. c #AB1A35",
"5. c #AB1E3A",
"6. c #A01F39",
"7. c #B31031",
"8. c #B91233",
"9. c #BC1738",
"0. c #B31C3A",
"q. c #BB1B3B",
"w. c #983422",
"e. c #88273B",
"r. c #972038",
"t. c #90283E",
"y. c #A72720",
"u. c #B82629",
"i. c #AB213D",
"p. c #B6213F",
"a. c #BD303C",
"s. c #C21A3C",
"d. c #854902",
"f. c #96440A",
"g. c #8B5401",
"h. c #8F5B00",
"j. c #865300",
"k. c #915301",
"l. c #9D5B00",
"z. c #925E00",
"x. c #A44A0B",
"c. c #A15F00",
"v. c #A45507",
"b. c #B9560A",
"n. c #B44616",
"m. c #9A6400",
"M. c #A46200",
"N. c #AD6500",
"B. c #B36701",
"V. c #B46B00",
"C. c #BF6605",
"Z. c #BF7900",
"A. c #B57000",
"S. c #C4570E",
"D. c #C36C03",
"F. c #C47200",
"G. c #CA7600",
"H. c #C57B00",
"J. c #CB7A00",
"K. c #D37C00",
"L. c #9E2C44",
"P. c #902B40",
"I. c #AC2A45",
"U. c #BC2845",
"Y. c #BA2846",
"T. c #A6314A",
"R. c #B2314C",
"E. c #B8324A",
"W. c #C42343",
"Q. c #CA2446",
"!. c #C52A4A",
"~. c #CB2C4C",
"^. c #C8274A",
"/. c #CF2F50",
"(. c #CB3251",
"). c #C93957",
"_. c #D23555",
"`. c #D93556",
"'. c #D53758",
"]. c #D43959",
"[. c #D93E5E",
"{. c #DF3F60",
"}. c #E03F61",
"|. c #DC4262",
" X c #CC8000",
".X c #D48600",
"XX c #DC8A00",
"oX c #D98500",
"OX c #E59100",
"+X c #ED9600",
"@X c #F59B00",
"#X c #F99E00",
"$X c #FEA200",
"%X c #FFA900",
"&X c None",
/* pixels */
"&X&X&X&X&X&X&X&X&X&X&X&X&X&X&X&X&X&X&X&X&X&X&X&X&X&X&X&X&X&X&X&X&X&X&X&X&X&X&X&X&X&X&X&X&X&X&X&X&X&X",
"&X&X&X&X&X&X&X&X&X&X&X&X&X&X&X&X&X&X&X&X&X&X&X&X&X&X&X&X&X&X&X&X&X&X&X&X&X&X&X&X&X&X&X&X&X&X&X&X&X&X",
"&X&X&X&X&X&X&X&X&X&X&X&X&X&X&X&X&X&X&X&X&X&X&X&X&X&X&X&X&X&X&X&X&X&X&X&X&X&X&X&X&X&X&X&X&X&X&X&X&X&X",
"&X&X&X&X&X&X&X&X&X&X&X&X&X&X&X&X&X%X%X%X$X&X&X&X&X&X&X&X&X&X&X&X&X&X&X&X&X&X&X&X&X&X&X&X&X&X&X&X&X&X",
"&X&X&X&X&X&X&X&X&X&X&X&X&X&X&X&X#X#X#X#X$X$X&X&X&X&X&X&X&X&X&X&X&X&X&X&X&X&X&X&X&X&X&X&X&X&X&X&X&X&X",
"&X&X&X&X&X&X&X&X&X&X&X&X&X&X&X&XZ.H..XOX+X@X&X&X&X&X&X&X&X&X&X&X&X&X&X&X&X&X&X&X&X&X&X&X&X&X&X&X&X&X",
"&X&X&X&X&X&X&X&X&X&X&X&X&X&X&X&X( ` m.Z.oXOX&X&X&X&X&X&X&X&X&X&X&X&X&X&X&X&X&X&X&X&X&X&X&X&X&X&X&X&X",
"&X&X&X&X&X&X&X&X&X&X&X&X&X&X&X&X= w H l.F.K.&X&X&X&X&X&X&X&X&X&X&X&X&X&X&X&X&X&X&X&X&X&X&X&X&X&X&X&X",
"&X&X&X&X&X&X&X&X&X&X&X&X&X&X&Xo + < D f.b.S.&X&X&X&X&X&X&X&X&X&X&X&X&X&X&X&X&X&X&X&X&X&X&X&X&X&X&X&X",
"&X&X&X&X&X&X&X&X&X&X&X&X&X&X. ; i c ' ] [ [ u.:.*.,.*.,.<.*.n 8 . &X&X&X&X&X&X&X&X&X&X&X&X&X&X&X&X&X",
"&X&X&X&X&X&X&X&X&X&X&X&X&X  + u R X.-.;.;.>.>.*.,.=.=.,.8.-.{ i O   &X&X&X&X&X&X&X&X&X&X&X&X&X&X&X&X",
"&X&X&X&X&X&X&X&X&X&X&X&XO % > c | 7.8.9.9.9.q.q.9.q.0.q.s.0.@.h > + O &X&X&X&X&X&X&X&X&X&X&X&X&X&X&X",
"&X&X&X&X&X&X&X&X&X&X&XO ; i c { &.8.s.W.^.!.^.!.!.!.!.!.^.!.i.o.c i ; $ &X&X&X&X&X&X&X&X&X&X&X&X&X&X",
"&X&X&X&X&X&X&X&X&X&X  + i E X.&.=.0.W./.'.].].'.'.'.'.].].'.!.p.@.n u +   &X&X&X&X&X&X&X&X&X&X&X&X&X",
"&X&X&X&X&X&X&X&X&X. % > c X.7.:.,.0.q./.].[.|.|.|.|.|.[.[.'.(.W.8.{ i +     &X&X&X&X&X&X&X&X&X&X&X&X",
"&X&X&X&X&X&X&X&X+ > i c { &.8.<.,.7.q.W.~.'.[.|.|.|.|.[._.^.Q.s.8.} i $       &X&X&X&X&X&X&X&X&X&X&X",
"&X&X&X&X&X&X&X. - i E  .&.*.8.,.,.7.7.0.q.^.].|.|.|.|.'.^.q.9.9.=.} a +         &X&X&X&X&X&X&X&X&X&X",
"&X&X&X&X&X&X    - h  .7.8.7.*.7.,.=.,.,.8.U.(.].[.[.].(.W.q.8.9.0.@.h ; O O $ & & &X&X&X&X&X&X&X&X&X",
"&X&X&X&X&X&X    - c ..8.8.,.=.2.=.,.=.=.7.q.W.~.(.~.~.~.!.Q.!.Q.W.i.o.h g P U U k 5 &X&X&X&X&X&X&X&X",
"&X&X&X&X&X&X    - f X.<.8.,.7.7.2.2.=.=.7.7.q.q.q.q.q.!.~.'.`.`.).!.5.@.O.r.T.t.W 6   &X&X&X&X&X&X&X",
"&X&X&X&X&X&X    - f  .:.8.=.,.,.,.7.2.,.7.2.7.7.7.,.8.0.!.).).].].(.p.1.1.U.(.R./ 6     &X&X&X&X&X&X",
"&X&X&X&X&X&X    - c X.,.8.,.=.2.,.7.,.7.,.,.=.=.=.=.2.1.r.t.L.R.(.Y.%.{ O.5.!.I.! 6     &X&X&X&X&X&X",
"&X&X&X&X&X&X    - h X.8.8.,.7.,.2.=.7.7.2.2.=.*.=.,.-.O.Q P Y $.5.3.R p g ! 5.3.Q ;     &X&X&X&X&X&X",
"&X&X&X&X&X&X    - h  .7.8.,.2.,.,.7.2.,.,.,.7.,.,.8.-.E u % < b ..@.g - - c  .#.c :     &X&X&X&X&X&X",
"&X&X&X&X&X&X    - c ..<.8.,.7.2.2.,.2.,.,.2.:.7.8.,.*.R > . - c X.| i + + d  .X.c -     &X&X&X&X&X&X",
"&X&X&X&X&X&X    - c ..8.8.8.,.2.,.7.,.,.7.=.,.,.,.8.*.E > . - x ..| d + % j X.X.x ;     &X&X&X&X&X&X",
"&X&X&X&X&X&X    - d | =.,.,.,.=.7.,.=.2.7.,.7.7.,.8.*.E u + ; x  .{ i + - d } | c - .   &X&X&X&X&X&X",
"&X&X&X&X&X&X    + 8 c { ..*.,.8.7.7.8.,.7.7.,.:.8.8.=.} c u u h T c 7 o O , v v a -   &X&X&X&X&X&X&X",
"&X&X&X&X&X&X    . % > d E ..<.8.8.8.8.<.8.8.<.8.8.8.8.&.| n v a 8 ; $     % > u > % &X&X&X&X&X&X&X&X",
"&X&X&X&X&X&X        O < c | =.8.*.-.2.*.-.-.-.-.*.*.*.-.*.X.n i - X   . . . . . . &X&X&X&X&X&X&X&X&X",
"&X&X&X&X&X&X    . * 1 t l M { { { { { { { { { { { { { { } { M m C e e 3 2 #       &X&X&X&X&X&X&X&X&X",
"&X&X&X&X&X&X    # e A K Z t u u i i i i i i i i i u u u i s m K j.z.j._ H w @     &X&X&X&X&X&X&X&X&X",
"&X&X&X&X&X&X    2 A k.k.G 4 O O $ $ O O O O O O O O + O o & C g. XXXJ.V.g.Z =     &X&X&X&X&X&X&X&X&X",
"&X&X&X&X&X&X&X  2 H g.d.G 4 % .                 . + % +   X r m.OX@XoXN._ V #     &X&X&X&X&X&X&X&X&X",
"&X&X&X&X&X&X&X&X1 B A A S l i ; .               + u d u + . r m.OX+XA.) B 1 X     &X&X&X&X&X&X&X&X&X",
"&X&X&X&X&X&X&X&X&X@ = < l { { d -             . > v { x 7 O B m.OX.Xh.r =         &X&X&X&X&X&X&X&X&X",
"&X&X&X&X&X&X&X&X&X    % d  .&.R u - & 5 5 : : - u R { c 7 O r z..X Xj.B # .       &X&X&X&X&X&X&X&X&X",
"&X&X&X&X&X&X&X&X&X    + d X.*.| v h l W ^ W h j h f j 8 % X e j.H.H.M.) V 1 X     &X&X&X&X&X&X&X&X&X",
"&X&X&X&X&X&X&X&X&X    % d | =.&. .@.i.I.R.I.3.} v i - O   . 3 ` V.G.D.c.d.V =     &X&X&X&X&X&X&X&X&X",
"&X&X&X&X&X&X&X&X&X. + > x  .,.8.8.q.!.'.]._.s.*.n , .     . 2 ) N.G.K.F.l.A 1     &X&X&X&X&X&X&X&X&X",
"&X&X&X&X&X&X&X&X% > i c { ..8.q.W.~.`.}.}.`.Q.:.n ,         3 ) B.K.K.G.M.H =       &X&X&X&X&X&X&X&X",
"&X&X&X&X&X&X&X  - a E  .&.*.9.W.(.`.[.}.[.`.W.-.n , .       3 ) N.G.K.H.M.H =         &X&X&X&X&X&X&X",
"&X&X&X&X&X&X    - h  .:.,.,.0.W._.[.|.[.'.~.s.-.n , X       2 H l.B.D.C.v.J 3 & .       &X&X&X&X&X&X",
"&X&X&X&X&X&X    - f X.8.<.:.9.Q.'.|.[._.!.W.s.:.E , O       = B G d.x.n.n.w.~ U 6 $     &X&X&X&X&X&X",
"&X&X&X&X&X&X    - h  .8.<.,.0.^.'.[._.!.q.q.9.-.n 8 .       . * 2 C ' y.u.E.I.t.Y 5     &X&X&X&X&X&X",
"&X&X&X&X&X&X    ; c X.=.,.7.q.W._.'.!.p.8.=.*.X.v 8 .           . - l } 4.Y.(.T.^ 6     &X&X&X&X&X&X",
"&X&X&X&X&X&X&X  > b ..8.,.:.8.p.W.!.W.9.*. .{ v s ; .             O > f R $.P./ Y 6 . &X&X&X&X&X&X&X",
"&X&X&X&X&X&X&X&X&X} *.,.,.-.8.9.q.q.q.8.&.{ s > ; &X&X&X            + ; 7 9 P q 0 &X&X&X&X&X&X&X&X&X",
"&X&X&X&X&X&X&X&X&X=.7.7.,.7.,.7.7.7.8.,.&.R 7 O   &X&X&X              . . . . . . &X&X&X&X&X&X&X&X&X",
"&X&X&X&X&X&X&X&X&X8.8.*.7.7.7.*.=.:.,.8...v ;     &X&X&X                          &X&X&X&X&X&X&X&X&X"
};
