/* XPM */
static char *result[] = {
/* columns rows colors chars-per-pixel */
"50 50 202 2 ",
"   c #010100",
".  c #0B0303",
"X  c #0C0800",
"o  c #140206",
"O  c #1B0207",
"+  c #130C00",
"@  c #1C0C02",
"#  c #150509",
"$  c #1C0409",
"%  c #1E0A0E",
"&  c #1D1200",
"*  c #171300",
"=  c #1F0B10",
"-  c #23030A",
";  c #2C020C",
":  c #220A0F",
">  c #2C0809",
",  c #32040D",
"<  c #3B050F",
"1  c #39090F",
"2  c #231400",
"3  c #2A1601",
"4  c #2B1A00",
"5  c #241900",
"6  c #311C00",
"7  c #3E130A",
"8  c #260B11",
"9  c #2A0C13",
"0  c #3C0411",
"q  c #310F16",
"w  c #3A0B15",
"e  c #370712",
"r  c #362400",
"t  c #3B2B00",
"y  c #42160A",
"u  c #541C0C",
"i  c #430412",
"p  c #4B0514",
"a  c #4D0B15",
"s  c #4A0A19",
"d  c #530616",
"f  c #5A0717",
"g  c #5C0619",
"h  c #5C0819",
"j  c #520418",
"k  c #43141E",
"l  c #4D101F",
"z  c #56101E",
"x  c #63061B",
"c  c #640A1C",
"v  c #6B091D",
"b  c #6C051F",
"n  c #710A1E",
"m  c #691118",
"M  c #7B131D",
"N  c #70111B",
"B  c #462503",
"V  c #4C2D00",
"C  c #452A00",
"Z  c #4C3100",
"A  c #533200",
"S  c #5E3203",
"D  c #593B00",
"F  c #623702",
"G  c #643A00",
"H  c #6A3C01",
"J  c #693606",
"K  c #703806",
"L  c #6B2311",
"P  c #712411",
"I  c #4A1722",
"U  c #5B1422",
"Y  c #511924",
"T  c #5D1D2A",
"R  c #5C1A27",
"E  c #610F24",
"W  c #7B0A21",
"Q  c #720A21",
"!  c #651222",
"~  c #641D2C",
"^  c #6D1B2D",
"/  c #681122",
"(  c #76162B",
")  c #67202F",
"_  c #68202F",
"`  c #6B2131",
"'  c #752334",
"]  c #7C2738",
"[  c #6B4200",
"{  c #6E4A00",
"}  c #654300",
"|  c #714300",
" . c #734B00",
".. c #784F00",
"X. c #7A5000",
"o. c #862A14",
"O. c #9A3017",
"+. c #913013",
"@. c #B1351B",
"#. c #B2361A",
"$. c #840B24",
"%. c #8D0D26",
"&. c #890625",
"*. c #920D27",
"=. c #950D29",
"-. c #9C0D2A",
";. c #881028",
":. c #8C1524",
">. c #95132D",
",. c #9C122E",
"<. c #9F1E22",
"1. c #881832",
"2. c #951A33",
"3. c #A40E2C",
"4. c #AC0F2E",
"5. c #AC112D",
"6. c #A6172B",
"7. c #B61A2C",
"8. c #B10F30",
"9. c #AF1333",
"0. c #A21A36",
"q. c #A41E39",
"w. c #A51738",
"e. c #B51333",
"r. c #BC1434",
"t. c #BF1738",
"y. c #BC1A3B",
"u. c #9D2220",
"i. c #82273A",
"p. c #892A3D",
"a. c #912A3F",
"s. c #97203C",
"d. c #B5203E",
"f. c #BB2325",
"g. c #C21B3D",
"h. c #CA1B3E",
"j. c #864F00",
"k. c #884F00",
"l. c #984B0A",
"z. c #865301",
"x. c #8D5200",
"c. c #965700",
"v. c #9E5F03",
"b. c #AD570A",
"n. c #AE4D0E",
"m. c #A66301",
"M. c #AD6500",
"N. c #A66A00",
"B. c #AE6800",
"V. c #B06600",
"C. c #B56D00",
"Z. c #BB6D00",
"A. c #AE7100",
"S. c #B17200",
"D. c #BD7401",
"F. c #C34C13",
"G. c #CA660B",
"H. c #C37B00",
"J. c #CC7C00",
"K. c #C87601",
"L. c #D17A01",
"P. c #8E2C41",
"I. c #932D42",
"U. c #9E2C44",
"Y. c #AD2A45",
"T. c #A52E47",
"R. c #B32543",
"E. c #B12A46",
"W. c #AC334C",
"Q. c #A53149",
"!. c #B2344E",
"~. c #B33650",
"^. c #BB3652",
"/. c #BE3955",
"(. c #C42343",
"). c #C72F4E",
"_. c #CD2C4D",
"`. c #D52A4D",
"'. c #D02446",
"]. c #D32C50",
"[. c #C63B58",
"{. c #C83956",
"}. c #D63758",
"|. c #D43C5C",
" X c #DC3A5B",
".X c #D3405F",
"XX c #D94161",
"oX c #E74365",
"OX c #CB8300",
"+X c #D58100",
"@X c #DB8301",
"#X c #DC8A00",
"$X c #E58C00",
"%X c #EE8E00",
"&X c #E79600",
"*X c #EB9500",
"=X c #F09400",
"-X c #F39A00",
";X c #FA9F00",
":X c #FEA400",
">X c #FFA900",
",X c None",
/* pixels */
",X,X,X,X,X,X,X,X,X,X,X,X,X,X,X,X,X,X,X,X,X,X:X:X:X>X>X>X,X,X,X,X,X,X,X,X,X,X,X,X,X,X,X,X,X,X,X,X,X,X",
",X,X,X,X,X,X,X,X,X,X,X,X,X,X,X,X,X,X,X,X,X,X:X;X;X-X-X-X,X,X,X,X,X,X,X,X,X,X,X,X,X,X,X,X,X,X,X,X,X,X",
",X,X,X,X,X,X,X,X,X,X,X,X,X,X,X,X,X,X,X,X,X,X*X*X#XOXD.A.,X,X,X,X,X,X,X,X,X,X,X,X,X,X,X,X,X,X,X,X,X,X",
",X,X,X,X,X,X,X,X,X,X,X,X,X,X,X,X,X,X,X,X,X,X$XL.S.z.} D ,X,X,X,X,X,X,X,X,X,X,X,X,X,X,X,X,X,X,X,X,X,X",
",X,X,X,X,X,X,X,X,X,X,X,X,X,X,X,X,X,X,X,X,X,XL.K.k.A 3 @ ,X,X,X,X,X,X,X,X,X,X,X,X,X,X,X,X,X,X,X,X,X,X",
",X,X,X,X,X,X,X,X,X,X,X,X,X,X,X,X,X,X,X,X,XF.F.n.+.u , ; p ,X,X,X,X,X,X,X,X,X,X,X,X,X,X,X,X,X,X,X,X,X",
",X,X,X,X,X,X,X,X,X,X,X,X,X,X,X,X,X. 0 W 5.f.@.@.O.M v b &.-.$.i . ,X,X,X,X,X,X,X,X,X,X,X,X,X,X,X,X,X",
",X,X,X,X,X,X,X,X,X,X,X,X,X,X,X,X  O i $.8.r.7.7.6.6.-.3.e.5.$.i O   ,X,X,X,X,X,X,X,X,X,X,X,X,X,X,X,X",
",X,X,X,X,X,X,X,X,X,X,X,X,X,X,XO - e c 2.y.g.g.y.g.g.g.g.g.y.>.c e - O ,X,X,X,X,X,X,X,X,X,X,X,X,X,X,X",
",X,X,X,X,X,X,X,X,X,X,X,X,X,X. , d Q 1.R.).].]._.`.`.].].].`.R.2.Q j ; . ,X,X,X,X,X,X,X,X,X,X,X,X,X,X",
",X,X,X,X,X,X,X,X,X,X,X,X,X  O p M ,.y.).}.|.|.}.}.|.}.|.|.}.).d.,.W i O   ,X,X,X,X,X,X,X,X,X,X,X,X,X",
",X,X,X,X,X,X,X,X,X,X,X,XO O > a W =.q.Y.!.~.~.~.!.!.~.~.~.!.T.q.=.M a , O O ,X,X,X,X,X,X,X,X,X,X,X,X",
",X,X,X,X,X,X,X,X,X,X,XO 0 d h f f h U ~ ) ` ) ) ) ) ) ) _ _ ~ z h d h f d 0 O ,X,X,X,X,X,X,X,X,X,X,X",
",X,X,X,X,X,X,X,X,X,X  - d W $.c < $ O : 8 8 8 8 8 8 8 8 8 8 : - - < x $.W j -   ,X,X,X,X,X,X,X,X,X,X",
",X,X,X,X,X,X,X,X,X    O a W $.v w 8 % : % % : % : % % : : % : % 8 w c $.W a O     ,X,X,X,X,X,X,X,X,X",
",X,X,X,X,X,X,X,X,X    . , p c ! ~ ~ ~ T R R ) ~ ~ ) T ) T R R ) ) ~ / c a , .     ,X,X,X,X,X,X,X,X,X",
",X,X,X,X,X,X,X,X,X      o O e ~ a.W.!.W.W.W.W.W.W.W.W.W.W.W.W.!.W.a.~ w O o       ,X,X,X,X,X,X,X,X,X",
",X,X,X,X,X,X,X,X,X        # q ^ U./.|.XX.X.X[.[./././.[.|..X.X|./.U.~ q o .       ,X,X,X,X,X,X,X,X,X",
",X,X,X,X,X,X,X,X,X    . 8 I T _ ] I.!..XXX[.Q.a.i.i.a.Q.[..X.X!.a.] ` T I 9 X     ,X,X,X,X,X,X,X,X,X",
",X,X,X,X,X,X,X,X,X    % Y p.I.' Y Y ] ~.[.W.` k q q k ` Q..X^.] Y Y ' a.i.Y =     ,X,X,X,X,X,X,X,X,X",
",X,X,X,X,X,X,X,X,X    8 ^ W.!.' 9 8 R T.^.a.I .     # k a./.T.R : q ' !.W.^ 8     ,X,X,X,X,X,X,X,X,X",
",X,X,X,X,X,X,X,X,X    8 ^ Y.R.^ : # l U.R.1.w         w 1.Y.s.l # > ^ E.R.^ 8     ,X,X,X,X,X,X,X,X,X",
",X,X,X,X,X,X,X,X,X    : ! 0.0.! - o s :.w.( e         0 ( w.1.s o : / 0.2./ -     ,X,X,X,X,X,X,X,X,X",
",X,X,X,X,X,X,X,X,X    - h =.=.x - $ a :.6.W e .     . < M 6.:.a O - x =.>.x O     ,X,X,X,X,X,X,X,X,X",
",X,X,X,X,X,X,X,X,X    - f *.-.x : @ u O.#.o.7 .     . 7 o.#.O.u $ - x =.=.g -     ,X,X,X,X,X,X,X,X,X",
",X,X,X,X,X,X,X,X,X    - x =.-.x - % S b.G.l.B .     . B l.G.b.S @ ; x =.*.x -     ,X,X,X,X,X,X,X,X,X",
",X,X,X,X,X,X,X,X,X    - d %.%.g - 2 } D.#Xm.Z X     . Z m.#XD.[ 2 - j %.%.f -     ,X,X,X,X,X,X,X,X,X",
",X,X,X,X,X,X,X,X,X    O i c c 0 o & { OX&XA.Z X     X A A.&XOX{ & # 0 Q v 0 o     ,X,X,X,X,X,X,X,X,X",
",X,X,X,X,X,X,X,X,X      $ ; , $   &  .OX&XS.D X     X A A.&XOX .&   $ e , -       ,X,X,X,X,X,X,X,X,X",
",X,X,X,X,X,X,X,X,X    . . o o     2 { H.#XN.Z X     X Z N.#XH.{ 2     o . . . .   ,X,X,X,X,X,X,X,X,X",
",X,X,X,X,X,X,X,X,X5 4 6 > > ; - ; 7 K v.N.X.r .     . r X.N.v.K 7 O .     @ 5 3 3 ,X,X,X,X,X,X,X,X,X",
",X,X,X,X,X,X,X  & C G K P m b b E c L J D t *         * t D J L m j ; . X r D F V &   ,X,X,X,X,X,X,X",
",X,X,X,X,X,X  . 4 D c.b.#.u.=.3.3.%.v y 2 o .         X X 2 y Q ;.W i $ & D x.c.H 4     ,X,X,X,X,X,X",
",X,X,X,X,X,X@ 4 V z.Z.G.n.u.=.3.8.3.M i - $ 9 9 q q q 8 - ; p W 3.=.j O 5 [ B.Z.x.V 4 @ ,X,X,X,X,X,X",
",X,X,X,X  5 B G z.C.@XJ.n.P v $.3.8.=.n E E ^ ' ] ] ' ^ E g n -.8.=.j O 5  .H.@XS.j.F C 5   ,X,X,X,X",
",X,X,X  . 4 G c.Z.#X*X+Xz.y , j *.4.4.3.-.w.E.^././.^.E.q.-.3.4.4.%.p O 4 ..J.*X$XZ.c.F 4 .   ,X,X,X",
",X,X,X  . 4 H V.@X=X=XOX .4 o 0 v =.3.4.e.(._.}..X|.}._.(.r.8.3.=.Q e o 3 ..J.*X=XL.V.[ 4 .   ,X,X,X",
",X,X,X  . 4 | C.@X%X$XD.{ 5   # 0 x $.5.r.h.'.`.].].`.'.h.r.3.$.v 0 $ o 4  .K.$X%X@XC.| 6 .   ,X,X,X",
",X,X,X  . 6 { M.L.L.J.N.G 2     o , x *.e.r.g.t.g.g.t.r.r.e.*.h ; o     5 G M.L.L.L.B.| 4     ,X,X,X",
",X,X,X    4 G c.M.V.b.k.A 2       o 0 n *.=.-.=.=.=.=.,.=.=.n 0 o       @ A k.m.C.V.c.H 4 .   ,X,X,X",
",X,X,X,X. 5 C F H H G A 6 +         O 0 f h h h h h h h h f 0 $         + 6 A G H H S V 5   ,X,X,X,X",
",X,X,X,X,X,X2 4 3 4 3 5 + .         . O - - - - ; - - - - $ O .           + 2 4 3 3 3 5 ,X,X,X,X,X,X",
",X,X,X,X,X,X                  . o o $ $ $ % X         . o % $ $ O . .               .   ,X,X,X,X,X,X",
",X,X,X,X,X,X,X              . - e a z U Y w =         % k Y R U a 0 - .               ,X,X,X,X,X,X,X",
",X,X,X,X,X,X,X,X,X,X,X,X    o < v $.2.U.U.P.,X,X,X,X,X,XP.U.T.2.;.v < o     ,X,X,X,X,X,X,X,X,X,X,X,X",
",X,X,X,X,X,X,X,X,X,X,X,X,X  O p $.9.(.}.|..X,X,X,X,X,X,X.X|.).(.9.$.p O   ,X,X,X,X,X,X,X,X,X,X,X,X,X",
",X,X,X,X,X,X,X,X,X,X,X,X,X,XO d *.g.`. XoX,X,X,X,X,X,X,X,XoX X`.g.*.p O ,X,X,X,X,X,X,X,X,X,X,X,X,X,X",
",X,X,X,X,X,X,X,X,X,X,X,X,X,X,X,X,X,X,X,X,X,X,X,X,X,X,X,X,X,X,X,X,X,X,X,X,X,X,X,X,X,X,X,X,X,X,X,X,X,X",
",X,X,X,X,X,X,X,X,X,X,X,X,X,X,X,X,X,X,X,X,X,X,X,X,X,X,X,X,X,X,X,X,X,X,X,X,X,X,X,X,X,X,X,X,X,X,X,X,X,X",
",X,X,X,X,X,X,X,X,X,X,X,X,X,X,X,X,X,X,X,X,X,X,X,X,X,X,X,X,X,X,X,X,X,X,X,X,X,X,X,X,X,X,X,X,X,X,X,X,X,X"
};
