/* XPM */
static char *result[] = {
/* columns rows colors chars-per-pixel */
"50 50 209 2 ",
"   c #020000",
".  c #0B0203",
"X  c #0D0900",
"o  c #140205",
"O  c #1A0207",
"+  c #130C00",
"@  c #180D01",
"#  c #130408",
"$  c #1C0309",
"%  c #1C090D",
"&  c #171000",
"*  c #1D1100",
"=  c #1F1900",
"-  c #23030A",
";  c #2B030C",
":  c #24090F",
">  c #2D080F",
",  c #32040E",
"<  c #39040F",
"1  c #330A0B",
"2  c #241600",
"3  c #241900",
"4  c #2C1B01",
"5  c #341F00",
"6  c #311406",
"7  c #260B11",
"8  c #2B0C12",
"9  c #250711",
"0  c #370011",
"q  c #3C0511",
"w  c #320D15",
"e  c #2E1016",
"r  c #391019",
"t  c #2B2000",
"y  c #3B2401",
"u  c #3C2800",
"i  c #362200",
"p  c #4C160D",
"a  c #430512",
"s  c #4C0614",
"d  c #4A0C19",
"f  c #4A0815",
"g  c #510716",
"h  c #550817",
"j  c #550518",
"k  c #5A0619",
"l  c #5C091A",
"z  c #580718",
"x  c #45151F",
"c  c #4E111D",
"v  c #55101E",
"b  c #61071A",
"n  c #64091B",
"m  c #6B0A1D",
"M  c #730A1F",
"N  c #6D1F12",
"B  c #71121A",
"V  c #7F161D",
"C  c #442B00",
"Z  c #4A2D00",
"A  c #402700",
"S  c #5E2709",
"D  c #4B3000",
"F  c #533300",
"G  c #5C3600",
"H  c #5B3B00",
"J  c #663D00",
"K  c #6C3F00",
"L  c #7C2F10",
"P  c #753809",
"I  c #491722",
"U  c #461620",
"Y  c #521925",
"T  c #5B1826",
"R  c #6E0520",
"E  c #760A20",
"W  c #7C0B21",
"Q  c #651424",
"!  c #641D2C",
"~  c #6C1C2C",
"^  c #6C1025",
"/  c #7A1125",
"(  c #721C2F",
")  c #78162A",
"_  c #741F31",
"`  c #7A1D30",
"'  c #69202F",
"]  c #6C2130",
"[  c #7E2235",
"{  c #624200",
"}  c #6B4300",
"|  c #7C4B01",
" . c #714200",
".. c #7C5300",
"X. c #903E0B",
"o. c #9C281B",
"O. c #AE301F",
"+. c #840C24",
"@. c #8C0D26",
"#. c #910D27",
"$. c #950D28",
"%. c #9B0E2A",
"&. c #87152C",
"*. c #93112A",
"=. c #9A1732",
"-. c #A40E2C",
";. c #AB0F2E",
":. c #B20F2F",
">. c #A2112B",
",. c #AD112E",
"<. c #A51D26",
"1. c #B0102F",
"2. c #B61C2D",
"3. c #AD0D30",
"4. c #B50F30",
"5. c #B80F32",
"6. c #AC1532",
"7. c #A31A36",
"8. c #A81B37",
"9. c #AB1D3B",
"0. c #B31131",
"q. c #BB1233",
"w. c #BA1738",
"e. c #B91838",
"r. c #B01B39",
"t. c #822639",
"y. c #88273B",
"u. c #912138",
"i. c #A6253F",
"p. c #BF273A",
"a. c #C11134",
"s. c #C11C3D",
"d. c #C63C2D",
"f. c #824B00",
"g. c #8F400D",
"h. c #904E07",
"j. c #8E5300",
"k. c #8C5B00",
"l. c #865100",
"z. c #955600",
"x. c #975A01",
"c. c #9B5B00",
"v. c #A15E00",
"b. c #B74B14",
"n. c #9B6200",
"m. c #976300",
"M. c #A46900",
"N. c #A76000",
"B. c #B16700",
"V. c #B66A00",
"C. c #BD6D00",
"Z. c #B47300",
"A. c #BC7300",
"S. c #C2401D",
"D. c #C95916",
"F. c #C06F01",
"G. c #CB6A0C",
"H. c #C27100",
"J. c #CA7600",
"K. c #CE7A00",
"L. c #C27A01",
"P. c #D37D00",
"I. c #D17703",
"U. c #932C42",
"Y. c #9B2E45",
"T. c #9B3147",
"R. c #AC2C46",
"E. c #A72943",
"W. c #BD2443",
"Q. c #B42B47",
"!. c #AE314B",
"~. c #A23047",
"^. c #B8334E",
"/. c #B1314B",
"(. c #AE3850",
"). c #BC3752",
"_. c #C91D40",
"`. c #C32444",
"'. c #C52B4A",
"]. c #CB294A",
"[. c #CB2547",
"{. c #C6334E",
"}. c #CC3352",
"|. c #CE3C5B",
" X c #C83A57",
".X c #D43B5B",
"XX c #D83354",
"oX c #D32447",
"OX c #D54045",
"+X c #CC405D",
"@X c #D6405F",
"#X c #E3435F",
"$X c #DB4362",
"%X c #E9466A",
"&X c #CD8300",
"*X c #D48400",
"=X c #DE8500",
"-X c #D38900",
";X c #DC8A00",
":X c #E38C00",
">X c #E18700",
",X c #E69400",
"<X c #EB9300",
"1X c #F29400",
"2X c #F49A00",
"3X c #FB9F00",
"4X c #FFA300",
"5X c #FFA900",
"6X c None",
/* pixels */
"6X6X6X6X6X6X6X6X6X6X6X6X6X6X6X6X6X6X6X6X6X6X6X6X6X4X4X4X5X5X5X6X6X6X6X6X6X6X6X6X6X6X6X6X6X6X6X6X6X6X",
"6X6X6X6X6X6X6X6X6X6X6X6X6X6X6X6X6X6X6X6X6X6X6X6X6X4X3X4X2X2X2X6X6X6X6X6X6X6X6X6X6X6X6X6X6X6X6X6X6X6X",
"6X6X6X6X6X6X6X6X6X6X6X6X6X6X6X6X6X6X6X6X6X6X6X6X6X2X<X;X&XZ.Z.6X6X6X6X6X6X6X6X6X6X6X6X6X6X6X6X6X6X6X",
"6X6X6X6X6X6X6X6X6X6X6X6X6X6X6X6X6X6X6X6X6X6X6X6X6X:X*XZ.k.} H 6X6X6X6X6X6X6X6X6X6X6X6X6X6X6X6X6X6X6X",
"6X6X6X6X6X6X6X6X6X6X6X6X6X6X6X6X6X6X6X6X6X6X6X6X6XP.C.x.H 4 @ 6X6X6X6X6X6X6X6X6X6X6X6X6X6X6X6X6X6X6X",
"6X6X6X6X6X6X6X6X6X6X6X6X6X6X6X6X6X6X6X6X6X6X6X6X6XD.b.g.S 1 , a 6X6X6X6X6X6X6X6X6X6X6X6X6X6X6X6X6X6X",
"6X6X6X6X6X6X6X6X6X6X6X6X6X6X6X6X6X# Y T.$X%X%X%XOXd.O.o.V R R +.-.@.s o 6X6X6X6X6X6X6X6X6X6X6X6X6X6X",
"6X6X6X6X6X6X6X6X6X6X6X6X6X6X6X6X  % Y ~.$X$X%X.X{.p.2.,.>.-.-.3.;.@.d $   6X6X6X6X6X6X6X6X6X6X6X6X6X",
"6X6X6X6X6X6X6X6X6X6X6X6X6X6X6X% 8 x _ R.}.}.).!.R.r.0.4.4.0.q.q.1.$.n < - o 6X6X6X6X6X6X6X6X6X6X6X6X",
"6X6X6X6X6X6X6X6X6X6X6X6X6X6X% I ~ t.Y.W.`.i.t.( ) =.3.4.4.4.q.4.1.-.+.m g , o 6X6X6X6X6X6X6X6X6X6X6X",
"6X6X6X6X6X6X6X6X6X6X6X6X6X  % T U.^.`.p.8./ d w d +.-.q.0.0.4.0.1.1.;.%.+.g $   6X6X6X6X6X6X6X6X6X6X",
"6X6X6X6X6X6X6X6X6X6X6X6X    % Y U.!.Q.7.+.g - . < M ,.0.q.1.0.:.:.:.q.1.$.n < - o 6X6X6X6X6X6X6X6X6X",
"6X6X6X6X6X6X6X6X6X6X6X      . e Y ' ~ l s - .   , M ;.q.q.0.1.:.:.:.4.5.-.@.n s < O 6X6X6X6X6X6X6X6X",
"6X6X6X6X6X6X6X6X6X6X          o % 7 7 - $ .   . < M ;.q.4.:.1.0.1.:.0.1.;.>.%.+.g -   6X6X6X6X6X6X6X",
"6X6X6X6X6X6X6X6X6X      . o O O O O O O O o O - a m #.-.,.0.0.q.e.e.w.w.q.w.q.$.b -     6X6X6X6X6X6X",
"6X6X6X6X6X6X6X6X6X    . - a g g g s g g g g g g g z l M $.0.w.s.`.].].].oXs.w.%.b -     6X6X6X6X6X6X",
"6X6X6X6X6X6X6X6X6X    O a E @.#.@.@.#.@.@.#.#.+.n a , s M ;.s.[.}..X.X.X}.[.w.%.k -     6X6X6X6X6X6X",
"6X6X6X6X6X6X6X6X6X    O v *.0.3.-.%.%.%.%.;.,.-.W a - < n $.r.'.|.@X.X X{.`.e.%.l -     6X6X6X6X6X6X",
"6X6X6X6X6X6X6X6X6X    : Q 9.p.8.+.M m m E @.;.6.$.n d s h m &.Q.|.+X(.U.y.7.6.%.b -     6X6X6X6X6X6X",
"6X6X6X6X6X6X6X6X6X    7 ~ R.^.u.v , - ; < n @.-.,.%.+.n a q T u.+X).t.Y d / >.%.n ;     6X6X6X6X6X6X",
"6X6X6X6X6X6X6X6X6X    7 ( /.^.[ w       o a +.,.q.0.;.M q % r t.^./.~ 7 $ z +.@.l -     6X6X6X6X6X6X",
"6X6X6X6X6X6X6X6X6X    : ~ R.R.) 7       . q W ,.a.a.:.W < o 8 ` Q.E.T O . , z b a O     6X6X6X6X6X6X",
"6X6X6X6X6X6X6X6X6X    : Q 7.7.^ 9       . q W >.q.a.;.W q o > ) 7.=.v O   o ; ; $ .     6X6X6X6X6X6X",
"6X6X6X6X6X6X6X6X6X    $ h @.*.m 1 +     o a +.,.q.q.;.V q o - b *.@.z O                 6X6X6X6X6X6X",
"6X6X6X6X6X6X6X6X6X    o 0 n B N S D t + o a +.6.a.a.:.+.< o O a n k , o                 6X6X6X6X6X6X",
"6X6X6X6X6X6X6X6X6X    . o ; p P x.m.{ 4 o a W 3.a.a.:.+.a o . O ; ; O .                 6X6X6X6X6X6X",
"6X6X6X6X6X6X6X6X6X          6 | A.-Xk.u o 0 E -.:.:.-.M q o     + o X       . .         6X6X6X6X6X6X",
"6X6X6X6X6X6X6X6X6X          3 ..-X,XM.C o - j E +.+.M j ;   X * 4 3 + .   O ; ; O .     6X6X6X6X6X6X",
"6X6X6X6X6X6X6X6X6X          = ..-X,Xn.D X . ; q a a 0 9 .   + C J G i + o 0 k l a O     6X6X6X6X6X6X",
"6X6X6X6X6X6X6X6X6X          3 | &X;Xm.C X   . . o O o . . X 5  .c.j.F * O g +.@.z -     6X6X6X6X6X6X",
"6X6X6X6X6X6X6X6X6X      . - p X.G.G.h.u         X 3 i u u C J x.V.c.F 2 - l %.%.n -     6X6X6X6X6X6X",
"6X6X6X6X6X6X6X6X6X    o 0 k V O.d.b.L 6       X t { k.m.n.n.M.C.H.v.F @ - k $.%.n -     6X6X6X6X6X6X",
"6X6X6X6X6X6X6X6X6X    $ s +.%.2.2.<.M 1 .     X Z x.-X,X,X:X=X=XH.z.F * - k #.$.n ;     6X6X6X6X6X6X",
"6X6X6X6X6X6X6X6X6X6X  O s M #.;.3.-.M s ; .   + F M.,X4X3X3X<X>XJ.x.F * O k $.-.W a : O 6X6X6X6X6X6X",
"6X6X6X6X6X6X6X6X6X6X6XO , s n +.-.3.%.+.l 0 o @ Z n.=X1X1X:X>X>XJ.c.F * - k %.;.$.E k a -   6X6X6X6X",
"6X6X6X6X6X6X6X6X6X6X6X6X. O , l #.;.:.-.@.k - o A l.H.P.P.J.I.J.H.z.F * O g #.6.4.-.@.z ;     6X6X6X",
"6X6X6X6X6X6X6X6X6X6X6X6X6X  O a M #.%.$.+.j - + 4 J z.B.C.F.C.V.v.| A + o a E %.,.0.>.m ;     6X6X6X",
"6X6X6X6X6X6X6X6X6X6X6X6X6X6Xo , d h n k g , o   & y G f.v.C.B.z.K Z 2 X . - a m @.-.-.m ; .   6X6X6X",
"6X6X6X6X6X6X6X6X6X6X6X6X6X6X6Xo - - - O O o .   . X 3 F z.B.v.K 5 @ X     . O 0 m %.%.m ; .   6X6X6X",
"6X6X6X6X6X6X6X6X6X6X6X6X6X6X6X6X    . % % - $ O .   X 5 K z.f.Z @   . o O     O z @.%.m ;     6X6X6X",
"6X6X6X6X6X6X6X6X6X6X6X6X6X6X6X6X  . % I ! ! v d ; .   & A G Z 2   . ; a a - . o z #.-.m ,     6X6X6X",
"6X6X6X6X6X6X6X6X6X6X6X6X6X6X6X6X  # I [ ~.E.=.+.k ;   . @ 2 * X   O s W M a O O g @.%.m ; .   6X6X6X",
"6X6X6X6X6X6X6X6X6X6X6X6X6X6X6X6X  % Y U.).'.W.6.+.f $ .   .   . O , n @.+.s $ O f W @.n ; .   6X6X6X",
"6X6X6X6X6X6X6X6X6X6X6X6X6X6X6X6X6X% U ] y.E.W.W.7./ h ; o   . ; a h n n z , o . ; g l f -   6X6X6X6X",
"6X6X6X6X6X6X6X6X6X6X6X6X6X6X6X6X6X6X7 8 U _ R.{.'.8.+.k ; . O s E E l q - o   . o - ; ; 6X6X6X6X6X6X",
"6X6X6X6X6X6X6X6X6X6X6X6X6X6X6X6X6X6X6X  % Y Y.|.XX`.,.M < o ; n $.@.z -                 6X6X6X6X6X6X",
"6X6X6X6X6X6X6X6X6X6X6X6X6X6X6X6X6X6X6X6X. U T..XXXoX0.+.a o ; M >.*.z o               6X6X6X6X6X6X6X",
"6X6X6X6X6X6X6X6X6X6X6X6X6X6X6X6X6X6X6X6X6X6X6X6X6X6X6X6X6X6X6X6X6X6X6X6X6X6X6X6X6X6X6X6X6X6X6X6X6X6X",
"6X6X6X6X6X6X6X6X6X6X6X6X6X6X6X6X6X6X6X6X6X6X6X6X6X6X6X6X6X6X6X6X6X6X6X6X6X6X6X6X6X6X6X6X6X6X6X6X6X6X",
"6X6X6X6X6X6X6X6X6X6X6X6X6X6X6X6X6X6X6X6X6X6X6X6X6X6X6X6X6X6X6X6X6X6X6X6X6X6X6X6X6X6X6X6X6X6X6X6X6X6X"
};
