/* XPM */
static char *_e5f27cd75234ee0b9e6e6bc02751bcbze0Nj9iocCBgM7Km[] = {
/* columns rows colors chars-per-pixel */
"50 50 147 2 ",
"   c #1C1C24",
".  c #212129",
"X  c #23232B",
"o  c #24242C",
"O  c #26262E",
"+  c #262630",
"@  c #272733",
"#  c #282830",
"$  c #292931",
"%  c #282832",
"&  c #292933",
"*  c #2A2A32",
"=  c #2A2A34",
"-  c #2B2B35",
";  c #2C2C34",
":  c #2D2D35",
">  c #2C2C36",
",  c #2D2D37",
"<  c #2E2E36",
"1  c #2F2F37",
"2  c #2E2E38",
"3  c #2F2F39",
"4  c #2E2E3A",
"5  c #2F2F3B",
"6  c #2F2E3C",
"7  c #303038",
"8  c #313139",
"9  c #30303A",
"0  c #31313B",
"q  c #32323A",
"w  c #33333B",
"e  c #30303C",
"r  c #31313D",
"t  c #32323C",
"y  c #33333D",
"u  c #32323E",
"i  c #33333F",
"p  c #34343C",
"a  c #35353D",
"s  c #34343E",
"d  c #35353F",
"f  c #36363E",
"g  c #37373F",
"h  c #343341",
"j  c #343440",
"k  c #353541",
"l  c #363640",
"z  c #373741",
"x  c #353442",
"c  c #363543",
"v  c #363642",
"b  c #373743",
"n  c #373644",
"m  c #383745",
"M  c #383840",
"N  c #393941",
"B  c #383842",
"V  c #393943",
"C  c #3A3A42",
"Z  c #3B3B43",
"A  c #3C3D42",
"S  c #383844",
"D  c #393945",
"F  c #3A3A44",
"G  c #3B3B45",
"H  c #393846",
"J  c #3A3947",
"K  c #3A3A46",
"L  c #3B3B47",
"P  c #3C3C44",
"I  c #3D3D45",
"U  c #3C3C46",
"Y  c #3D3D47",
"T  c #3E3E46",
"R  c #3F3F47",
"E  c #3B3A48",
"W  c #3D3D49",
"Q  c #3E3E48",
"!  c #3F3F49",
"~  c #3D3C4A",
"^  c #3E3E4A",
"/  c #3F3F4B",
"(  c #3F3E4C",
")  c #3F4045",
"_  c #404146",
"`  c #404048",
"'  c #414149",
"]  c #424348",
"[  c #40404A",
"{  c #41414B",
"}  c #42424A",
"|  c #43434B",
" . c #434449",
".. c #44454A",
"X. c #45464B",
"o. c #40404C",
"O. c #42424C",
"+. c #43434D",
"@. c #41404E",
"#. c #42414F",
"$. c #43434F",
"%. c #44444C",
"&. c #45454D",
"*. c #46474C",
"=. c #44444E",
"-. c #45454F",
";. c #46464E",
":. c #47474F",
">. c #47484D",
",. c #48494E",
"<. c #494A4F",
"1. c #444351",
"2. c #444450",
"3. c #454551",
"4. c #464650",
"5. c #474751",
"6. c #464553",
"7. c #474753",
"8. c #484850",
"9. c #494951",
"0. c #4A4B50",
"q. c #484852",
"w. c #494953",
"e. c #4A4A52",
"r. c #4B4B53",
"t. c #4B4C51",
"y. c #4C4D52",
"u. c #484854",
"i. c #4A4A54",
"p. c #4B4B55",
"a. c #4A4A56",
"s. c #4C4C54",
"d. c #4D4D55",
"f. c #4C4C56",
"g. c #4D4D57",
"h. c #4E4E56",
"j. c #4F4F57",
"k. c #4E4E58",
"l. c #4F4F59",
"z. c #4D4C5A",
"x. c #4E4E5A",
"c. c #515159",
"v. c #50505A",
"b. c #51515B",
"n. c #53535D",
"m. c #55555F",
"M. c #565563",
/* pixels */
"5.p.f.p.w.p.p.p.f.w.g z F M ' R R R R R R ' R R F z z z Q ( E z m n n n z h h z M M F Q ' ' +.%.%.5.",
"p.f.f.f.k.b.k.p.Q R g z R Q Q Q ' ' ' ' ' ' ' ' ' F z z F F F z z z z z r r r z Q z r M +.w.5.+.5.w.",
"' ' %.%.%.w.%.' R R R F R ' R ' ' ' %.%.%.%.%.' +.' Q R F z z r z z M M z g z M F F F F M M F R ' ' ",
"R ' %.%.' ' %.' 5.5.+.R Q ' Q ' ' ' %.%.%.%.%.' %.%.' ' F z z M M R R R R R M M F F R R Q R Q ' ' ' ",
",.w.w.w.%.w.w.w.w.f.R R ' ' %.' ' %.%.%.%.%.%.%.' %.%.%.Q F F ' R R R R ' R M g M M R ' ' ' ' %.' %.",
"w.w.%.%.w.w.w.w.f.f.R ' %.' %.' %.%.w.w.w.w.w.%.%.%.' Q M g M Q ' ' ' R ' ' R M g M R R R R ' %.' ' ",
"w.w.%.,.w.w.w.w.f.w.' %.w.%.%.%.%.%.%.5.w.w.w.%.p.' g > > 2 z Q R ' ' ' ' ' ' ' ' M g g R ' ' ' %.%.",
"%.,.w.w.w.w.w.f.f.%.' ' %.%.' %.%.%.%.%.w.w.w.%.z 8 2 8 g z r r z R +.+.' ' +.+.' ' M g > > g R %.%.",
"w.w.w.w.w.y.y.t.f.w.' %.%.%.%.%.t.%.' 5.p.+.z 6 r r F ' +.R M M g g g F ' %.%.' ' +.%.+.' M 8 2 Q +.",
"z ' w.f.f.w.f.f.w.w.%.%.%.' %.w.' %.w.p.+.z r r ' %.5.+.' %.+.R Q R g > 8 F %.%.' +.' ' %.' M g r r ",
"M g F +.f.b.n.m.w.%.' %.w.w.%.%.p.p.w.%.F g z F ' %.%.' ' +.+.' ' ' ' F 2 - g w.w.w.%.%.5.+.F z 2 8 ",
"R M g z z F +.p.R ' %.%.%.%.w.b.%.Q z g g M M R Q Q ' 5.5.%.+.+.5.' Q +.' z 8 8 ' %.%.' ' R M F F F ",
"' ' R Q F z F ( %.' %.w.f.w.R g r r g M M R R _ Q R Q %.w.5.%.+.+.%.+.Q +.%.M > > z R F M M M R Q Q ",
"A M M R R F z z %.w.w.w.' g 8 8 M F Q ' ' ' ' ) R ' Q F Q 5.5.%.' 5.5.+.' +.' R 2 z F F R R R R R R ",
"_ %.%.' M z M F ' R M g g R ' ' ' ' ' ' ' ' R R ' ' ' F R %.w.w.w.+.' 5.w.%.' ' M Q Q Q ' ' ' R ' ' ",
"' ' ' R R R R M O 8 R ' ' ' _ ' R ' ' ' ' ' ' ' ' R R Q R F Q 5.%.5.w.%.' R M M g F R R R ' ' %.' ' ",
"' %.%.R F R Q R M Q ' ' ' ' ' %.' ' ' ' ' %.' ' ' ' ' R R ' ' R Q Q +.Q F F M z r r M ' ' ' ' w.....",
"w.%.' R Q +.' M F Q R R ' ' ' +.' ' ' ' ..%.%...' ' ' ' ' ' ' ' ' R R R Q R g 8 R R M M R %.%.%.%.%.",
"' ' ' ' ' +.+.R z Q ' ' ' ' ' ' %.' ' %.%.%.%.%.w.' R ' %.' +.=.Q ' +.' ' M 8 z F R R M R %.w.%.t.t.",
"' ' ' ' ' Q R z F ' ' ' ' %.' ' %.%.%.%.%.%.%.%.%.' ' %.%.' ' ' Q +.+.R z 2 > R F R R ' ' ' ' %.%.%.",
"%.' ' %.%.+.F 2 +.+.R R ' 5.%.' %.%.%.%.%.%.%.%.' %.%.%.' ' %.5.w.+.M 8 r 2 > F %.' R R ' ' ' ' ' ' ",
"w.%.%.%.+.R g > M ' ' ' +.' ' %.%.%.%.%.%.%.%.%.%.%.%.' %.%.+.' z 8 > > 8 8 - 8 R Q ' ' ' %.%.' %.%.",
"w.w.w.' M 8 2 > 8 M ' %.%.' ' %.%.%.%.%.w.,.w.w.%.%.%.w.w.+.M r M M R ' +.' F R g M R ' %.%.%.w.%.%.",
"' R R M z z M M M g 8 M ' %.%.%.%.%.w.w.w.w.w.w.w.,.%.%.M 8 M %.5.' +.+.' +.' ' Q g 8 R %.%.%.f.%.%.",
"z z F F F F F F F Q R z M ' w.w.,.>. .w.w.%.f.f.w.f.5.F z +.w.%.%.+.' ' ' ' +.Q Q Q r - g Q R M g g ",
"g M F F F F R R R R F F F R ' %.%.%.w.w.w.w.k.p.w.R g R w.p.w.5.5.%.+.' ' ' Q R F Q z 2 8 g g g z z ",
"z M F R R R R Q R F F Q R F F ' w.w.p.p.f.k.5.F r M ' w.p.5.' R %.+.+.+.+.' Q Q R Q R g r r r g z z ",
"F F F F R Q Q Q Q R R ' Q F F Q g Q k.w.F z r r r %.f.%.Q %.w.5.%.+.' ' ' ' ' Q Q Q M M M M z z z z ",
"R F M F R ' ' Q Q Q Q ' Q Q Q ' z 2 z z r r 2 r M M R +.w.w.5.+.%.%.' R R R R R R z g z z M M z z z ",
"F F M F R ' ' +.Q ' ' Q Q ' +.' F r r r > 2 M 5.5.R z M R Q +.5.' ' R R M M M M M g g z g z M M F F ",
"F R R R F R ' %.' ' ' ' ' +.+.' 5.r + > r z Q ' +.5.w.%.Q Q ' ' R R R R R M M M g g g M g M R M F F ",
"R Q ' Q F M Q %.+.+.+.+.+.+.' ' ' M 2 z F M ' ' ' Q Q ' ' +.' ' ' ' ' ' R M M g g 8 g g g M R M F F ",
"R R R R R ' ' R +.w.%.+.+.+.5.' %.R z z z z M R R R R R R R R R R R R R M M g g g 8 g M M M M M R R ",
"R R R R ' ' ' R +.5.%.%.%.+.5.+.%.F g z F F F F R R R R R R R ' R M M M g g 8 8 8 > r M F R R R R R ",
"' ' ' ' ' ' ' ' ' %.%.w.5.%.w.5.5.M 2 8 M M M F M M M M M M M M M M M M g g g g > > r F F F R R R R ",
"' ' ' ' ' ' ' ' +.+.+.p.p.5.p.p.+.g > 2 g g g z g g M R R M M g M g g 8 8 8 > > > * 2 M R R R M R R ",
"' ' ' ' ' ' %.%.+.+.' %.%.' +.+.g 8 8 g z r 8 g g M R ' ' ' ' ' R R M g g 8 8 8 > * - g F Q ' R R R ",
"' ' ' %.%.' %.%.%.5.+.%.+.Q Q R 2 8 g z z g z F ' ' ' ' %.%.%.%.%.' ' ' ' R R R M 8 8 r z F R ' ' ' ",
"' ' %.%.%.' %.%.%.w.%.%.%.' ' M g z z g g F ' %.%.%.%.%.' ' %.%.%.' ' %.%.%.' ' ' R F M z z R ' ' ' ",
"%.%.%.%.%.%.%.%.%.w.%.%.%.%.' M z M M z M ' +.+.' %.%.%.%.%.%.%.%.' ' %.%.' ' ' ' R Q Q M z R ' ' ' ",
"%.%.%.%.%.%.w.w.%.%.%.w.5.%.F z F M z M ' %.%. .%.%.%.%.%.' ' %.w.%.%.%.%.' ' ' ..R ' R ' R g ' %.%.",
"' %.%.%.w.w.w.w.w.p.w.w.+.Q z z g M R ' %.%...%.%.%.%.%.%.%.%.w.%.%.%.%.%.%.' ' ' R %.R ' R 2 z ' %.",
"w.w.w.f.f.f.f.w.w.%.R g M z z M M M R ' ' ....%.>.,.,.w.%.%.%.%.%.%.%.%.%.' ' ' ' ' ' R ' Q 2 2 F 5.",
"R R R R ' R M g 8 * .   2 z F R R R ' ' %.%.%.%...,.t.w.,.%.%.%.,.,.,.%... .....%.' ' R ' Q 2 * - F ",
"z z M M M z 8 2 > * O . z F R M M ' %.w.%.%.%.w...,.t.w.%.w.w.w.%.%.%.%.%.' ' ' ' R ' ' ' M > * + z ",
"' ' ' +.+.' Q R R R R g M F R F M R ' +.+.%.5.5.p.p.w.w.w.w.w.f.%.>.w.w.w.%.%.' ' ' ' ' M 8 8 z z ' ",
"' +.+.+.%.%.+.+.' R R M 2 r R R R z r z F Q +.Q 5.5.p.f.f.w.w.t.k.f.f.p.w.w.5.5.%.' Q F z g R ' ' +.",
"+.%.%.%.%.%.5.5.' ' ' R * 2 r 8 g z r z z z n m m Q 5.k.b.f.t.t.f.w.' F M F F R R R F F R ' +.F ' Q ",
"%.5.5.5.5.w.w.5...%.%.M 8 z F R M M z g r r z n m n m E +.M.1.+.F F z z z z r r z R F R Q Q Q Q +.+.",
"%.5.5.5.5.w.w.5.%.%.%.F r M R R R Q R F F F F F F m m m F k.F m F F z z z z r r z R R Q ' Q ' ' +.+."
};
