/* XPM */
static char *result[] = {
/* columns rows colors chars-per-pixel */
"50 50 229 2 ",
"   c #120500",
".  c #130600",
"X  c #150600",
"o  c #150700",
"O  c #190705",
"+  c #170800",
"@  c #180800",
"#  c #1B0801",
"$  c #1A0A01",
"%  c #1F011C",
"&  c #200C01",
"*  c #260F01",
"=  c #270E04",
"-  c #261104",
";  c #2C1303",
":  c #2F1604",
">  c #2E190A",
",  c #3A1604",
"<  c #341800",
"1  c #341803",
"2  c #331A07",
"3  c #3E1C04",
"4  c #391E08",
"5  c #290712",
"6  c #2F0818",
"7  c #330C14",
"8  c #3C0D1C",
"9  c #3E1412",
"0  c #200020",
"q  c #210021",
"w  c #260122",
"e  c #2D0228",
"r  c #2C002C",
"t  c #31022C",
"y  c #350035",
"u  c #350135",
"i  c #340434",
"p  c #3E0530",
"a  c #3B013A",
"s  c #3B003B",
"d  c #3E003E",
"f  c #3F003F",
"g  c #3F023F",
"h  c #4A1B16",
"j  c #422204",
"k  c #40240F",
"l  c #47250D",
"z  c #4D2B0C",
"x  c #472D14",
"c  c #512C17",
"v  c #563314",
"b  c #593819",
"n  c #613E1D",
"m  c #4A0C26",
"M  c #4C0F2E",
"N  c #4A063C",
"B  c #5B0E3B",
"V  c #5F2D31",
"C  c #65421E",
"Z  c #6A4724",
"A  c #714E2C",
"S  c #77542F",
"D  c #7F5B38",
"F  c #410041",
"G  c #440144",
"H  c #460046",
"J  c #470B47",
"K  c #480048",
"L  c #4A034A",
"P  c #4C024C",
"I  c #4C074C",
"U  c #4D074D",
"Y  c #50034F",
"T  c #4E104E",
"R  c #530353",
"E  c #570657",
"W  c #520B52",
"Q  c #540D54",
"!  c #580558",
"~  c #5E045D",
"^  c #511451",
"/  c #571457",
"(  c #5F1C5F",
")  c #60115E",
"_  c #741253",
"`  c #5F0060",
"'  c #630363",
"]  c #660C66",
"[  c #660D66",
"{  c #690269",
"}  c #6A0D6A",
"|  c #6D0C6D",
" . c #6D186D",
".. c #700770",
"X. c #730773",
"o. c #740774",
"O. c #790579",
"+. c #7A0D7A",
"@. c #721272",
"#. c #672A67",
"$. c #662C66",
"%. c #6D256D",
"&. c #6B326B",
"*. c #732273",
"=. c #792279",
"-. c #703670",
";. c #743774",
":. c #7C307C",
">. c #7A417A",
",. c #7A457A",
"<. c #82266A",
"1. c #8D6842",
"2. c #8D6943",
"3. c #A47E55",
"4. c #810380",
"5. c #800C80",
"6. c #850A86",
"7. c #8C0B81",
"8. c #8A0189",
"9. c #8A008A",
"0. c #801480",
"q. c #881688",
"w. c #8E188E",
"e. c #8F1D8F",
"r. c #910491",
"t. c #9C009C",
"y. c #9E009F",
"u. c #9B0B9B",
"i. c #901090",
"p. c #9A1298",
"a. c #981C98",
"s. c #882488",
"d. c #882B88",
"f. c #893389",
"g. c #883688",
"h. c #902B90",
"j. c #9B2B9B",
"k. c #933C93",
"l. c #993A99",
"z. c #A72496",
"x. c #A602A6",
"c. c #AE04AF",
"v. c #A017A0",
"b. c #A411A4",
"n. c #AA15AA",
"m. c #AE1FAE",
"M. c #B703B7",
"N. c #B30FB3",
"B. c #B213B2",
"V. c #BB11BA",
"C. c #A02BA0",
"Z. c #AA22AA",
"A. c #B22CA1",
"S. c #B828A8",
"D. c #A43FA5",
"F. c #A936A9",
"G. c #B525B5",
"H. c #B12CB1",
"J. c #BB21BB",
"K. c #B92DB9",
"L. c #824582",
"P. c #8D448D",
"I. c #875287",
"U. c #9F4F9F",
"Y. c #945894",
"T. c #966296",
"R. c #A94BA9",
"E. c #BA4AB5",
"W. c #B258B2",
"Q. c #A56CA5",
"!. c #A979A9",
"~. c #B178B1",
"^. c #BC7FBC",
"/. c #C110C1",
"(. c #C614C6",
"). c #D212D2",
"_. c #CB29CA",
"`. c #C233C2",
"'. c #C939C0",
"]. c #DD25DD",
"[. c #D330D3",
"{. c #DA31DB",
"}. c #D839D8",
"|. c #FE11FE",
" X c #E227E4",
".X c #E525E5",
"XX c #E335E3",
"oX c #EA3AEB",
"OX c #EF2EF0",
"+X c #F332F3",
"@X c #FD32FD",
"#X c #C847C8",
"$X c #C35DC3",
"%X c #DC45DC",
"&X c #D858D8",
"*X c #CD6ACD",
"=X c #CA77CA",
"-X c #ED47ED",
";X c #E953E9",
":X c #F349F3",
">X c #F552F5",
",X c #F15EF1",
"<X c #FE5DFE",
"1X c #E37CE3",
"2X c #F076F0",
"3X c #FF71FF",
"4X c #FF7DFF",
"5X c #C68EC6",
"6X c #C89CC8",
"7X c #D789D7",
"8X c #DEA4DE",
"9X c #EC9BEC",
"0X c #F088F0",
"qX c #FC87FC",
"wX c #F690F6",
"eX c #FF98FF",
"rX c #E2A5E2",
"tX c #E1B6E1",
"yX c #EDBEED",
"uX c #FEA6FE",
"iX c #FFB2FF",
"pX c #D2C0D2",
"aX c #E2C9E2",
"sX c #F2C7F2",
"dX c #FFC4FF",
"fX c #FFD3FF",
"gX c #F9DFF9",
"hX c #FFECFF",
"jX c None",
/* pixels */
"jXjXjXjXjXjXjXjXjXjXjXjXjXjXjXjXjXjXjXjXjXjXjXjXjXjXjXjXjXjXjXjXjXjXjXjXjXjXjXjXjXjXjXjXjXjXjXjXjXjX",
"jXjXjXjXjXjXjXjXjXjXjXjXjXjXjXjXjXjXjXjXjXjXjXjXjXjXjXjXjXjXjXjXjXjXjXjXjXjXjXjXjXjXjXjXjXjXjXjXjXjX",
"jXjXjXjXjXjXjXjXjXjXjXjXjXjXjXjXjXjXjXjXjXjXjXjXjXjXjXjXjXjXjXjXjXjXjXjXjXjXjXjXjXjXjXjXjXjXjXjXjXjX",
"jXjXjXjXjXjXjXjXjXjXjXjXjXjXjXjXjXjXjXjXjXjXjXjXjXjXjXjXjXjXjXjXjXjXjXjXjXjXjXjXjXjXjXjXjXjXjXjXjXjX",
"jXjXjXjXjXjXjXjXjXjXjXjXjXjXjXjXjXjXjXjXjXjXjXjXjXjXjXjXjXjXjXjXjXjXjXjXjXjXjXjXjXjXjXjXjXjXjXjXjXjX",
"jXjXjXjXjXjXjXjXjXjXjXjXjXjXjXjXjXjXjXjXjXjXjXjXjXjXjXjXjXjXjXjXjXjXjXjXjXjXjXjXjXjXjXjXjXjXjXjXjXjX",
"jXjXjXjXjXjXjXjXjXjXjXjXjXjXjXjXjXjXjXjXjXjXjXjXjXs d d d jXjXjXjXjXjXjXjXjXjXjXjXjXjXjXjXjXjXjXjXjX",
"jXjXjXjXjXjXjXjXjXjXjXjXjXjXjXjXjXjXjXjXjXjXjXjXjX,.>.>.>.-.jXjXjXjXjXjXjXjXjXjXjXjXjXjXjXjXjXjXjXjX",
"jXjXjXjXjXjXjXjXjXjXjXjXjXjXjXjXjXjXjXjXjXjXjXf &.pXgXsXsX~.Q jXjXjXjXjXjXjXjXjXjXjXjXjXjXjXjXjXjXjX",
"jXjXjXjXjXjXjXjXjXjXjXjXjXjXjXjXjXjXjXjXjXjX% ,.6XgXfXiXiX1XH.| jXjXjXjXjXjXjXjXjXjXjXjXjXjXjXjXjXjX",
"jXjXjXjXjXjXjXjXjXjXjXjXjXjXjXjXjXjXjXjXjXjXU T.tXdXiXeX4X<X@Xv.] jXjXjXjXjXjXjXjXjXjXjXjXjXjXjXjXjX",
"jXjXjXjXjXjXjXjXjXjXjXjXjXjXjXjXjXjXjXjX% U H.s.;.1XiXdX3X@X|.OXK.E jXjXjXjXjXjXjXjXjXjXjXjXjXjXjXjX",
"jXjXjXjXjXjXjXjXjXjXjXjXjXjXjXjXjXjXjXjX0 T F.e.} h.*XqX<X.Xc.B.w.Y jXjXjXjXjXjXjXjXjXjXjXjXjXjXjXjX",
"jXjXjXjXjXjXjXjXjXjXjXjXjXjXjXjXjXjXjXjX0 J h.C.q.Y q.XXoXJ.O.{ ! H jXjXjXjXjXjXjXjXjXjXjXjXjXjXjXjX",
"jXjXjXjXjXjXjXjXjXjXjXjXjXjXjXjXjXjXjXjX0 W K.G.w.@.[ [ @.i.V.c.4.H jXjXjXjXjXjXjXjXjXjXjXjXjXjXjXjX",
"jXjXjXjXjXjXjXjXjXjXjXjXjXjXjXjXjXjXjXjXq W H.H.a.b...g { m.;X{.u.P jXjXjXjXjXjXjXjXjXjXjXjXjXjXjXjX",
"jXjXjXjXjXjXjXjXjXjXjXjXjXjXjXjXjX^ / / T ) s.h.v./.6.Y m.;XqX;XZ.R jXjXjXjXjXjXjXjXjXjXjXjXjXjXjXjX",
"jXjXjXjXjXjXjXjXjXjXjXjXjXjXs y I !.6X6X=XR.) @.a.p.{ W $X4X3X-XZ.R jXjXjXjXjXjXjXjXjXjXjXjXjXjXjXjX",
"jXjXjXjXjXjXjXjXjXjXjXjXjXjX,.L.Y.rXfXdX0XD.L o.n.q.! W *X4X:XXXZ.R jXjXjXjXjXjXjXjXjXjXjXjXjXjXjXjX",
"jXjXjXjXjXjXjXjXjXjXjXjXf ( 5XyXyXwXqX2XF.~ G i.(.i.! W #X>X{.{.Z.R jXjXjXjXjXjXjXjXjXjXjXjXjXjXjXjX",
"jXjXjXjXjXjXjXjXjXjXjX% r J ;.I.I.l.C.j.b.8.K ..p.O.Y G 0.G.{.oXJ.R jXjXjXjXjXjXjXjXjXjXjXjXjXjXjXjX",
"jXjXjXjXjXjXjXjXjXjXjXr g W Y K K Y ' 4.(.J.Y ! o.{ Y G *.j.J.].B.R jXjXjXjXjXjXjXjXjXjXjXjXjXjXjXjX",
"jXjXjXjXjXjXjXjXjXjXjXr / s.e.0...L { /.oX`.W ! +.{ L T 5X=X+.y.r.R jXjXI U U U f jXjXjXjXjXjXjXjXjX",
"jXjXjXjXjXjXjXjXf s d F Y  .m.m.+.K @.XX:XK.W O.b.o.G T 7X=X..x.c.' y ^ Q.~.Q.R.d.f jXjXjXjXjXjXjXjX",
"jXjXjXjXjXjXjXjX$.#.%.:.%. .n.n.+.K =.,X:XZ.L 4.B...W ;.7X*Xo.M.M.{ K #.5XsXdXuX$XX.jXjXjXjXjXjXjXjX",
"jXjXjXjXjXjXs ,.pXaXtXaXtX=X*.' o.K :.0X,XZ.g ~ 5.Y I.8XuX$X..y.r.Y q.Z.%.W.eXdXwX}.N.t.jXjXjXjXjXjX",
"jXjXjXjXjXjXg.^.hXgXdXfX9XE.w.o.' ~ =.U.`.p.u L ' G Y.iXeX&Xv.x.8.G s.Z.' =.R.~.W.G.r.X.jXjXjXjXjXjX",
"jXjXjXjXjXU W.9XyX9X2X2XF.4.(.u.K 0.0.L 8.r.u g ! g P.0X3X:X[.B.4.Y =.j.0.! G { O.O.o.~ F jXjXjXjXjX",
"jXjXjXjXjXi  .h.f.s.s.s.i.x.M.O.a v.v.K y.c.a t G a %.E.,X>X[.5.~ =.m.J.q.Y K u.(.(.B.4.L jXjXjXjXjX",
"jXjXjXjXjXi { r.r.r.8.8.n._.M...u 6.6.L y.c.a u L g ) j.%X:X{.[ J h.G.n...%.k.}.+X.Xn.X.^ jXjXjXjXjX",
"jXjXjXjXjXi a.XXoX].).).XXXXV...e G L g 4.8.u G ~ g ) a.`.XX].[ g q.w...K U.wX<X-X_...d jXjXjXjXjXjX",
"jXjXjXjXjXi W.3X<XoX XOX+XXX/.o.e u p 8 m B G L K t ! e.a.B.V.! u ) ..~ G D.3X>X{.B.' d jXjXjXjXjXjX",
"jXjXjXjXjXi U.2X>X'.z.S.A.z.7.~ t t 8 z v c M p t t } v.q.6.r.K e G Y N p <.E.A.p.9.` jXjXjXjXjXjXjX",
"jXjXjXjXjXi @.H._.<.h h h h 7 e u 5 k A 1.D l , 9 N 6.V.i.o.' a e a 8 3 , h h h M U jXjXjXjXjXjXjXjX",
"jXjXjXjXjXw Y } ) V C A D S j 7 a 5 4 C C n C A A h B _ B M m e w 8 c Z S n j j , 6 jXjXjXjXjXjXjXjX",
"jXjXjXjXjXq i t # x S 2.3.3.v 7 t 5 1 z z v Z D D v j 3 1 3 l 7 7 l n S 1.A z j < O jXjXjXjXjXjXjXjX",
"jXjXjXjXjXjXO # * 2 l b S S z ; = ; 1 3 A D z j c Z C z ; k Z l l Z v l b z : & @ jXjXjXjXjXjXjXjXjX",
"jXjXjXjXjXjXjX. & & * 4 z v z j 2 ; * : A D j , j b c 4 ; l C j 4 b l 1 1 * +   jXjXjXjXjXjXjXjXjXjX",
"jXjXjXjXjXjXjXjX@ o o = ; , l z k : & * b C 3 3 j 1 ; ; 3 l z 2 ; : : - o o O jXjXjXjXjXjXjXjXjXjXjX",
"jXjXjXjXjXjXjXjXjXjXjXX # # & ; 4 k 4 * 2 4 1 : * * 1 z Z b : 4 4 & # $ jXjXjXjXjXjXjXjXjXjXjXjXjXjX",
"jXjXjXjXjXjXjXjXjXjXjX%       @ * 2 : & # & * * ; 2 4 l b x & ; >     jXjXjXjXjXjXjXjXjXjXjXjXjXjXjX",
"jXjXjXjXjXjXjXjXjXjXjXjXjXjXjXjXo + X X X X X - 2 k 2 * : - X + @ jXjXjXjXjXjXjXjXjXjXjXjXjXjXjXjXjX",
"jXjXjXjXjXjXjXjXjXjXjXjXjXjXjXjXjXjXjXjXjXjXjX. & & & # # @ jXjXjXjXjXjXjXjXjXjXjXjXjXjXjXjXjXjXjXjX",
"jXjXjXjXjXjXjXjXjXjXjXjXjXjXjXjXjXjXjXjXjXjXjXjX. . . . . jXjXjXjXjXjXjXjXjXjXjXjXjXjXjXjXjXjXjXjXjX",
"jXjXjXjXjXjXjXjXjXjXjXjXjXjXjXjXjXjXjXjXjXjXjXjXjXjXjXjXjXjXjXjXjXjXjXjXjXjXjXjXjXjXjXjXjXjXjXjXjXjX",
"jXjXjXjXjXjXjXjXjXjXjXjXjXjXjXjXjXjXjXjXjXjXjXjXjXjXjXjXjXjXjXjXjXjXjXjXjXjXjXjXjXjXjXjXjXjXjXjXjXjX",
"jXjXjXjXjXjXjXjXjXjXjXjXjXjXjXjXjXjXjXjXjXjXjXjXjXjXjXjXjXjXjXjXjXjXjXjXjXjXjXjXjXjXjXjXjXjXjXjXjXjX",
"jXjXjXjXjXjXjXjXjXjXjXjXjXjXjXjXjXjXjXjXjXjXjXjXjXjXjXjXjXjXjXjXjXjXjXjXjXjXjXjXjXjXjXjXjXjXjXjXjXjX",
"jXjXjXjXjXjXjXjXjXjXjXjXjXjXjXjXjXjXjXjXjXjXjXjXjXjXjXjXjXjXjXjXjXjXjXjXjXjXjXjXjXjXjXjXjXjXjXjXjXjX",
"jXjXjXjXjXjXjXjXjXjXjXjXjXjXjXjXjXjXjXjXjXjXjXjXjXjXjXjXjXjXjXjXjXjXjXjXjXjXjXjXjXjXjXjXjXjXjXjXjXjX"
};
