/* XPM */
static char *_2f505b19bc94013a58d738dd3657dce[] = {
/* columns rows colors chars-per-pixel */
"50 50 183 2 ",
"   c #140600",
".  c #190705",
"X  c #170800",
"o  c #1A0801",
"O  c #1F011C",
"+  c #230E01",
"@  c #2D1403",
"#  c #281306",
"$  c #3A1604",
"%  c #341905",
"&  c #3E1C04",
"*  c #391E08",
"=  c #290712",
"-  c #2F0818",
";  c #370C18",
":  c #3E1412",
">  c #1C1C24",
",  c #220021",
"<  c #2D0129",
"1  c #31022C",
"2  c #350235",
"3  c #3E0530",
"4  c #3D013D",
"5  c #24242C",
"6  c #2B2B35",
"7  c #2E2E38",
"8  c #262630",
"9  c #34343D",
"0  c #4A1B16",
"q  c #422204",
"w  c #45250E",
"e  c #4D2B0C",
"r  c #472D14",
"t  c #512C17",
"y  c #563314",
"u  c #593819",
"i  c #613E1D",
"p  c #4B0E2B",
"a  c #5B0E3B",
"s  c #4A063C",
"d  c #5F2D31",
"f  c #65421E",
"g  c #6A4724",
"h  c #714E2C",
"j  c #77542F",
"k  c #7F5B38",
"l  c #373741",
"z  c #383745",
"x  c #3C3C44",
"c  c #3E3E48",
"v  c #440144",
"b  c #470B47",
"n  c #4A034A",
"m  c #50034F",
"M  c #4E104E",
"N  c #540354",
"B  c #520B52",
"V  c #5B055A",
"C  c #541454",
"Z  c #5F1C5F",
"A  c #60115E",
"S  c #741253",
"D  c #5F0060",
"F  c #660D66",
"G  c #690269",
"H  c #660666",
"J  c #6D186D",
"K  c #720772",
"L  c #790579",
"P  c #7A0D7A",
"I  c #721272",
"U  c #672B67",
"Y  c #6D256D",
"T  c #792279",
"R  c #732273",
"E  c #733773",
"W  c #7C307C",
"Q  c #6B326B",
"!  c #42424B",
"~  c #48494E",
"^  c #424348",
"/  c #474751",
"(  c #4A4A54",
")  c #4E4E58",
"_  c #52525C",
"`  c #565563",
"'  c #7A437A",
"]  c #82266A",
"[  c #8D6842",
"{  c #A47E55",
"}  c #810380",
"|  c #840B84",
" . c #8A0189",
".. c #8C0B81",
"X. c #801480",
"o. c #881688",
"O. c #8E1A8E",
"+. c #910491",
"@. c #9E009E",
"#. c #9B0B9B",
"$. c #901090",
"%. c #9A1298",
"&. c #981C98",
"*. c #882488",
"=. c #882B88",
"-. c #902B90",
";. c #9B2B9B",
":. c #8F388F",
">. c #A72496",
",. c #A602A6",
"<. c #AE04AF",
"1. c #A115A1",
"2. c #AA15AA",
"3. c #AE1FAE",
"4. c #B703B7",
"5. c #B30FB3",
"6. c #B213B2",
"7. c #BB11BA",
"8. c #AA22AA",
"9. c #A02BA0",
"0. c #B42BA3",
"q. c #A73AA7",
"w. c #B12CB1",
"e. c #BB21BB",
"r. c #B728B7",
"t. c #884588",
"y. c #875287",
"u. c #9F4F9F",
"i. c #945894",
"p. c #966296",
"a. c #A94BA9",
"s. c #BA4AB5",
"d. c #B258B2",
"f. c #B178B1",
"g. c #BC7FBC",
"h. c #A670A6",
"j. c #C413C4",
"k. c #D212D2",
"l. c #CB29CA",
"z. c #C435C2",
"x. c #DD25DD",
"c. c #DA31DB",
"v. c #D635D6",
"b. c #FE11FE",
"n. c #E426E5",
"m. c #E637E6",
"M. c #EF2EF0",
"N. c #F832F8",
"B. c #C35DC3",
"V. c #D44CD4",
"C. c #CD6ACD",
"Z. c #CA77CA",
"A. c #ED47ED",
"S. c #E953E9",
"D. c #F349F3",
"F. c #F552F5",
"G. c #FE5DFE",
"H. c #F15EF1",
"J. c #E37CE3",
"K. c #F076F0",
"L. c #FF71FF",
"P. c #FF7DFF",
"I. c #C68EC6",
"U. c #C89CC8",
"Y. c #D789D7",
"T. c #DEA4DE",
"R. c #EC9BEC",
"E. c #F088F0",
"W. c #FC87FC",
"Q. c #F690F6",
"!. c #FF98FF",
"~. c #E1B6E1",
"^. c #EDBEED",
"/. c #FEA6FE",
"(. c #FFB2FF",
"). c #E2A5E2",
"_. c #D2C0D2",
"`. c #E2C9E2",
"'. c #F2C7F2",
"]. c #FFC4FF",
"[. c #FFD3FF",
"{. c #F9DFF9",
"}. c #FFECFF",
/* pixels */
"/ ( ) ( ( ( ( ( ) ( 9 l x l ! c c c c c c ! c c x l l l c c x l z z z z l l l l l l x c ! ! ! ! ! / ",
"( ) ) ) ) _ ) ( c c 9 l c c c c ! ! ! ! ! ! ! ! ! x l l x x x l l l l l 9 9 9 l c l 9 l ! ( / ! / ( ",
"! ! ! ! ! ( ! ! c c c x c ! c ! ! ! ! ! ! ! ! ! ! ! c c x l l 9 l l l l l 9 l l x x x x l l x c ! ! ",
"c ! ! ! ! ! ! ! / / ! c c ! c ! ! ! ! ! ! ! ! ! ! ! ! ! x l l l 9 c c c c c l l x x c c c c c ! ! ! ",
"~ ( ( ( ! ( ( ( ( ) c c ! ! ! ! ! ! ! ! ! ! ! ! ! ! ! ! c x x ! c c c c ! c l 9 l l c ! ! ! ! ! ! ! ",
"( ( ! ! ( ( ( ( ) ) c ! ! ! ! ! ! ! ( ( ( ( ( ! ! ! ! c l 9 l c ! ! ! c ! ! c l 9 l c c c c ! ! ! ! ",
"( ( ! ~ ( ( ( ( ) ( ! ! ( ! ! ! ! ! ! / ( ( ( ! ( 4 4 4 4 7 l c c ! ! ! ! ! ! ! ! l 9 9 c ! ! ! ! ! ",
"! ~ ( ( ( ( ( ) ) ! ! ! ! ! ! ! ! ! ! ! ( ( ( ! l ' ' ' ' E 9 9 l c ! ! ! ! ! ! ! ! l 9 6 6 9 c ! ! ",
"( ( ( ( ( ( ( ( ) ( ! ! ! ! ! ! ( ! ! / ( ! l 4 Q _.{.'.'.f.B l 9 9 9 x ! ! ! ! ! ! ! ! ! l 9 7 c ! ",
"l ! ( ) ) ( ) ) ( ( ! ! ! ! ! ( ! ! ( ( ! l O ' U.{.[.(.(.J.w.K c c 9 6 9 x ! ! ! ! ! ! ! ! l 9 9 9 ",
"l 9 x ! ) _ _ _ ( ! ! ! ( ( ! ! ( ) ( ! x 9 n p.~.].(.!.P.G.N.1.F ! ! x 7 6 9 ( ( ( ! ! / ! l l 7 9 ",
"c l 9 l l x ! ( c ! ! ! ! ! ( _ ! c l 9 O n w.*.E J.(.].L.N.b.M.r.V c ! ! l 9 9 ! ! ! ! ! c 9 x x x ",
"! ! c c l l x c ! ! ! ( ) ( c 9 9 9 9 l , M q.O.F -.C.W.G.n.<.6.O.m ! c ! ! l 6 6 l c x l l l c c c ",
"x l l c c x l l ! ( ( ( ! 9 9 9 l x c ! , b -.9.o.m o.m.m.e.L G V v / ! ! ! ! c 7 l x x c c c c c c ",
"^ ! ! ! l l l x ! c l 9 9 c ! ! ! ! ! ! , B r.r.O.I F F I $.7.<.} v ! / ( ! ! ! l c c c ! ! ! c ! ! ",
"! ! ! c c c c l 5 9 c ! ! ! ^ ! c ! ! ! , B w.w.&.1.K 4 G 3.S.c.#.n ( ! ! c l l 9 x c c c ! ! ! ! ! ",
"! ! ! c x c c c l c ! ! ! ! ! ! ! C C C M A *.-.1.j.| m 3.S.W.S.8.N ! c x x l l 9 9 l ! ! ! ! ( ! ! ",
"( ! ! c c ! ! l x c c c ! ! 4 2 n h.U.U.Z.a.A I &.%.G B B.P.L.A.8.N c c c c 9 9 c c l l c ! ! ! ! ! ",
"! ! ! ! ! ! ! c l c ! ! ! ! ' t.i.).[.].E.q.n K 2.o.V B C.P.D.m.8.N ! ! ! l 9 l x c c l c ! ( ! ( ( ",
"! ! ! ! ! c c l x ! ! ! 4 Z I.^.^.Q.W.K.q.V v $.j.$.V B V.F.c.c.8.N ! c l 7 6 c x c c ! ! ! ! ! ! ! ",
"! ! ! ! ! ! x 7 ! ! c O < b E y.y.:.9.;.1. .n K %.L m v X.r.c.m.e.N l 9 9 7 6 x ! ! c c ! ! ! ! ! ! ",
"( ! ! ! ! c 9 6 9 ! ! < 4 B m n n m H } j.e.m V K G m v R ;.e.x.6.N 6 6 9 9 6 9 c c ! ! ! ! ! ! ! ! ",
"( ( ( ! l 9 7 6 9 l ! < C *.O.X.K n G j.m.z.B V P G n M I.Z.P @.+.N c ! n n n n 4 l c ! ! ! ! ( ! ! ",
"! c c l l l l l 4 4 4 v m J 3.3.P n I m.D.r.B L 1.K v M Y.Z.K ,.<.H 2 C h.f.h.a.=.4 9 c ! ! ! ) ! ! ",
"l l x x x x x x U U Y W Y J 2.2.P n T H.D.8.n } 6.K B E Y.C.K 4.4.G n U I.'.]./.B.K 9 6 9 c c l 9 9 ",
"9 l x x x x 4 ' _.`.~.`.~.Z.R H K n W E.H.8.4 V | m y.T./.B.K @.+.m o.8.Y d.!.].Q.v.5.@.9 9 9 9 l l ",
"l l x c c c =.g.}.{.].[.R.s.O.K H V T u.z.%.2 n H v i.(.!.V.1.,. .v *.8.H T a.f.d.r.+.K 9 9 9 9 l l ",
"x x x x c n d.R.^.R.K.K.q.} j.#.n X.X.n  .+.2 4 V 4 t.E.L.D.v.6.} m T ;.X.V v G L L K V v l l l l l ",
"c x l x c 2 J -.=.*.*.*.$.,.4.L 4 1.1.n @.<.4 1 v 4 Y s.H.F.v.| V T 3.e.o.m n #.j.j.6.} n l l l l l ",
"x x l x c 2 G +.+.+. . .2.l.4.K 2 | | n @.<.4 2 n 4 A ;.V.D.c.F b -.r.2.K Y :.v.M.n.2.K C l l l x x ",
"x c c c x 2 &.m.m.x.k.k.m.m.7.K < v n 4 }  .2 v V 4 A &.z.m.x.F 4 o.O.K n u.Q.G.A.l.K 4 9 l c l x x ",
"c c ! c x 2 d.L.G.m.n.M.M.m.j.K < 2 3 ; p a v n n 1 V O.&.6.7.V 2 A K V v q.L.F.c.6.H 4 9 l c l x x ",
"c c c c c 2 u.K.F.z.>.0.0.>...V 1 1 ; e y t p 3 1 1 F 1.o.| +.n < v m s 3 ] s.0.%. .D l l l l l c c ",
"c c c c ! 2 I w.l.] 0 0 0 0 ; < 2 = w h [ k w $ : s | 7.$.K H 4 < 4 ; & $ 0 0 0 p n 9 l x c c c c c ",
"! ! ! ! ! , m F A d f h k j q ; 4 = * f f i f h h 0 a S a p p < , ; t g j i q q $ - 9 x x x c c c c ",
"! ! ! ! ! , 2 1 o r j [ { { y ; 1 = % e e y g k k y q & % & w ; ; w i j [ h e q % . 7 l c c c l c c ",
"! ! ! ! ! ! . o + % w u j j e @ + @ % & h k e q t g f e @ w g w w g y w u e @ + o 6 6 9 x c ! c c c ",
"! ! ! ! ! ! !   + + + * e y e q % @ + @ h k q $ q u t * @ w f q * u w % % + X   l 9 9 9 l x c ! ! ! ",
"! ! ! ! ! ! ! ! o     + @ $ w e w @ + + u f & & q % @ @ & w e % @ @ @ #     . ! ! c x l l l c ! ! ! ",
"! ! ! ! ! ! ! ! ! ( !   o o + @ * w * + % * % @ + + % e g u @ * * + o o ! ! ! ! ! c c c l l c ! ! ! ",
"! ! ! ! ! ! ( ( ! ! ! O       o + % @ + o + + + @ % * w u r + @ %     ! ! ! ! ! ! c ! c ! c 9 ! ! ! ",
"! ! ! ! ( ( ( ( ( ( ( ( ! c l l   X           # % w % + @ #   X o ! ! ! ! ! ! ! ! c ! c ! c 6 l ! ! ",
"( ( ( ) ) ) ) ( ( ! c 9 l l l l l l c ! ! ! !   + + + o o o ! ! ! ! ! ! ! ! ! ! ! ! ! c ! c 6 7 x / ",
"c c c c ! c l 9 9 6 5 > 7 l x c c c ! ! ! ! ! !           ! ! ! ~ ~ ~ ! ! ^ ! ! ! ! ! c ! c 7 6 6 x ",
"l l l l l l 9 7 6 6 5 5 l x c l l ! ! ( ! ! ! ( ! ~ ( ( ! ( ( ( ! ! ! ! ! ! ! ! ! c ! ! ! l 6 6 8 l ",
"! ! ! ! ! ! c c c c c 9 l x c x l c ! ! ! ! / / ( ( ( ( ( ( ( ) ! ~ ( ( ( ! ! ! ! ! ! ! l 9 9 l l ! ",
"! ! ! ! ! ! ! ! ! c c l 7 9 c c c l 9 l x c ! c / / ( ) ) ( ( ( ) ) ) ( ( ( / / ! ! c x l 9 c ! ! ! ",
"! ! ! ! ! ! / / ! ! ! c 6 7 9 9 9 l 9 l l l z z z c / ) _ ) ( ( ) ( ! x l l x c c c l l c ! ! l ! c ",
"! / / / / ( ( / ! ! ! l 9 l x c l l l 9 9 9 l z z z z x ! ` / ! x x l l l l 9 9 l c x c c c c c ! ! ",
"! / / / / ( ( / ! ! ! x 9 l c c c c c x x x x x x z z z x ) x z x x l l l l 9 9 l c c c ! c ! ! ! ! "
};
