/* XPM */
static char *result[] = {
/* columns rows colors chars-per-pixel */
"50 50 227 2 ",
"   c #070201",
".  c #070202",
"X  c #070207",
"o  c #040707",
"O  c #080101",
"+  c #080202",
"@  c #0D0000",
"#  c #0D0401",
"$  c #0D0402",
"%  c #0A0306",
"&  c #080507",
"*  c #0B0506",
"=  c #020608",
"-  c #03070A",
";  c #02080A",
":  c #04090C",
">  c #150403",
",  c #120505",
"<  c #130706",
"1  c #170604",
"2  c #190805",
"3  c #1C0906",
"4  c #1A0F0B",
"5  c #1F0E0B",
"6  c #10100E",
"7  c #1C110A",
"8  c #1D100D",
"9  c #080B18",
"0  c #0B0E1A",
"q  c #120D1C",
"w  c #051012",
"e  c #061618",
"r  c #141A16",
"t  c #230B07",
"y  c #280F0A",
"u  c #201008",
"i  c #21110A",
"p  c #2F130C",
"a  c #34170F",
"s  c #281B12",
"d  c #3E1E13",
"f  c #122019",
"g  c #18231E",
"h  c #212019",
"j  c #262E1D",
"k  c #30221D",
"l  c #38281C",
"z  c #30331D",
"x  c #0B0B23",
"c  c #0D0C21",
"v  c #0E0E21",
"b  c #0D0D22",
"n  c #0E0E26",
"m  c #0F0F26",
"M  c #0C1020",
"N  c #0C1120",
"B  c #101224",
"V  c #101328",
"C  c #14132D",
"Z  c #15132D",
"A  c #020634",
"S  c #1A1833",
"D  c #1C1C37",
"F  c #1E1B3A",
"G  c #0B2021",
"H  c #0F252A",
"J  c #08282A",
"K  c #12202B",
"L  c #132B28",
"P  c #1F223B",
"I  c #103131",
"U  c #1C3733",
"Y  c #133B39",
"T  c #153D38",
"R  c #283928",
"E  c #323E2C",
"W  c #23213C",
"Q  c #203F35",
"!  c #463122",
"~  c #473B31",
"^  c #2B4A3A",
"/  c #364A31",
"(  c #30513F",
")  c #47532F",
"_  c #584737",
"`  c #405636",
"'  c #515A31",
"]  c #5B5F32",
"[  c #616634",
"{  c #686F3C",
"}  c #61713E",
"|  c #272044",
" . c #292542",
".. c #222C40",
"X. c #2D2A47",
"o. c #2D244D",
"O. c #2D274C",
"+. c #30264B",
"@. c #332C4E",
"#. c #2A3349",
"$. c #2B364D",
"%. c #332A53",
"&. c #362E52",
"*. c #352857",
"=. c #373757",
"-. c #3F3759",
";. c #3D2D61",
":. c #443E5E",
">. c #463265",
",. c #4B3770",
"<. c #573E7A",
"1. c #1A4440",
"2. c #194A47",
"3. c #1D5651",
"4. c #224D45",
"5. c #2C5A4C",
"6. c #395D45",
"7. c #364759",
"8. c #27685F",
"9. c #325F60",
"0. c #256E67",
"q. c #2D7469",
"w. c #3F7967",
"e. c #2B7F75",
"r. c #3F7E7C",
"t. c #494C41",
"y. c #635342",
"u. c #466343",
"i. c #597547",
"p. c #406E50",
"a. c #4A7858",
"s. c #657D46",
"d. c #6D6051",
"f. c #6D6655",
"g. c #746859",
"h. c #7B6E5C",
"j. c #474161",
"k. c #4B4465",
"l. c #424963",
"z. c #51496B",
"x. c #53496F",
"c. c #4D516A",
"v. c #64517F",
"b. c #586379",
"n. c #807463",
"m. c #847C68",
"M. c #897C6B",
"N. c #8A7E6E",
"B. c #3C8C77",
"V. c #5A8A5E",
"C. c #75894B",
"Z. c #518560",
"A. c #489373",
"S. c #669463",
"D. c #669E71",
"F. c #7AA76D",
"G. c #78B27D",
"H. c #979154",
"J. c #85A059",
"K. c #9CAD59",
"L. c #948876",
"P. c #9D927E",
"I. c #85AA65",
"U. c #98B566",
"Y. c #8BB872",
"T. c #A5BE66",
"R. c #ADBB69",
"E. c #B3C36A",
"W. c #A0C77B",
"Q. c #B0CE72",
"!. c #BADD7D",
"~. c #C0C36C",
"^. c #C4D67C",
"/. c #D1D97A",
"(. c #D3E579",
"). c #5D4C82",
"_. c #604486",
"`. c #664C8B",
"'. c #6F5C8B",
"]. c #735099",
"[. c #656181",
"{. c #676C88",
"}. c #687A88",
"|. c #736A91",
" X c #747795",
".X c #7F779C",
"XX c #7A53A1",
"oX c #8158A8",
"OX c #8563A4",
"+X c #897BA4",
"@X c #857EAF",
"#X c #9069B2",
"$X c #318E82",
"%X c #36978A",
"&X c #488A88",
"*X c #708A99",
"=X c #54A588",
"-X c #A29986",
";X c #A89D89",
":X c #AFA591",
">X c #BAB099",
",X c #8F81AB",
"<X c #9383AC",
"1X c #888EB3",
"2X c #A085BE",
"3X c #94A4B6",
"4X c #C3BCA5",
"5X c #D3CAB0",
"6X c #D9D2BA",
"7X c #A297C1",
"8X c #98B2C2",
"9X c #AEA0CC",
"0X c #B0B3D2",
"qX c #B9B8D7",
"wX c #B6D1E0",
"eX c #E1DAC0",
"rX c #E8E3C9",
"tX c #EFE9CB",
"yX c #F4EED1",
"uX c #F6F0D2",
"iX c #FDF7D8",
"pX c #C8C7E1",
"aX c #C0D2E6",
"sX c #DAE5F2",
"dX c #FDF9E1",
"fX c #FFFEF7",
"gX c None",
/* pixels */
"gXgXgXgXgXgXgXgXgXgXgXgXgXgXgXgXgXgXgXgXgXgXgXgXgXgXgXgXgXgXgXgXgXgXgXgXgXgXgXgXgXgXgXgXgXgXgXgXgXgX",
"gXgXgXgXgXgXgXgXgXgXgXgXgXgXgXgXgXgXgXgXgXgXgXgXgXgXgXgXgXgXgXgXgXgXgXgXgXgXgXgXgXgXgXgXgXgXgXgXgXgX",
"gXgXgXgXgXgXgXgXgXgXgXgXgXgXgXgXgXgXgXgXgXgXgXgXgXgXgXgXgXgXgXgXgXgXgXgXgXgXgXgXgXgX# * gXgXgXgXgXgX",
"gXgXgXgXgXgXgXgXgXgXgXO , & # gXgXgXgXgXgX. gXgXgXgXgXgXgXgXgXgXgXgXgXgX% , % gXgX& @ * gXgXgXgXgXgX",
"gXgXgXgXgXgXgXgXgXgXgX. + > y 5 gXgXgXgX- , gXgXgXgXgXgXgXgXgXgXgXgXgXgXo > 2 gXu y > * gXgXgXgXgXgX",
"gXgXgXgXgXgXgXgXgXgXgXgXgX2 ! d < gXgX+ > & gXgXgXgXgXgXgXgXgXgXgXgXgXgX, t p 1 a ! y % gXgXgXgXgXgX",
"gXgXgXgXgXgXgXgXgXgXgXgXgXgXi p a 5 # y 3 # gXgXgXgXgXgXgXgXgXgXgXgXgXgXgX7 t p a 2 $ gXgXgXgXgXgXgX",
"gXgXgXgXgXgXgXgXgXgXgXgXgXgX$ i a y t p , . gXgXgXgXgXgXgXgXgXgXgXgXgXgXgXgX> d a 2 gXgXgXgXgXgXgXgX",
"gXgXgXgXgXgXgXgXgXgXgXgXgXgXgXgX1 a a 1 gXgX: = o o = : gXgXgXgXgXgXgXgXgX$ > d a + gXgXgXgXgXgXgXgX",
"gXgXgXgXgXgXgXgXgXgXgXgXgXgXgXgXgXi y y * V T u.C.C.u.T M gXgXgXgXgXgXgXgX, y y 5 gXgXgXgXgXgXgXgXgX",
"gXgXgXgXgXgXgXgXgXgXgXgXgXgXgXgXgX$ < p t r 4.S.W.W.S.4.e X gXgXgXgXgXgX< t p > . gXgXgXgXgXgXgXgXgX",
"gXgXgXgXgXgXgXgXgXgXgXgXgXgXgXgXgXgXgX1 y y 6 ^ w.w.( h 4 2 < <   gXgXgX< 3 y > . gXgXgXgXgXgXgXgXgX",
"gXgXgXgXgXgXgXgXgXgXgXgXgXgXgXgXgXgXO @ t y > r I U t.h.n.n.m.m.f.$ gX  2 > 1 % gXgXgXgXgXgXgXgXgXgX",
"gXgXgXgXgXgXgXgXgXgXgXgXgXgXgXgXgX& w 6 4 t 3 > > 3 g.6XeXrXiXdX4X~ 4 > > 1 X gXgXgXgXgXgXgXgXgXgXgX",
"gXgXgXgXgXgXgXgXgXgXgXgXgXgXgXgX: H 1.4.g > t 3 > 3 g.eXyXdXfXfXdX4Xy.> > % gXgXgXgXgXgXgXgXgXgXgXgX",
"gXgXgXgXgXgXgXgXgXgXgXgXgXgXgX* G Y 3.8.2.L 4 3 s ~ M.4XtXdXfXfXfXiXh.2 O gXgXgXgXgXgXgXgXgXgXgXgXgX",
"gXgXgXgXgXgXgXgXgXgXgXgXgXgX: G 1.2.3.q.B.q.r > l n.P.;XeXiXiXfXfXyXg., gXgXgXgXgXgXgXgXgXgXgXgXgXgX",
"gXgXgXgXgXgXgXgXgXgXgXgXgX& H Y 2.3.w.Y.W.F.5.g k d.L.;X6XyXiXdXdXrXd.# gXgXgXgXgXgXgXgXgXgXgXgXgXgX",
"gXgXgXgXgXgXgXgXgXgXgXgX* G ( 6.6.a.F./.(.Q.S.E s y.h.n.L.4XtXyX6X-X~ # gXgXgXgXgXgXgXgXgXgXgXgXgXgX",
"gXgXgXgXgXgXgXgXgXgXgX: G 4.i.s.i.J.E./.^.Q.T.] k y.y.! l g.6XrX:X! 4 # gXgXgXgXgXgXgXgXgXgXgXgXgXgX",
"gXgXgXgXgXgXgXgXgXgXgX+ R i.u.6.p.Z.D.G.D.F.Q.K.{ ! ~ _ l d.5XyX>X! 3 # gXgXgXgXgXgXgXgXgXgXgXgXgXgX",
"gXgXgXgXgXgXgXgXgXgXgX0 / i.Q 1.8.0.e.%Xq.w.Y.Q.K.' ~ y._ M.6XiX5Xy.s # gXgXgXgXgXgXgXgXgXgXgXgXgXgX",
"gXgXgXgXgXgXgXgXgX$ 9 Y 4.1.G I 8.e.%X%X8.3.B.G.T.K.[ l g.:X6XuXeXL.~ # gXgXgXgXgXgXgXgXgXgXgXgXgXgX",
"gXgXgXgXgXgXgXgXgX  w Y 2.Y e Y e.$X%X$X2.Y 0.A.D.S.p.Q t.n.>XeX6X;X~ # gXgXgXgXgXgXgXgXgXgXgXgXgXgX",
"gXgXgXgXgXgXgXgXgX. w Y 4.1.G 1.$X=X=XA.Q G 3.r.&Xr.w.9.h ~ L.4X4XN.~ : gXgXgXgXgXgXgXgXgXgXgXgXgXgX",
"gXgXgXgXgXgXgXgXgX. w Y 6.` g Y $XW.^.U./ e 1.}.7X7X@X`.k l h.P.M.! Q T - gXgXgXgXgXgXgXgXgXgXgXgXgX",
"gXgXgXgXgXgXgXgXgX: L 6.u./ r ^ G.^.E.{ E P =.|.2X2X#XXX>.~ ~ h.d.s ` Z.4.J gXgXgXgXgXgXgXgXgXgXgXgX",
"gXgXgXgXgXgXgXgXo G ^ s.u.I w ' Q.!.C.r P ;.,.`.XXoXoX]._.%.s _ _ s [ I.=X5.i gXgXgXgXgXgXgXgXgXgXgX",
"gXgXgXgXgXgXgXgX= g ` } ` G w ' T.G.8.w S %.*.,.`.XXXX_.=.P g k s 6 r ` I.R.H.z gXgXgXgXgXgXgXgXgXgX",
"gXgXgXgXgXgXgXgXo j ` ` R G w E S.B.3.w N S S | *.,.>.*.P K K r 6 ; # 7 } R.~.j   gXgXgXgXgXgXgXgXgX",
"gXgXgXgXgXgXgXgXo j / L G e = f 4.8.2.w = 9 9 9 9 9 9 m P S G G e ; gXgX- } U.R % gXgXgXgXgXgXgXgXgX",
"gXgXgXgXgXgXgXgX= g R L e o gX. G 3.1.; . gXgXgXgXgXgXgXn N G L G ; gXgX- ^ Z.q.#.% gXgXgXgXgXgXgXgX",
"gXgXgXgXgXgXgXgXO 0 g G e - gXgX; 1.5./ B gXgXgXgXgXgXgX& N P I G w gXgX+ I 0.%X3.= gXgXgXgXgXgXgXgX",
"gXgXgXgXgXgXgXgXgX% ; e N b gXgX= I a.U.) * gXgXgXgXgXgXX Z %...K v gXgX- I 0.$X3.o gXgXgXgXgXgXgXgX",
"gXgXgXgXgXgXgXgXgX  ; e K D V gXgX- ` E.V.2.V gXgXgXgXgXgXV D %.O.v gXgXgXM Y q.3.o gXgXgXgXgXgXgXgX",
"gXgXgXgXgXgXgXgXgXgX- e S | Z A gX$ z C.A.q.7.X.gXgXgXgXgXgXm *.;.v gXgXgXgXG r.9.o gXgXgXgXgXgXgXgX",
"gXgXgXgXgXgXgXgXgXgXgX+ S %.S x gXgXgXf 1.r.8X[.M gXgXgXgXgXm O.%.m gXgXgXgX..3X}.o gXgXgXgXgXgXgXgX",
"gXgXgXgXgXgXgXgXgXgXgX- S ;.>.+.gXgXgX= I &XwX{.b gXgXgXgXM | ,.<.>.+.gXgXgXP 1X{.0 gXgXgXgXgXgXgXgX",
"gXgXgXgXgXgXgXgXgXgXgXb | ,.].<.F gXgX= 1.*XwX{.n gXgXgXC | ,.].oXXX>.C gXB =.@X|. .gXgXgXgXgXgXgXgX",
"gXgXgXgXgXgXgXgXM : n o.,.].oXXX_.#.- e b.0XsX}.n gXgXC &.<.].#X#XoX].<.C z.7XpXqX+X#.B gXgXgXgXgXgX",
"gXgXgXgXgXgXgXV N N P ,.XXOX<.<.).$...c.<XpXsX3Xz.W V O.*.;.<.OXOX<.).).>.x..XpXsXqX|.-.gXgXgXgXgXgX",
"gXgXgXgXgXgXV 0 0 H =.].#XOX .D 7.7.{.7X9XqXsXpX,X&.o.>.F 0 F v.'.F ..l.`.>. .+XqXaX0X|. .gXgXgXgXgX",
"gXgXgXgXgX7 gXgXgXM O.OX`.&.gXB ..{.9X9X.X*XaX3X{..Xx.F gXgXgX+.+.gXV P O.@.gX-.|.9X.X{..X-.B gXgXgX",
"gXgXgXgXgXu gXgXgXgX+.v.-.x gXX.k.'..X|.c.b.0X*Xl.|.[.j.W gXgXM c gX8 q c gXgXn x.7Xc.l.|.=.C gXgXgX",
"gXgXgXgXgXgXgXgXgXgXgXn B gXc x.<X:.m D $.b.7X X$.D v.,X&.B gXu 7 gX8 5 gXgXgXc x.2X:.m D Z c gXgXgX",
"gXgXgXgXgXgXgXgXgXgXgX< gXgXC | k.X.gXgXC l.7X[.F gX@.k.X.gXgXgXgXgXgXgXgXgXgXgX@.j.X.gXgX, 5 gXgXgX",
"gXgXgXgXgXgXgXgXgXgXgXu gXgXC v M gXgXgXgX-..Xz.x gXgXM gXgXgXgXgXgXgXgXgXgXgXgXgX0 gXgXgXgX8 gXgXgX",
"gXgXgXgXgXgXgXgXgXgXgXgXgXgX5 7 gXgXgXgXgXgX .X.gXgXgXgX7 8 gXgXgXgXgXgXgXgXgXgXgXi gXgXgXgXgXgXgXgX",
"gXgXgXgXgXgXgXgXgXgXgXgXgXgXgXgXgXgXgXgXgXgX< gXgXgXgXgXgXgXgXgXgXgXgXgXgXgXgXgXgXgXgXgXgXgXgXgXgXgX",
"gXgXgXgXgXgXgXgXgXgXgXgXgXgXgXgXgXgXgXgXgXgXi gXgXgXgXgXgXgXgXgXgXgXgXgXgXgXgXgXgXgXgXgXgXgXgXgXgXgX"
};
