/* XPM */
static char *result[] = {
/* columns rows colors chars-per-pixel */
"50 50 177 2 ",
"   c #010000",
".  c #010300",
"X  c #090705",
"o  c #0C0902",
"O  c #090E00",
"+  c #1E0000",
"@  c #170800",
"#  c #100C00",
"$  c #110E07",
"%  c #130A0A",
"&  c #1E0A09",
"*  c #1E0A0A",
"=  c #151400",
"-  c #161402",
";  c #131004",
":  c #181403",
">  c #290000",
",  c #2A0000",
"<  c #2B0301",
"1  c #2F0003",
"2  c #300000",
"3  c #320001",
"4  c #320002",
"5  c #330002",
"6  c #370001",
"7  c #340002",
"8  c #370002",
"9  c #300607",
"0  c #3A0001",
"q  c #3B0001",
"w  c #380002",
"e  c #390002",
"r  c #3C0003",
"t  c #330B0D",
"y  c #3B0B0C",
"u  c #2F1507",
"i  c #351F0B",
"p  c #381E09",
"a  c #380E10",
"s  c #3E1E13",
"d  c #26210E",
"f  c #2F2208",
"g  c #2C2609",
"h  c #2C260B",
"j  c #3C230D",
"k  c #3C250E",
"l  c #3F3713",
"z  c #2C2723",
"x  c #292725",
"c  c #2B2A27",
"v  c #2B2A28",
"b  c #393836",
"n  c #3C3C39",
"m  c #400000",
"M  c #400002",
"N  c #450003",
"B  c #460003",
"V  c #420006",
"C  c #490000",
"Z  c #480001",
"A  c #480003",
"S  c #490003",
"D  c #4E0000",
"F  c #4F0000",
"G  c #4C0004",
"H  c #4F0004",
"J  c #42040A",
"K  c #4E0609",
"L  c #550000",
"P  c #570000",
"I  c #540007",
"U  c #590000",
"Y  c #580004",
"T  c #401008",
"R  c #401808",
"E  c #491C1E",
"W  c #5E171B",
"Q  c #600003",
"!  c #670003",
"~  c #620006",
"^  c #630006",
"/  c #680005",
"(  c #6F0006",
")  c #600208",
"_  c #63050E",
"`  c #64060D",
"'  c #680008",
"]  c #6E0108",
"[  c #700006",
"{  c #720007",
"}  c #740005",
"|  c #780001",
" . c #780003",
".. c #730009",
"X. c #71000A",
"o. c #740008",
"O. c #77040D",
"+. c #7B0009",
"@. c #7A000A",
"#. c #6F130E",
"$. c #690011",
"%. c #6A0B12",
"&. c #7E0111",
"*. c #7B0A16",
"=. c #4F1D20",
"-. c #7B1B28",
";. c #7C182B",
":. c #4D3A36",
">. c #403F3C",
",. c #782E30",
"<. c #51461A",
"1. c #43423D",
"2. c #43413F",
"3. c #7E4644",
"4. c #775C5C",
"5. c #736B65",
"6. c #8A0000",
"7. c #8A0007",
"8. c #830108",
"9. c #84000D",
"0. c #85000F",
"q. c #88000C",
"w. c #88000D",
"e. c #970002",
"r. c #9E0003",
"t. c #870116",
"y. c #8D0012",
"u. c #8D0C1B",
"i. c #9A0014",
"p. c #910018",
"a. c #AE0007",
"s. c #A9031C",
"d. c #A1081F",
"f. c #860327",
"g. c #960022",
"h. c #90032A",
"j. c #990C2F",
"k. c #891D2C",
"l. c #A10023",
"z. c #AB0B26",
"x. c #B10026",
"c. c #B10128",
"v. c #B2022F",
"b. c #AF043A",
"n. c #B50436",
"m. c #B50039",
"M. c #D20007",
"N. c #DA0036",
"B. c #EE0434",
"V. c #E80E3F",
"C. c #B32149",
"Z. c #B52054",
"A. c #C40042",
"S. c #CC0746",
"D. c #CF0B41",
"F. c #CC0E4E",
"G. c #D80648",
"H. c #DA2463",
"J. c #EB2160",
"K. c #A95F65",
"L. c #8D6563",
"P. c #AD6B6B",
"I. c #B76571",
"U. c #B27C8C",
"Y. c #C97089",
"T. c #FF6888",
"R. c #EA76A1",
"E. c #FF72A8",
"W. c #B4A0A0",
"Q. c #D98490",
"!. c #C39EA1",
"~. c #CA99A2",
"^. c #C5A0A3",
"/. c #E0A0AB",
"(. c #EBA1BA",
"). c #F7D0DF",
"_. c None",
/* pixels */
"_._._._._._._._._._._._._._._._._._._._._._._._._._._._._._._._._._._._._._._._._._._._._._._._._._.",
"_._._._._._._._._._._._._._._._._._._._._._._._._._._._._._._._._._._._._._._._._._._._._._._._._._.",
"_._._._._._._._._._._._._._._._._._._._._._._._._._._._._._._._._._._._._._._._._._._._._._._._._._.",
"_._._._._._._._._._._._._._._._._._._._._._._._._._._._._._._._._._._._._._._._._._._._._._._._._._.",
"_._._._._._._._._._._._._._._._._._._._._._._._._._._._._._._._._._._._._._._._._._._._._._._._._._.",
"_._._._._._._._._._._._._._._._._._._._._._._._._._._._._._._._._._._._._._._._._._._._._._._._._._.",
"_._._._._._._._._._._._._._._._._._._._._._._._._._._._._._._._._._._._._._._._._._._._._._._._._._.",
"_._._._._._._._._._._._._._._._._._._._._._._._._._._._._._._._._._._._._._._._._._._._._._._._._._.",
"_._._._._._._._._._._._._._._._._._._._._._._._._._._._._._._._._._._._._._._._._._._._._._._._._._.",
"_._._._._._._._._._._._._._._._._._._._._._._._._._._._._._._._._._._._._._._._._._._._._._._._._._.",
"_._._._._._._._._._._._._._._._._._._._._._._._._._._._._._._._._._._._._._._._._._._._._._._._._._.",
"_._._._._._._._._._._._._._._._._._._._._._._._._._._._._._._._._._._._._._._._._._._._._._._._._._.",
"_._._._._._._._._._._._._._._._._._._._._._._._._._._._._._._._._._._._._._._._._._._._._._._._._._.",
"_._._._._._._._._._._._._._._._._._._._._._._._._._._._._._._._._._._._._._._._._._._._._._._._._._.",
"_._._._._._._._._._._._._._._._._._._._._._._._._._._._._._._._._._._._._._._._._._._._._._._._._._.",
"_._._._._._._._._._._._._._._._._._._._._._._._._._._._._._._._._._._._._._._._._._._._._._._._._._.",
"_._._._._._._._._._._._._._._._._._._._._._._._._._._._._._._._._._._._._._._._._._._._._._._._._._.",
"_._._._._._._._._._._._._._._._._._._._._._._._._._._._._._._._._._._._._._._._._._._._._._._._._._.",
"_._._._._._._._._._._._._._._._._._._._._._._._._._._._._._._._._._._._._._._._._._._._._._._._._._.",
"_._._._._._._._._._._._._._._._._._._._._._._._._._._._._._._._._._._._._._._._._._._._._._._._._._.",
"_._._._._._._._._._._._._._._._._._._._._._._._._._._._._._._._._._._._._._._._._._._._._._._._._._.",
"_._._._._._._._._._._._._._._._._._._._._._._._._._._._._._._._._._._._._._._._._._._._._._._._._._.",
"_._._._._._._._._._._._._._._._._._._._._._._._._._._._._._._._._._._._._._._._._._._._._._._._._._.",
"_._._._._._._._._._._._._._._._._._._._._._._._._._._._._._._._._._._._._._._._._._._._._._._._._._.",
"_._._._._._._._._._._._._._._._._._._._._._._._._._._._._._._._._._._._._._._._._._._._._._._._._._.",
"_._._._._._._._._._._._._._._._._._._._._._._._._._._._._._._._._._._._._._._._._._._._._._._._._._.",
"_._._._._._._._._._._._._._._._._._._._._._._._._._._._._._._._._._._._._._._._._._._._._._._._._._.",
"_._._._._._._._._._._._._._._._._._._._._._._._._._._._._._._._._._._._._._._._._._._._._._._._._._.",
"_._._._._._._._._._._._._._._._._._._._._._._._._._._._._._._._._._._._._._._._._._._._._._._._._._.",
"_._._._._._._._._._._._._._._._._._._._._._._.).(./.^.W.!._._._._._._._._._._._._._._._._._._._._._.",
"_._._._._._._._._._._._._._._._._._._._._._._.R.F.z.%.y ` K._._._._._._._._._._._._._._._._._._._._.",
"_._._._._._._._._._._._._._._._._._._._._._.T.J.A.y.F > C W 4._._._._._._._._._._._._._._._._._._._.",
"_._._._._._._._._._._._._._._._._._._._._.Q.V.N.n.&.Z 3 ! L 9 U._._._._._._._._._._._._._._._._._._.",
"_._._._._._._._._._._._._._._._._._._._.P.u.v.x.i.@.A 0 r.6.J Z.E._._._._._._._._._._._._._._._._._.",
"_._._._._._._._._._._._._._._._._._._.Y.C.l.p.0.+.o.G 2 U 8.s.G.H.I._._._._._._._._._._._._._._._._.",
"_._._._._._._._._._._._._._._._._._.~.j.m.b.] | 7.{ S , 4 t.B.D.h._ _._._._._._._._._._._._._._._._.",
"_._._._._._._._._._._._._._._._._._.L.*.g.f.V e.M.} e 5 X.c.S.-.u & _._._._._._._._._._._._._._._._.",
"_._._._._._._._._._._._._._._._._._.:.3.k.$.1  .a./ 6 8 w.d.;.s O . _._._._._._._._._._._._._._._._.",
"_._._._._._._._._._._._._._._._._._.n 5.,.Q 0 G ^ Y q 7 O.#.f - $ v _._._._._._._._._._._._._._._._.",
"_._._._._._._._._._._._._._._._._._._.z K [ ~ B e H M < R p :   b _._._._._._._._._._._._._._._._._.",
"_._._._._._._._._._._._._._._._._._._._.E D ( ' I N T j g = o 2._._._._._._._._._._._._._._._._._._.",
"_._._._._._._._._._._._._._._._._._._._._.t ) q.9.r k <.h ; x _._._._._._._._._._._._._._._._._._._.",
"_._._._._._._._._._._._._._._._._._._._._._.a P ..w i l # >._._._._._._._._._._._._._._._._._._._._.",
"_._._._._._._._._._._._._._._._._._._._._._._.=.m + @ d 1._._._._._._._._._._._._._._._._._._._._._.",
"_._._._._._._._._._._._._._._._._._._._._._._._.* % X c _._._._._._._._._._._._._._._._._._._._._._.",
"_._._._._._._._._._._._._._._._._._._._._._._._._._._._._._._._._._._._._._._._._._._._._._._._._._.",
"_._._._._._._._._._._._._._._._._._._._._._._._._._._._._._._._._._._._._._._._._._._._._._._._._._.",
"_._._._._._._._._._._._._._._._._._._._._._._._._._._._._._._._._._._._._._._._._._._._._._._._._._.",
"_._._._._._._._._._._._._._._._._._._._._._._._._._._._._._._._._._._._._._._._._._._._._._._._._._.",
"_._._._._._._._._._._._._._._._._._._._._._._._._._._._._._._._._._._._._._._._._._._._._._._._._._."
};
