/* XPM */
static char *result[] = {
/* columns rows colors chars-per-pixel */
"50 50 227 2 ",
"   c black",
".  c #050000",
"X  c #050300",
"o  c #060600",
"O  c #090100",
"+  c #080300",
"@  c #0E0000",
"#  c #0F0000",
"$  c #080601",
"%  c #090601",
"&  c #0E0501",
"*  c #190102",
"=  c #190500",
"-  c #1C0E02",
";  c #191504",
":  c #230100",
">  c #250000",
",  c #2B0101",
"<  c #2B0002",
"1  c #200B00",
"2  c #270900",
"3  c #2B0E02",
"4  c #320002",
"5  c #330002",
"6  c #360002",
"7  c #390002",
"8  c #3A0002",
"9  c #360A0F",
"0  c #261302",
"q  c #291105",
"w  c #2F1205",
"e  c #2C1607",
"r  c #201D06",
"t  c #3D1807",
"y  c #351A09",
"u  c #2B2208",
"i  c #3C220F",
"p  c #332D12",
"a  c #410003",
"s  c #460002",
"d  c #4B0005",
"f  c #4E0005",
"g  c #420D08",
"h  c #540000",
"j  c #540101",
"k  c #530004",
"l  c #560004",
"z  c #570107",
"x  c #530604",
"c  c #5E0204",
"v  c #5F0007",
"b  c #53050C",
"n  c #5F0A0F",
"m  c #49150C",
"M  c #54100B",
"N  c #470612",
"B  c #491E1B",
"V  c #600103",
"C  c #650005",
"Z  c #6F0109",
"A  c #750005",
"S  c #7F0007",
"D  c #7A0109",
"F  c #7F040F",
"G  c #70080F",
"H  c #66051F",
"J  c #6F0319",
"K  c #6A0E18",
"L  c #7E0F12",
"P  c #691F1B",
"I  c #7C1B12",
"U  c #462814",
"Y  c #552213",
"T  c #433815",
"R  c #45351F",
"E  c #4B371F",
"W  c #5B3717",
"Q  c #551A21",
"!  c #720C2A",
"~  c #791A25",
"^  c #7F1529",
"/  c #7E1E2D",
"(  c #6D1D31",
")  c #4C2A23",
"_  c #7D262F",
"`  c #7A3822",
"'  c #7D323E",
"]  c #52441A",
"[  c #5F4E1E",
"{  c #5A472C",
"}  c #56532A",
"|  c #625D2F",
" . c #755024",
".. c #7B7339",
"X. c #716041",
"o. c #8A0000",
"O. c #84000B",
"+. c #8B0008",
"@. c #8B000F",
"#. c #9B0002",
"$. c #91010E",
"%. c #870310",
"&. c #900118",
"*. c #97001B",
"=. c #9C0A19",
"-. c #AE0007",
";. c #AB031F",
":. c #B5041A",
">. c #8E0725",
",. c #880A20",
"<. c #890C25",
"1. c #8D0E29",
"2. c #9B0826",
"3. c #8A192A",
"4. c #96172E",
"5. c #900630",
"6. c #A10426",
"7. c #B20329",
"8. c #A80630",
"9. c #AE073A",
"0. c #B40334",
"q. c #BB043F",
"w. c #A21237",
"e. c #B91037",
"r. c #89292B",
"t. c #9E3831",
"y. c #A02035",
"u. c #A32A3E",
"i. c #A33E37",
"p. c #D20007",
"a. c #D5001C",
"s. c #C4082F",
"d. c #DE052A",
"f. c #C80D3D",
"g. c #EB0B38",
"h. c #FD0D39",
"j. c #80412E",
"k. c #8A653D",
"l. c #B01641",
"z. c #B91A4D",
"x. c #943E57",
"c. c #BD2F54",
"v. c #A53457",
"b. c #CA0446",
"n. c #CD064C",
"m. c #C40A49",
"M. c #DD0441",
"N. c #D10B41",
"B. c #C21D44",
"V. c #D8134D",
"C. c #D50752",
"Z. c #DA0B57",
"A. c #CB1750",
"S. c #D71758",
"D. c #E3034A",
"F. c #F00C47",
"G. c #EB124B",
"H. c #F11947",
"J. c #E60755",
"K. c #E2175B",
"L. c #E9135F",
"P. c #FB1456",
"I. c #D02655",
"U. c #E1215F",
"Y. c #EC1968",
"T. c #F21C6B",
"R. c #FC1C6C",
"E. c #D82960",
"W. c #E7266C",
"Q. c #EB296A",
"!. c #FE2468",
"~. c #FF3165",
"^. c #FF386A",
"/. c #FE2575",
"(. c #FC2873",
"). c #FF2E79",
"_. c #F73F70",
"`. c #FF3B77",
"'. c #F03579",
"]. c #BB474D",
"[. c #A8564F",
"{. c #B04959",
"}. c #A65954",
"|. c #8C7E52",
" X c #9E7252",
".X c #A46C50",
"XX c #BC6251",
"oX c #B75463",
"OX c #BA6361",
"+X c #C45548",
"@X c #C14460",
"#X c #CE4B6D",
"$X c #CB4C75",
"%X c #DF4472",
"&X c #CF617A",
"*X c #978D5B",
"=X c #AD8044",
"-X c #B18E66",
";X c #B3806A",
":X c #AF9D6A",
">X c #BCB179",
",X c #FE3982",
"<X c #EE4980",
"1X c #FF478C",
"2X c #E65386",
"3X c #F1568A",
"4X c #FF5B99",
"5X c #DC6687",
"6X c #D67794",
"7X c #EE668E",
"8X c #E77F99",
"9X c #FD72A3",
"0X c #D49481",
"qX c #F0968B",
"wX c #FF909B",
"eX c #C5A183",
"rX c #F089A1",
"tX c #E895A3",
"yX c #FF99A6",
"uX c #FF85B2",
"iX c #FF92B4",
"pX c #FF98BE",
"aX c #FFAEA2",
"sX c #EDC09F",
"dX c #DDC1A0",
"fX c #FFC8C6",
"gX c None",
/* pixels */
"gXgXgXgXgXgXgXgXgXgXgXgXgXgXgXgXgXgXgXgXgXgXgXgXgXgXgXgXgXgXgXgXgXgXgXgXgXgXgXgXgXgXgXgXgXgXgXgXgXgX",
"gXgXgXgXgXgXgXgXgXgXgXgXgXgXgXgXgXgXgXgXgXgXgXgXgXgXgXgXgXgXgXgXgXgXgXgXgXgXgXgXgXgXgXgXgXgXgXgXgXgX",
"gXgXgXgXgXgXgXgXgXgXgXgXgXgXgXgXgXgXgXgXgXgXgXgXgXgXgXgXgXgXgXgXgXgXgXgXgXgXgXgXgXgXgXgXgXgXgXgXgXgX",
"gXgXgXgXgXgXgXgXgXgXgXgXgXgXgXgXgXgXgXgXgXgXgXgXgXgXgXgXgXgXgXgXgXgXgXgXgXgXgXgXgXgXgXgXgXgXgXgXgXgX",
"gXgXgXgXgXgXgXgXgXgXgXgXgXgXgXgXgXgXgXgXgXgXgXgXgXgXgXgXgXgXgXgXgXgXgXgXgXgXgXgXgXgXgXgXgXgXgXgXgXgX",
"gXgXgXgXgXgXgXgXgXgXgXgXgXgXgXgXgXgXgXgXgXgXgXx M w q gXgXgXgXgXgXgXgXgXgXgXgXgXgXgXgXgXgXgXgXgXgXgX",
"gXgXgXgXgXgXgXgXgXgXgXgXgXgXgXgXgXgXgXgXgXgXx  X-XP 7 = gXgXgXgXgXgXgXgXgXgXgXgXgXgXgXgXgXgXgXgXgXgX",
"gXgXgXgXgXgXgXgXgXgXgXgXgXgXgXgXgXgXgXgXgXgXj ;XsXr.n E gXgXgXgXgXgXgXgXgXgXgXgXgXgXgXgXgXgXgXgXgXgX",
"gXgXgXgXgXgXgXgXgXgXgXgXgXgXgXgXgXgXgXgXgXgXj oX8X3.j.|.E 1 gXgXgXgXgXgXgXgXgXgXgXgXgXgXgXgXgXgXgXgX",
"gXgXgXgXgXgXgXgXgXgXgXgXgXgXgXgXgXgXgXgXgX2 V @X2X,.` *X*XX.1 gXgXgXgXgXgXgXgXgXgXgXgXgXgXgXgXgXgXgX",
"gXgXgXgXgXgXgXgXgXgXgXgXgXgXgXgXgXgXgXgXR Y Z @X7Xu.` k.>X*XE gXgXgXgXgXgXgXgXgXgXgXgXgXgXgXgXgXgXgX",
"gXgXgXgXgXgXgXgXgXgXgXgXgXgXgXgXgXgXgXe |.-XI XXaXrX{.I k.:X>X{ = gXgXgXgXgXgXgXgXgXgXgXgXgXgXgXgXgX",
"gXgXgXgXgXgXgXgXgXgXgXgXgXgXgXgXgXgXgX0 |.:XI ].yXpX@XL }.eX>X|.{ q gXgXgXgXgXgXgXgXgXgXgXgXgXgXgXgX",
"gXgXgXgXgXgXgXgXgXgXgXgXgXgXgXgXgXgXgXB k..XL c.9XiXoX,.5XtX:X:X..w gXgXgXgXgXgXgXgXgXgXgXgXgXgXgXgX",
"gXgXgXgXgXgXgXgXgXgXgXgXgXgXgXgXgXx / $X<XI.F c.9XaXXX%.%XuXtX-X| 0 gXgXgXgXgXgXgXgXgXgXgXgXgXgXgXgX",
"gXgXgXgXgXgXgXgXgXgXgXgXgXgXgXgXgX<.z.'.U.e.6.I.4XwX[.n c.4X9X}.` ' K gXgXgXgXgXgXgXgXgXgXgXgXgXgXgX",
"gXgXgXgXgXgXgXgXgXgXgXgXgXgXgXgXJ A.Y.m.&.@.m.Y.,X4Xv.b 8.W.7Xy.4.2Xu.l gXgXgXgXgXgXgXgXgXgXgXgXgXgX",
"gXgXgXgXgXgXgXgXgXgXgXgXgXgXx 1.A.K.z.P c %.b.Y.).4X%Xe.*.].qXt.2.'.B.S h gXgXgXgXgXgXgXgXgXgXgXgXgX",
"gXgXgXgXgXgXgXgXgXgXgXgXgXgXl 5.Y.Z.5.y n 8.S.T.).1X`.H.$.i.qXi.&.V.8.L r._ gXgXgXgXgXgXgXgXgXgXgXgX",
"gXgXgXgXgXgXgXgXgXgXgXgXgXgXl >.n.9.J 6 5.S._.`./.).!.H.$.u.3Xy.D =.c Q 6X{.l gXgXgXgXgXgXgXgXgXgXgX",
"gXgXgXgXgXgXgXgXgXgXgXgXgXK l.m.9.~ m 4 5.L.).).).`.~.G.G 3.'.^ f D c ~ 7Xx.> gXgXgXgXgXgXgXgXgXgXgX",
"gXgXgXgXgXgXgXgXgXgXgXgXK >.S.A.^ U u , 5.Z.T./.).`.~.g.b ! W.! , z D e.<Xv.N gXgXgXgXgXgXgXgXgXgXgX",
"gXgXgXgXgXgXgXgXgXgXgXh w.U.q.^ U u - 4 5.C.Z.Y./.).P.d.z ! W.! : 6 6.P.(.!.f.N @ gXgXgXgXgXgXgXgXgX",
"gXgXgXgXgXgXgXgXgXgXgXj >.f.*.z 3 * , k 0.J.C.Y./.P.g.:.d ! S.H 4 J q.J.N.F.h.:.l O gXgXgXgXgXgXgXgX",
"gXgXgXgXgXgXgXgXgXgXgXj Z O.A n Q ) Y A s.G.C.Y.!.h.a.$.a H q.n d 8.A.B.=.:.d.d.F + gXgXgXgXgXgXgXgX",
"gXgXgXgXgXgXgXgXgXgX> V k a C u.6XdX-XL 6.b.C.Q.^.h.a.$.a z *.f f 8.+X=X .W Y m 3 + gXgXgXgXgXgXgXgX",
"gXgXgXgXgXgXgXgXgX= , C F >.8.%XuXfX0XL *.q.n.Q.^.h.a.O.8 k $.f g r.k...T u ; - % & gXgXgXgXgXgXgXgX",
"gXgXgXgXgXgXgXgXgX1 3 c 7.P.R.,X4XuX&XF *.q.C.T.!.h.:.C 8 c $.f y ] [ W m 8 6 4 : & gXgXgXgXgXgXgXgX",
"gXgXgXgXgXgXgXgXgX= 3 t 4.J.J.Y.,X4X#XD *.f.F.R.T.s.D a Z %.D s : 3 m L z.9.F C 8 + gXgXgXgXgXgXgXgX",
"gXgXgXgXgXgXgXgXgXgX2 r Q y.c.E.T.,X%Xu.2.7.M.L.K.;.v 4 D @.C 6 9 ( 4.e.V.s.@.c 7 # gXgXgXgXgXgXgXgX",
"gXgXgXgXgXgXgXgXgXgXgXX - T |.OXS.T.,X3Xy.O.0.n.b.;.C 4 C Z k 6 ( 2X,XK.;.O.v < # gXgXgXgXgXgXgXgXgX",
"gXgXgXgXgXgXgXgXgXgXgXgXo ; } |.OXE.T.,Xy.+.d.D.m.&.k , f d a ,.I.,XU.7.@.k < gXgXgXgXgXgXgXgXgXgXgX",
"gXgXgXgXgXgXgXgXgXgXgXgXO % p | |.{.E.Y.2.+.d.M.0.F s 4 C k 6 e.!.T.e.O.c 5 . gXgXgXgXgXgXgXgXgXgXgX",
"gXgXgXgXgXgXgXgXgXgXgXgXgX& ; p } |.OXA.*.O.7.7.*.D s 8 #.o.a z.R.C.2.c , @ gXgXgXgXgXgXgXgXgXgXgXgX",
"gXgXgXgXgXgXgXgXgXgXgXgXgXO & ; p } j.9.0.6.&.O.D A d 4 z O.;.V.Z.6.z > O gXgXgXgXgXgXgXgXgXgXgXgXgX",
"gXgXgXgXgXgXgXgXgXgXgXgXgXgX. & ; r m >.q.9.Z A +.A d , 4 %.g.N.5.v > . gXgXgXgXgXgXgXgXgXgXgXgXgXgX",
"gXgXgXgXgXgXgXgXgXgXgXgXgXgXgXO & ; t G 2.,.a #.p.A 8 4 Z 7.b.~ y & O gXgXgXgXgXgXgXgXgXgXgXgXgXgXgX",
"gXgXgXgXgXgXgXgXgXgXgXgXgXgXgXgX@ & - g G G 4 A -.C 6 6 %.6.^ i ;   gXgXgXgXgXgXgXgXgXgXgXgXgXgXgXgX",
"gXgXgXgXgXgXgXgXgXgXgXgXgXgXgXgXgX. + ; b C 8 d C z 8 4 D G u ; & X gXgXgXgXgXgXgXgXgXgXgXgXgXgXgXgX",
"gXgXgXgXgXgXgXgXgXgXgXgXgXgXgXgXgXgXgX& d Z C s 8 f a , t y ; % X gXgXgXgXgXgXgXgXgXgXgXgXgXgXgXgXgX",
"gXgXgXgXgXgXgXgXgXgXgXgXgXgXgXgXgXgXgX# 5 k Z C k s g i u ; % $ gXgXgXgXgXgXgXgXgXgXgXgXgXgXgXgXgXgX",
"gXgXgXgXgXgXgXgXgXgXgXgXgXgXgXgXgXgXgXgX# < v %.O.8 i ] u & X gXgXgXgXgXgXgXgXgXgXgXgXgXgXgXgXgXgXgX",
"gXgXgXgXgXgXgXgXgXgXgXgXgXgXgXgXgXgXgXgXgXgX< c A 6 y T ; $ gXgXgXgXgXgXgXgXgXgXgXgXgXgXgXgXgXgXgXgX",
"gXgXgXgXgXgXgXgXgXgXgXgXgXgXgXgXgXgXgXgXgXgX= 7 s : - r $ gXgXgXgXgXgXgXgXgXgXgXgXgXgXgXgXgXgXgXgXgX",
"gXgXgXgXgXgXgXgXgXgXgXgXgXgXgXgXgXgXgXgXgXgXgX@ & & % X gXgXgXgXgXgXgXgXgXgXgXgXgXgXgXgXgXgXgXgXgXgX",
"gXgXgXgXgXgXgXgXgXgXgXgXgXgXgXgXgXgXgXgXgXgXgXgXgXgXgXgXgXgXgXgXgXgXgXgXgXgXgXgXgXgXgXgXgXgXgXgXgXgX",
"gXgXgXgXgXgXgXgXgXgXgXgXgXgXgXgXgXgXgXgXgXgXgXgXgXgXgXgXgXgXgXgXgXgXgXgXgXgXgXgXgXgXgXgXgXgXgXgXgXgX",
"gXgXgXgXgXgXgXgXgXgXgXgXgXgXgXgXgXgXgXgXgXgXgXgXgXgXgXgXgXgXgXgXgXgXgXgXgXgXgXgXgXgXgXgXgXgXgXgXgXgX",
"gXgXgXgXgXgXgXgXgXgXgXgXgXgXgXgXgXgXgXgXgXgXgXgXgXgXgXgXgXgXgXgXgXgXgXgXgXgXgXgXgXgXgXgXgXgXgXgXgXgX",
"gXgXgXgXgXgXgXgXgXgXgXgXgXgXgXgXgXgXgXgXgXgXgXgXgXgXgXgXgXgXgXgXgXgXgXgXgXgXgXgXgXgXgXgXgXgXgXgXgXgX"
};
