/* XPM */
static char *result[] = {
/* columns rows colors chars-per-pixel */
"50 50 186 2 ",
"   c #050200",
".  c #0C0301",
"X  c #190400",
"o  c #1C0E02",
"O  c #191504",
"+  c #240100",
"@  c #2B0101",
"#  c #230A00",
"$  c #2B0E02",
"%  c #340002",
"&  c #3A0002",
"*  c #360A0F",
"=  c #2C1205",
"-  c #221904",
";  c #3D1807",
":  c #351A09",
">  c #2B2208",
",  c #3C220F",
"<  c #332D12",
"1  c #1C1C24",
"2  c #24242C",
"3  c #2B2B35",
"4  c #2E2E38",
"5  c #262630",
"6  c #34343D",
"7  c #430003",
"8  c #4D0005",
"9  c #420D08",
"0  c #550104",
"q  c #5E0105",
"w  c #5F0A0F",
"e  c #53050C",
"r  c #49150C",
"t  c #4B0F13",
"y  c #640005",
"u  c #6F0109",
"i  c #750005",
"p  c #7C020B",
"a  c #70080F",
"s  c #7F0007",
"d  c #6F0319",
"f  c #6A0E18",
"g  c #66051F",
"h  c #7E0F12",
"j  c #691F1B",
"k  c #7C1B12",
"l  c #552213",
"z  c #4B371F",
"x  c #443718",
"c  c #513016",
"v  c #551A21",
"b  c #720C2A",
"n  c #7F1529",
"m  c #7A1B27",
"M  c #6D1D31",
"N  c #4C2A23",
"B  c #7A3822",
"V  c #7D2C37",
"C  c #56471B",
"Z  c #56532A",
"A  c #5A472C",
"S  c #625D2F",
"D  c #755024",
"F  c #7B7339",
"G  c #373741",
"H  c #383745",
"J  c #3C3C44",
"K  c #3E3E48",
"L  c #42424B",
"P  c #48494E",
"I  c #424348",
"U  c #474751",
"Y  c #4A4A54",
"T  c #4E4E58",
"R  c #52525C",
"E  c #716041",
"W  c #565563",
"Q  c #84000B",
"!  c #8B000C",
"~  c #8A0000",
"^  c #91010E",
"/  c #9B0002",
"(  c #870310",
")  c #95001A",
"_  c #9C0A19",
"`  c #AB031F",
"'  c #B5041A",
"]  c #AE0007",
"[  c #8E0725",
"{  c #880A21",
"}  c #8D0E29",
"|  c #9B0826",
" . c #96172E",
".. c #900630",
"X. c #8A192A",
"o. c #A10426",
"O. c #B20329",
"+. c #A80630",
"@. c #AE073A",
"#. c #BB043F",
"$. c #B40334",
"%. c #B91037",
"&. c #A21237",
"*. c #8E2D2D",
"=. c #A02035",
"-. c #A32A3E",
";. c #A33E37",
":. c #D5001C",
">. c #D20007",
",. c #C4082F",
"<. c #DE052A",
"1. c #C80D3D",
"2. c #EB0B38",
"3. c #FD0D39",
"4. c #80412E",
"5. c #8A653D",
"6. c #B7194B",
"7. c #943E57",
"8. c #BD2F54",
"9. c #A53457",
"0. c #C40A49",
"q. c #CB0549",
"w. c #D70841",
"e. c #C21D44",
"r. c #D8134D",
"t. c #D50752",
"y. c #DA0B57",
"u. c #CB1750",
"i. c #D71758",
"p. c #F00C47",
"a. c #EB124B",
"s. c #E5155D",
"d. c #FB1456",
"f. c #E90C4F",
"g. c #D02655",
"h. c #E1215F",
"j. c #EC1968",
"k. c #F51C6B",
"l. c #D82960",
"z. c #E9276B",
"x. c #FE2468",
"c. c #FF3568",
"v. c #FE2575",
"b. c #FF2E79",
"n. c #FC2873",
"m. c #FF3B77",
"M. c #F23877",
"N. c #B04959",
"B. c #AF5150",
"V. c #8C7E52",
"C. c #9E7252",
"Z. c #BC6251",
"A. c #A46C50",
"S. c #B75463",
"D. c #BA6361",
"F. c #C45548",
"G. c #C44663",
"H. c #DF4472",
"J. c #CB4C75",
"K. c #CF617A",
"L. c #978D5B",
"P. c #AD8044",
"I. c #B18E66",
"U. c #B3806A",
"Y. c #AF9D6A",
"T. c #BCB179",
"R. c #FE3982",
"E. c #EE4980",
"W. c #E65386",
"Q. c #FF5B99",
"!. c #F6518B",
"~. c #D87190",
"^. c #EE668E",
"/. c #E77F99",
"(. c #FD72A3",
"). c #D49481",
"_. c #F0968B",
"`. c #FF909B",
"'. c #C5A183",
"]. c #FF85B2",
"[. c #FF95B9",
"{. c #F093A3",
"}. c #FFAEA2",
"|. c #EDC09F",
" X c #DDC1A0",
".X c #FFC8C6",
/* pixels */
"U Y Y Y Y Y Y T Y Y 6 6 J G L J K J I J K I K K J 6 G G K K K G H H H H H 6 G G 6 6 K I I I L L L Y ",
"Y T T T T R T Y K I 6 J I K K K L L L L L L I K L J G G H J H G 6 J H 6 6 6 6 J K H 6 6 L T Y L U Y ",
"L I L L L Y L L K K K J K I K L L L L L L P L I L L K K J H G 6 H 6 6 6 G 6 6 6 J H H H 6 6 H K L L ",
"K L L L L L L L U P L K K L K K L L L L L L L I L L L L J 6 H 6 6 K I I K I H 6 H G I I K K K L L K ",
"P Y Y Y L Y Y U Y Y K K K L L L L L L L L P P I L L L L K K J I I J K K K J J 6 6 6 I I L I I L K L ",
"Y Y L L Y Y Y Y T Y K L L L L K L L Y Y Y Y Y r e = = K 6 6 6 K L L I K L I I G 6 J I I K K L L L I ",
"Y Y L P Y Y U Y T Y L L Y P L P L L P Y Y Y q C.I.j & X 3 4 H I K K L K K L K L L 6 6 6 K I I L L L ",
"L L Y Y U Y Y Y Y L L L L L K P L L L L Y Y 0 D.|.*.w z G G 4 6 G I L L I L L L I L J 6 3 3 6 K L U ",
"Y Y Y Y Y Y Y P T Y I L L L P L T L K Y Y L q S.{.X.D V.N o G G G G 6 J I L U I L L L L L H 6 4 K L ",
"H L Y Y Y Y Y T Y Y P L L L L Y L L Y Y L # y G.W.( B L.L.E # K K K G 3 4 J I L L L L L L U N 6 6 6 ",
"6 J H L T R R R Y L I L Y Y L L T Y Y L z l i N.^.-.B 5.T.L.z L L L L H 4 3 G Y Y Y U L U L J G 3 6 ",
"I 6 6 H G J U Y K L L L L P Y R L J G = V.I.k F.}.{.N.h 5.Y.T.A X K K L L G 4 6 K L L L L K 6 G J G ",
"L I I K J G J K P K L Y Y Y I 6 6 6 6 - V.Y.k B.[.[.N.h B.'.T.V.A = U K L I 6 3 4 G K H 6 6 J K K K ",
"J 6 6 K I H H 6 L Y Y Y L 6 4 4 G H J v C.A.h 8.(.[.S.{ ~.{.Y.Y.F = U L I U I K 4 G J H K K I K K K ",
"I L L I 6 6 H J L I 6 6 6 I L I L 8 m J.H.g.p 8.(.}.Z.Q J.].{.I.S - I U Y L I I G K K K I I I K L L ",
"I I L K I K I 6 5 4 I I L L K I I } 6.M.h.%.o.g.Q.`.B.w 8.Q.(.B.B V f L L K J 6 G J K K K L K P K I ",
"I L U K H K K K 6 K L I L L L L d u.j.6.( ^ 0.j.R.Q.9.e +.z.^.=. .W.-.0 H J J 6 6 6 6 L I I K Y I I ",
"Y L I K I L I H J K K K K L 0 } u.s.6.j q Q q.j.b.Q.H.1._ B._.;.| M.e.s 0 I 6 4 I K H 6 K P L L I L ",
"K I I K I L L K G K I K L L 0 ..j.y...: f +.i.k.b.!.m.a.^ ;._.;.) r.+.h *.V 3 6 G I I 6 K L Y L T P ",
"K I L K L K K G J I L K L L 0 [ q.@.d & ..i.M.m.v.b.k.p.^ -.!.=.i _ q v ~.N.0 K H K I L K I L L L P ",
"L L L L L U H 4 L L K K I f %.6.@.m r % ..j.b.b.n.m.c.a.a X.M.n 8 p q m ^.7.+ H L I K K I K L L L L ",
"Y L U L L H G 3 G L K I f [ i.u.n c > @ ..t.j.v.b.m.c.2.0 b z.b @ 0 p %.M.9.t 3 I K I K L L L I L L ",
"Y Y Y K G 4 G G 6 6 L 0 &.h.#.n r > o % ..t.y.j.v.b.d.<.0 b z.b + % o.d.b.x.1.t . 6 K I L L L Y L P ",
"K I I G G G G z 6 6 4 0 [ 1.) 0 = . @ 0 $.f.t.j.v.d.2.' 8 b i.g % d #.y.w.p.3.' 0 . 6 K P L U Y L I ",
"G G H J G H J G J K I 0 u Q i f v N l i ,.p.t.j.x.3.:.^ 7 g 6.y 8 +.u.e._ ' <.<.Q   6 3 6 L L 6 G 6 ",
"G 6 J G J J I I K J + q 0 & y -.~. XI.h o.q.t.z.c.3.:.^ & e ) 0 8 o.F.P.D c l r =   G 3 6 6 6 G G J ",
"G G J I J I J K I X @ y p [ +.H.]..X).h ) #.t.z.c.3.:.Q & 0 ^ 8 9 *.C.F x > O O . . I 6 6 6 6 6 G G ",
"J G J H K K K K K # $ q O.d.k.R.Q.].K.Q ) #.t.k.x.3.' y & y ^ 8 = C C c r & & & + . J 6 J 6 G G G G ",
"I J G J K K L I K X = ;  .f.y.j.R.Q.J.s ) 1.p.k.k.,.p 7 u ( p 7 + $ r h 6.@.( y & . 6 G J 6 J 6 G G ",
"H J 6 H I K L K K L # - v =.8.l.z.R.H.-.| O.w.s.s.` q @ p ! y % * M  .%.r.,.Q q & . G G 6 6 6 J H J ",
"H I I J H I K L L K L   X x V.Z.i.z.R.!.=.Q $.q.q.` y % y u 0 % M W.m.h.O.Q y @ . 6 6 J G J I G J J ",
"I J L J J G K P L U L L   O Z V.K.g.k.R.=.! <.f.0.( 0 @ 8 8 7 { g.R.h.O.! 0 @ J 6 6 6 6 6 6 I 6 J G ",
"J K K K K I L K L Y L L . . < S V.N.g.j.| ! <.2.+.p 7 % y 0 % %.x.k.%.Q y %   6 6 6 6 J 6 6 6 J J I ",
"K I K I K I I K L U P L U . O < Z V.K.e.) Q O.O.) p 7 & / ~ 7 6.k.t.| y @ . 4 6 4 3 6 6 K I K I K I ",
"K I I K K L L K L P L Y U . . O < Z D @.$.o.) Q p i 8 % 0 Q ` r.y.o.e + . 6 6 6 3 3 6 K H H K I K J ",
"L I K I L K I I L L L Y Y U   . O - t [ #.@.u i Q p 8 @ % ( 2.1...y +   6 6 4 3 4 3 3 6 I K I 6 K I ",
"K L I I K L L P L L L L L K L . . O r a | { & / >.i & % u O.q.m : . . 6 G 6 4 4 3 5 3 6 6 I I K K K ",
"K I L U L I L U U U L L U K K K . . O 9 a a % p ] y % % ! o.X., O   L L I K I K 6 6 6 6 6 K K I K I ",
"L L L L L L L L L Y P L L I K H 6 . . O e y & 8 y 0 & % p a > O .   L L L L L L L I J 6 6 H K I K I ",
"L L L L L L U L L Y L U L L I H H 6 H . 8 u y 7 & 8 7 @ ; : O     L K L L L I K I K L L 6 6 K K I I ",
"L P L L L L Y Y U L P U U L J 6 J 6 J . % 0 u y 0 7 9 , > O . . Y L L P L L I K L I K K I K 6 I I U ",
"L L P L Y Y Y Y Y Y Y Y L K G G 6 H I I . @ q Q Q & , C > .   U L U L L L L K I I K P K I K 4 6 K U ",
"Y Y Y Y T T T Y Y L K 6 6 G G J G 6 I K K P @ y i & : < O . L P L L L L U L L I K I K K I K 4 4 H Y ",
"K K K K I J 6 6 6 5 2 1 6 6 J K K J I I L L X & 7 + o > . L L L P Y P L I L L L L I L K I I 4 3 3 H ",
"6 6 G G H H 4 4 3 5 5 2 6 G K 6 6 L L T L U L . . . .   L Y Y Y P L L L L L L L I K I L K J 4 5 5 G ",
"L I L P L K L K I I I 6 J J K J G K L L L L U U T T Y Y P Y Y T L P Y T U P L L I L K L 6 4 6 6 G L ",
"K L L L P L L L I K K 6 4 6 I K K G 6 G H K L K U Y T Y T Y Y Y T T T Y Y Y U U L K K H G 6 I I K L ",
"U L P L L L U P I I K K 3 4 6 4 G G 6 G G G G H G J Y T R Y Y Y T Y U N 6 G J I K K J G I K P G I K ",
"L U U U U Y Y U P L L H 4 G J K 6 J 6 6 6 6 G H H H H H L W U L H H G G G G 6 6 G K H K K K K K L L ",
"L U U U U Y Y U L L L J 4 J K I K K K J J J G H J H H H J T H H H H G H G G G 4 G K K K I K K I L U "
};
