/* XPM */
static char *result[] = {
/* columns rows colors chars-per-pixel */
"50 50 184 2 ",
"   c #010200",
".  c #0A0403",
"X  c #0B0C01",
"o  c #1D0000",
"O  c #130B02",
"+  c #1E0A09",
"@  c #120A0A",
"#  c #151302",
"$  c #1B1302",
"%  c #1C1616",
"&  c #240501",
"*  c #2D0101",
"=  c #2C0608",
"-  c #340002",
";  c #3A0002",
":  c #330A0D",
">  c #3A0108",
",  c #2F1203",
"<  c #311608",
"1  c #371F0A",
"2  c #380E10",
"3  c #261414",
"4  c #201817",
"5  c #3B1918",
"6  c #3D1813",
"7  c #2D2509",
"8  c #29210B",
"9  c #3C240E",
"0  c #3F201F",
"q  c #3F3713",
"w  c #2B2724",
"e  c #2B2A28",
"r  c #3E3E3B",
"t  c #3A3836",
"y  c #420003",
"u  c #4B0003",
"i  c #4D030B",
"p  c #45070B",
"a  c #540003",
"s  c #590002",
"d  c #5E030B",
"f  c #401008",
"g  c #401808",
"h  c #4C1607",
"j  c #491C1E",
"k  c #461011",
"l  c #630005",
"z  c #6B0006",
"x  c #63040A",
"c  c #6C0008",
"v  c #720006",
"b  c #780002",
"n  c #74010A",
"m  c #7B000B",
"M  c #6F130E",
"N  c #690011",
"B  c #790518",
"V  c #54210F",
"C  c #473D14",
"Z  c #5B3717",
"A  c #4F1D20",
"S  c #521B21",
"D  c #6C1C2F",
"F  c #7C1A2A",
"G  c #6F1F34",
"H  c #5D222D",
"J  c #553837",
"K  c #782026",
"L  c #782E30",
"P  c #733434",
"I  c #52441A",
"U  c #5F4E1E",
"Y  c #43423E",
"T  c #755024",
"R  c #7D7930",
"E  c #494844",
"W  c #624242",
"Q  c #7E4645",
"!  c #7B4C53",
"~  c #636463",
"^  c #6F6868",
"/  c #746969",
"(  c #766D6A",
")  c #7A7976",
"_  c #820007",
"`  c #8A0003",
"'  c #85000C",
"]  c #8B000E",
"[  c #990007",
"{  c #8B0117",
"}  c #93021C",
"|  c #9A0014",
" . c #801518",
".. c #9C121D",
"X. c #AE0007",
"o. c #AC011B",
"O. c #A1081F",
"+. c #B50C1A",
"@. c #880724",
"#. c #990429",
"$. c #891D2C",
"%. c #971333",
"&. c #A70829",
"*. c #B1012B",
"=. c #B40529",
"-. c #AB0131",
";. c #AD0939",
":. c #BA0D36",
">. c #B80038",
",. c #B50238",
"<. c #B9163E",
"1. c #852829",
"2. c #802734",
"3. c #D20007",
"4. c #DD0A26",
"5. c #DD002E",
"6. c #C20E34",
"7. c #DF043A",
"8. c #C8183E",
"9. c #EE0434",
"0. c #FC0B38",
"q. c #956637",
"w. c #B80F46",
"e. c #BA1B4E",
"r. c #8B314B",
"t. c #993D43",
"y. c #AB3441",
"u. c #B03946",
"i. c #A62A53",
"p. c #A13F54",
"a. c #CB0547",
"s. c #CA0745",
"d. c #D60D48",
"f. c #CB164A",
"g. c #D70D55",
"h. c #DC1850",
"j. c #E10045",
"k. c #F10F40",
"l. c #E40A53",
"z. c #E21B58",
"x. c #F41154",
"c. c #C12045",
"v. c #D3204F",
"b. c #C42653",
"n. c #E4235C",
"m. c #F71D6C",
"M. c #D32A67",
"N. c #FB2365",
"B. c #FC2873",
"V. c #FD397E",
"C. c #984954",
"Z. c #9C535A",
"A. c #A24850",
"S. c #A05F66",
"D. c #946766",
"F. c #847F7F",
"G. c #867B7B",
"H. c #B7636C",
"J. c #C45548",
"K. c #C6455B",
"L. c #AD8044",
"P. c #FC3D83",
"I. c #B67C80",
"U. c #F04580",
"Y. c #E75187",
"T. c #F4588C",
"R. c #F575A0",
"E. c #8B8D8B",
"W. c #A18C8C",
"Q. c #BC8D90",
"!. c #BDA09F",
"~. c #A3A2A2",
"^. c #B3AAA8",
"/. c #C29A97",
"(. c #CC9DA6",
"). c #F496B7",
"_. c #C8A4A0",
"`. c #E6AABC",
"'. c #E8B4BA",
"]. c #E8ACC1",
"[. c #FFACCD",
"{. c #EBB4C4",
"}. c #F3B5CD",
"|. c None",
/* pixels */
"|.|.|.|.|.|.|.|.|.|.|.|.|.|.|.|.|.|.|.|.|.|.|.|.|.|.|.|.|.|.|.|.|.|.|.|.|.|.|.|.|.|.|.|.|.|.|.|.|.|.",
"|.|.|.|.|.|.|.|.|.|.|.|.|.|.|.|.|.|.|.|.|.|.|.|.|.|.|.|.|.|.|.|.|.|.|.|.|.|.|.|.|.|.|.|.|.|.|.|.|.|.",
"|.|.|.|.|.|.|.|.|.|.|.|.|.|.|.|.|.|.|.|.|.|.|.|.|.|.|.|.|.|.|.|.|.|.|.|.|.|.|.|.|.|.|.|.|.|.|.|.|.|.",
"|.|.|.|.|.|.|.|.|.|.|.|.|.|.|.|.|.|.|.|.|.|.|.|.|.|.|.|.|.|.|.|.|.|.|.|.|.|.|.|.|.|.|.|.|.|.|.|.|.|.",
"|.|.|.|.|.|.|.|.|.|.|.|.|.|.|.|.|.|.|.|.|.|.|.|.|.|.|.|.|.|.|.|.|.|.|.|.|.|.|.|.|.|.|.|.|.|.|.|.|.|.",
"|.|.|.|.|.|.|.|.|.|.|.|.|.|.|.|.|.|.|.|.|.|.|.|.|.|.|.|.|.|.|.|.|.|.|.|.|.|.|.|.|.|.|.|.|.|.|.|.|.|.",
"|.|.|.|.|.|.|.|.|.|.|.|.|.|.|.|.|.|.|.|.|.|.|.|.|.|.|.|.|.|.|.|.|.|.|.|.|.|.|.|.|.|.|.|.|.|.|.|.|.|.",
"|.|.|.|.|.|.|.|.|.|.|.|.|.|.|.|.|.|.|.|.|.|.|.|.|.|.|.|.|.|.|.|.|.|.|.|.|.|.|.|.|.|.|.|.|.|.|.|.|.|.",
"|.|.|.|.|.|.|.|.|.|.|.|.|.|.|.|.|.|.|.|.|.|.|.|.|.|.|.|.|.|.|.|.|.|.|.|.|.|.|.|.|.|.|.|.|.|.|.|.|.|.",
"|.|.|.|.|.|.|.|.|.|.|.|.|.|.|.|.|.|.|.|.|.|.|.|.|.|.|.|.|.|.|.|.|.|.|.|.|.|.|.|.|.|.|.|.|.|.|.|.|.|.",
"|.|.|.|.|.|.|.|.|.|.|.|.|.|.|.|.|.|.|.|.|.|.|.|.|.|.|.|.|.|.|.|.|.|.|.|.|.|.|.|.|.|.|.|.|.|.|.|.|.|.",
"|.|.|.|.|.|.|.|.|.|.|.|.|.|.|.|.|.|.|.|.|.|.|.|.|.|.|.|.|.|.|.|.|.|.|.|.|.|.|.|.|.|.|.|.|.|.|.|.|.|.",
"|.|.|.|.|.|.|.|.|.|.|.|.|.|.|.|.|.|.|.|.|.|.|.|.|.|.|.|.|.|.|.|.|.|.|.|.|.|.|.|.|.|.|.|.|.|.|.|.|.|.",
"|.|.|.|.|.|.|.|.|.|.|.|.|.|.|.|.|.|.|.|.|.|.|.|.|.|.|.|.|.|.|.|.|.|.|.|.|.|.|.|.|.|.|.|.|.|.|.|.|.|.",
"|.|.|.|.|.|.|.|.|.|.|.|.|.|.|.|.|.|.|.|.|.|.|.|.|.|.|.|.|.|.|.|.|.|.|.|.|.|.|.|.|.|.|.|.|.|.|.|.|.|.",
"|.|.|.|.|.|.|.|.|.|.|.|.|.|.|.|.|.|.|.|.|.|.|.|.|.|.|.|.|.|.|.|.|.|.|.|.|.|.|.|.|.|.|.|.|.|.|.|.|.|.",
"|.|.|.|.|.|.|.|.|.|.|.|.|.|.|.|.|.|.|.|.|.|.|.|.|.|.|.|.|.|.|.|.|.|.|.|.|.|.|.|.|.|.|.|.|.|.|.|.|.|.",
"|.|.|.|.|.|.|.|.|.|.|.|.|.|.|.|.|.|.|.|.|.|.|.|.|.|.|.|.|.|.|.|.|.|.|.|.S.^.|.|.|.|.|.|.|.|.|.|.|.|.",
"|.|.|.|.|.|.|.|.|.|.|.|.|.|.|.|.|.|.|.|.|.|.|.|.|.|.|.|.|.|.|.|.|.|.|.|.C.S.|.|.|.|.|.|.|.|.|.|.|.|.",
"|.|.|.|.|.|.|.|.|.|.|.|.|.|.|.|.|.|.|.|.|.|.|.|.|.|.|.|.|.|.|.|.|.|.|.|.).p.P |.|.|.|.|.|.|.|.|.|.|.",
"|.|.|.|.|.|.|.|.|.|.|.|.|.|.|.|.|.|.|.|.|.|.|.|.|.|.|.|.|.|.|.|.|.|._.H.R.r.A |.|.|.|.|.|.|.|.|.|.|.",
"|.|.|.|.|.|.|.|.|.|.|.|.|.|.|.|.|.|.|.|.|.|.|.|.|.|.|.|.|.|.|.|.|.|.A.&.U.i.H |.|.|.|.|.|.|.|.|.|.|.",
"|.|.|.|.|.|.|.|.|.|.|.|.|.|.|.|.|.|.|.|.|.|.|.|.|.|.|.|.|.|.|.|.|.J &.x.B.N.8.S ) |.|.|.|.|.|.|.|.|.",
"|.|.|.|.|.|.|.|.|.|.|.|.|.|.|.|.|.|.|.|.|.|.|.|.|.|.|.|.|.|.|.^.! B >.l.f.9.0.o.2.F.|.|.|.|.|.|.|.|.",
"|.|.|.|.|.|.|.|.|.|.|.|.|.|.|.|.|.|.|.|.|.|.|.|.|.|.|.|.|.|.|.W i -.f.b...+.4.4.B 4 |.|.|.|.|.|.|.|.",
"|.|.|.|.|.|.|.|.|.|.|.|.|.|.|.|.|.|.|.|.|.|.|.|.|.|.|.|.|.'.u.i i &.J.q.T Z V h o 4 |.|.|.|.|.|.|.|.",
"|.|.|.|.|.|.|.|.|.|.|.|.|.|.|.|.|.|.|.|.|.|.|.|.|.|.|.Q.W.Z.| u 2 1.q.q.I 7 $ # . % |.|.|.|.|.|.|.|.",
"|.|.|.|.|.|.|.|.|.|.|.|.|.|.|.|.|.|.|.|.|.|.|.|.|.|.I.x y d ] u 7 I U Z h > ; - o 3 |.|.|.|.|.|.|.|.",
"|.|.|.|.|.|.|.|.|.|.|.|.|.|.|.|.|.|.|.|.|.|.|.[.T.K.K y z ' m y & , h M e.;.' l > 3 |.|.|.|.|.|.|.|.",
"|.|.|.|.|.|.|.|.|.|.|.|.|.|.|.|.|.|.|.|.|.|.`.Y.l.o.s - m ] z - : G %.:.h.6.] s A / |.|.|.|.|.|.|.|.",
"|.|.|.|.|.|.|.|.|.|.|.|.|.|.|.|.|.|.|.|.|.{.b.a.s.o.l - l c a ; D Y.P.n.&.` x : ( |.|.|.|.|.|.|.|.|.",
"|.|.|.|.|.|.|.|.|.|.|.|.|.|.|.|.|.|.|.|.!.y.9.d.s.} a * i i y  .v.V.n.=.] u 5 |.|.|.|.|.|.|.|.|.|.|.",
"|.|.|.|.|.|.|.|.|.|.|.|.|.|.|.|.|.|.|.}.t.` 5.d.>.' u - z s - <.N.m.:.m i A ~ |.|.|.|.|.|.|.|.|.|.|.",
"|.|.|.|.|.|.|.|.|.|.|.|.|.|.|.|.|.|.}.M.} ' *.*.| b u - [ ` p e.N.g.#.s @ I.|.|.|.|.|.|.|.|.|.|.|.|.",
"|.|.|.|.|.|.|.|.|.|.|.|.|.|.|.|.|.|.`.w.-.-.{ ' m v u * s _ o.g.g.#.a 5 E.|.|.|.|.|.|.|.|.|.|.|.|.|.",
"|.|.|.|.|.|.|.|.|.|.|.|.|.|.|.|.|.|._.%.>.;.v b ` v u * * { 9.d.#.d 5 ~ |.|.|.|.|.|.|.|.|.|.|.|.|.|.",
"|.|.|.|.|.|.|.|.|.|.|.|.|.|.|.~.t ) D.n #.@.y [ 3.v ; - v *.a.F < + L.|.|.|.|.|.|.|.|.|.|.|.|.|.|.|.",
"|.|.|.|.|.|.|.|.|.|.|.|.|.|.|.|.) E Y C.$.N * b X.z - - ] O.F g X   |.|.|.|.|.|.|.|.|.|.|.|.|.|.|.|.",
"|.|.|.|.|.|.|.|.|.|.|.|.|.|.|.|.|.~ r ( L s ; u l s ; - n M 7 # @ e |.|.|.|.|.|.|.|.|.|.|.|.|.|.|.|.",
"|.|.|.|.|.|.|.|.|.|.|.|.|.|.|.|.|.|.E.w i v l y ; i y * g 9 #   r |.|.|.|.|.|.|.|.|.|.|.|.|.|.|.|.|.",
"|.|.|.|.|.|.|.|.|.|.|.|.|.|.|.|.|.|.|.^ j u z z a y 2 9 7 # . E |.|.|.|.|.|.|.|.|.|.|.|.|.|.|.|.|.|.",
"|.|.|.|.|.|.|.|.|.|.|.|.|.|.|.|.|.|.|.|.( : x ] ' ; 9 I 7 O w |.|.|.|.|.|.|.|.|.|.|.|.|.|.|.|.|.|.|.",
"|.|.|.|.|.|.|.|.|.|.|.|.|.|.|.|.|.|.|.|.|.|.2 a n ; 9 q X Y |.|.|.|.|.|.|.|.|.|.|.|.|.|.|.|.|.|.|.|.",
"|.|.|.|.|.|.|.|.|.|.|.|.|.|.|.|.|.|.|.|.|.|./ A y o O 8 Y |.|.|.|.|.|.|.|.|.|.|.|.|.|.|.|.|.|.|.|.|.",
"|.|.|.|.|.|.|.|.|.|.|.|.|.|.|.|.|.|.|.|.|.|.|.|.+ @ . e |.|.|.|.|.|.|.|.|.|.|.|.|.|.|.|.|.|.|.|.|.|.",
"|.|.|.|.|.|.|.|.|.|.|.|.|.|.|.|.|.|.|.|.|.|.|.|.|.|.|.|.|.|.|.|.|.|.|.|.|.|.|.|.|.|.|.|.|.|.|.|.|.|.",
"|.|.|.|.|.|.|.|.|.|.|.|.|.|.|.|.|.|.|.|.|.|.|.|.|.|.|.|.|.|.|.|.|.|.|.|.|.|.|.|.|.|.|.|.|.|.|.|.|.|.",
"|.|.|.|.|.|.|.|.|.|.|.|.|.|.|.|.|.|.|.|.|.|.|.|.|.|.|.|.|.|.|.|.|.|.|.|.|.|.|.|.|.|.|.|.|.|.|.|.|.|.",
"|.|.|.|.|.|.|.|.|.|.|.|.|.|.|.|.|.|.|.|.|.|.|.|.|.|.|.|.|.|.|.|.|.|.|.|.|.|.|.|.|.|.|.|.|.|.|.|.|.|.",
"|.|.|.|.|.|.|.|.|.|.|.|.|.|.|.|.|.|.|.|.|.|.|.|.|.|.|.|.|.|.|.|.|.|.|.|.|.|.|.|.|.|.|.|.|.|.|.|.|.|."
};
