/* XPM */
static char *result[] = {
/* columns rows colors chars-per-pixel */
"50 50 209 2 ",
"   c #474751",
".  c #4B4B55",
"X  c #4C4C56",
"o  c #494953",
"O  c #37373F",
"+  c #373741",
"@  c #3A3A44",
"#  c #383840",
"$  c #414149",
"%  c #3F3F47",
"&  c #3E3E48",
"*  c #3F3E4C",
"=  c #3B3A48",
"-  c #383745",
";  c #373644",
":  c #343341",
">  c #43434D",
",  c #44444C",
"<  c #4E4E58",
"1  c #51515B",
"2  c #31313D",
"3  c #48494E",
"4  c #2C2C36",
"5  c #2E2E38",
"6  c #313139",
"7  c #4C4D52",
"8  c #4B4C51",
"9  c #2F2E3C",
"0  c #53535D",
"q  c #55555F",
"w  c #2B2B35",
"e  c #404146",
"r  c #3C3D42",
"t  c #3F4045",
"y  c #26262E",
"u  c #44454A",
"i  c #A05F66",
"p  c #B3AAA8",
"a  c #44444E",
"s  c #984954",
"d  c #F496B7",
"f  c #A13F54",
"g  c #733434",
"h  c #C8A4A0",
"j  c #B7636C",
"k  c #F575A0",
"l  c #8B314B",
"z  c #4F1D20",
"x  c #A24850",
"c  c #A70829",
"v  c #F04580",
"b  c #A62A53",
"n  c #5D222D",
"m  c #553837",
"M  c #F41154",
"N  c #FC2873",
"B  c #FB2365",
"V  c #C8183E",
"C  c #521B21",
"Z  c #7A7976",
"A  c #7B4C53",
"S  c #790518",
"D  c #B80038",
"F  c #E40A53",
"G  c #CB164A",
"H  c #EE0434",
"J  c #FC0B38",
"K  c #AC011B",
"L  c #802734",
"P  c #847F7F",
"I  c #47484D",
"U  c #434449",
"Y  c #624242",
"T  c #4D030B",
"R  c #AB0131",
"E  c #C42653",
"W  c #9C121D",
"Q  c #B50C1A",
"!  c #DD0A26",
"~  c #201817",
"^  c #E8B4BA",
"/  c #B03946",
"(  c #C45548",
")  c #956637",
"_  c #755024",
"`  c #5B3717",
"'  c #54210F",
"]  c #4C1607",
"[  c #1D0000",
"{  c #BC8D90",
"}  c #A18C8C",
"|  c #9C535A",
" . c #9A0014",
".. c #4B0003",
"X. c #380E10",
"o. c #852829",
"O. c #52441A",
"+. c #2D2509",
"@. c #1B1302",
"#. c #151302",
"$. c #0A0403",
"%. c #1C1616",
"&. c #B67C80",
"*. c #63040A",
"=. c #420003",
"-. c #5E030B",
";. c #8B000E",
":. c #5F4E1E",
">. c #3A0108",
",. c #3A0002",
"<. c #340002",
"1. c #261414",
"2. c #FFACCD",
"3. c #F4588C",
"4. c #C6455B",
"5. c #782026",
"6. c #6B0006",
"7. c #85000C",
"8. c #7B000B",
"9. c #240501",
"0. c #2F1203",
"q. c #6F130E",
"w. c #BA1B4E",
"e. c #AD0939",
"r. c #630005",
"t. c #E6AABC",
"y. c #E75187",
"u. c #590002",
"i. c #330A0D",
"p. c #6F1F34",
"a. c #971333",
"s. c #BA0D36",
"d. c #DC1850",
"f. c #C20E34",
"g. c #746969",
"h. c #262630",
"j. c #EBB4C4",
"k. c #CB0547",
"l. c #CA0745",
"z. c #6C0008",
"x. c #540003",
"c. c #6C1C2F",
"v. c #FC3D83",
"b. c #E4235C",
"n. c #8A0003",
"m. c #766D6A",
"M. c #BDA09F",
"N. c #AB3441",
"B. c #D60D48",
"V. c #93021C",
"C. c #2D0101",
"Z. c #801518",
"A. c #D3204F",
"S. c #FD397E",
"D. c #B40529",
"F. c #3B1918",
"G. c #F3B5CD",
"H. c #993D43",
"J. c #DD002E",
"K. c #B9163E",
"L. c #F71D6C",
"P. c #636463",
"I. c #D32A67",
"U. c #B1012B",
"Y. c #780002",
"T. c #990007",
"R. c #45070B",
"E. c #D70D55",
"W. c #990429",
"Q. c #120A0A",
"!. c #B80F46",
"~. c #8B0117",
"^. c #720006",
"/. c #820007",
"(. c #8B8D8B",
"). c #2A2A32",
"_. c #A3A2A2",
"`. c #3A3836",
"'. c #946766",
"]. c #74010A",
"[. c #880724",
"{. c #D20007",
"}. c #7C1A2A",
"|. c #311608",
" X c #1E0A09",
".X c #AD8044",
"XX c #494844",
"oX c #43423E",
"OX c #891D2C",
"+X c #690011",
"@X c #AE0007",
"#X c #A1081F",
"$X c #401808",
"%X c #0B0C01",
"&X c #010200",
"*X c #3E3E3B",
"=X c #782E30",
"-X c #2B2A28",
";X c #2B2724",
":X c #3C240E",
">X c #6F6868",
",X c #491C1E",
"<X c #130B02",
"1X c #3F3713",
"2X c #212129",
"3X c #1C1C24",
"4X c #29210B",
"5X c #565563",
"6X c #444351",
/* pixels */
"  . X . o . . . X o O + @ # $ % % % % % % $ % % @ + + + & * = + - ; ; ; + : : + # # @ & $ $ > , ,   ",
". X X X < 1 < . & % O + % & & & $ $ $ $ $ $ $ $ $ @ + + @ @ @ + + + + + 2 2 2 + & + 2 # > o   >   o ",
"$ $ , , , o , $ % % % @ % $ % $ $ $ , , , , , $ > $ & % @ + + 2 + + # # + O + # @ @ @ @ # # @ % $ $ ",
"% $ , , $ $ , $     > % & $ & $ $ $ , , , , , $ , , $ $ @ + + # # % % % % % # # @ @ % % & % & $ $ $ ",
"3 o o o , o o o o X % % $ $ , $ $ , , , , , , , $ , , , & @ @ $ % % % % $ % # O # # % $ $ $ $ , $ , ",
"o o , , o o o o X X % $ , $ , $ , , o o o o o , , , $ & # O # & $ $ $ % $ $ % # O # % % % % $ , $ $ ",
"o o , 3 o o o o X o $ , o , , , , , ,   o o o , . $ O 4 4 5 + & % $ $ $ $ $ $ $ $ # O O % $ $ $ , , ",
", 3 o o o o o X X , $ $ , , $ , , , , , o o o , + 6 5 6 O + 2 2 + % > > $ $ > > $ $ # O 4 4 O % , , ",
"o o o o o 7 7 8 X o $ , , , , , 8 , $   . > + 9 2 2 @ $ > % # # O O O @ $ , , $ $ > , > $ # 6 5 & > ",
"+ $ o X X o X X o o , , , $ , o $ , o . > + 2 2 $ ,   > $ , > % & % O 4 6 @ , , $ > $ $ , $ # O 2 2 ",
"# O @ > X 1 0 q o , $ , o o , , . . o , @ O + @ $ , , $ $ > > $ $ $ $ @ 5 w O o o o , ,   > @ + 5 6 ",
"% # O + + @ > . % $ , , , , o 1 , & + O O # # % & & $     , > >   $ & > $ + 6 6 $ , , $ $ % # @ @ @ ",
"$ $ % & @ + @ * , $ , o X o % O 2 2 O # # % % e & % & , o   , > > , > & > , # 4 4 + % @ # # # % & & ",
"r # # % % @ + + , o o o $ O 6 6 # @ & $ $ $ $ t % $ & @ &     , $     > $ > $ % 5 + @ @ % % % % % % ",
"e , , $ # + # @ $ % # O O % $ $ $ $ $ $ $ $ % % $ $ $ @ % , o o o > $   o , $ $ # & & & $ $ $ % $ $ ",
"$ $ $ % % % % # y 6 % $ $ $ e $ % $ $ $ $ $ $ $ $ % % & % @ &   ,   o , $ % # # O @ % % % $ $ , $ $ ",
"$ , , % @ % & % # & $ $ $ $ $ , $ $ $ $ $ , $ $ $ $ $ % % $ $ % & & > & @ @ # + 2 2 # $ $ $ $ o u u ",
"o , $ % & > $ # @ & % % $ $ $ > $ $ $ $ u , , u $ $ $ $ $ $ $ $ $ % % % i p O 6 % % # # % , , , , , ",
"$ $ $ $ $ > > % + & $ $ $ $ $ $ , $ $ , , , , , o $ % $ , $ > a & $ > $ s i 6 + @ % % # % , o , 8 8 ",
"$ $ $ $ $ & % + @ $ $ $ $ , $ $ , , , , , , , , , $ $ , , $ $ $ & > > % d f g % @ % % $ $ $ $ , , , ",
", $ $ , , > @ 5 > > % % $   , $ , , , , , , , , $ , , , $ $ ,   o > h j k l z @ , $ % % $ $ $ $ $ $ ",
"o , , , > % O 4 # $ $ $ > $ $ , , , , , , , , , , , , $ , , > $ + 6 x c v b n 6 % & $ $ $ , , $ , , ",
"o o o $ # 6 5 4 6 # $ , , $ $ , , , , , o 3 o o , , , o o > # 2 # m c M N B V C Z # % $ , , , o , , ",
"$ % % # + + # # # O 6 # $ , , , , , o o o o o o o 3 , , # 6 # p A S D F G H J K L P 6 % , , , X , , ",
"+ + @ @ @ @ @ @ @ & % + # $ o o 3 I U o o , X X o X   @ + > o Y T R G E W Q ! ! S ~ 2 w O & % # O O ",
"O # @ @ @ @ % % % % @ @ @ % $ , , , o o o o < . o % O % o ^ / T T c ( ) _ ` ' ] [ ~ + 5 6 O O O + + ",
"+ # @ % % % % & % @ @ & % @ @ $ o o . . X <   @ 2 # $ { } |  ...X.o.) ) O.+.@.#.$.%.% O 2 2 2 O + + ",
"@ @ @ @ % & & & & % % $ & @ @ & O & < o @ + 2 2 2 , &.*.=.-.;...+.O.:.` ] >.,.<.[ 1.# # # # + + + + ",
"% @ # @ % $ $ & & & & $ & & & $ + 5 + + 2 2 5 2.3.4.5.=.6.7.8.=.9.0.] q.w.e.7.r.>.1.O + + # # + + + ",
"@ @ # @ % $ $ > & $ $ & & $ > $ @ 2 2 2 4 5 t.y.F K u.<.8.;.6.<.i.p.a.s.d.f.;.u.z g.O + O + # # @ @ ",
"@ % % % @ % $ , $ $ $ $ $ > > $   2 h.4 2 j.E k.l.K r.<.r.z.x.,.c.y.v.b.c n.*.i.m.O O # O # % # @ @ ",
"% & $ & @ # & , > > > > > > $ $ $ # 5 + M.N.H B.l.V.x.C.T T =.Z.A.S.b.D.;...F.O O 6 O O O # % # @ @ ",
"% % % % % $ $ % > o , > > >   $ , % + G.H.n.J.B.D 7...<.6.u.<.K.B L.s.8.T z P.O O 6 O # # # # # % % ",
"% % % % $ $ $ % >   , , , >   > , @ G.I.V.7.U.U. .Y...<.T.n.R.w.B E.W.u.Q.&.6 6 6 4 2 # @ % % % % % ",
"$ $ $ $ $ $ $ $ $ , , o   , o     # t.!.R R ~.7.8.^...C.u./.K E.E.W.x.F.(.O O O 4 4 2 @ @ @ % % % % ",
"$ $ $ $ $ $ $ $ > > > . .   . . > O h a.D e.^.Y.n.^...C.C.~.H B.W.-.F.P.6 6 4 4 4 ).5 # % % % # % % ",
"$ $ $ $ $ $ , , > > $ , , $ > _.`.Z '.].W.[.=.T.{.^.,.<.^.U.k.}.|. X.XO O 6 6 6 4 ).w O @ & $ % % % ",
"$ $ $ , , $ , , ,   > , > & & % Z XXoXs OX+XC.Y.@X6.<.<.;.#X}.$X%X&X$ $ $ % % % # 6 6 2 + @ % $ $ $ ",
"$ $ , , , $ , , , o , , , $ $ # O P.*Xm.=Xu.,...r.u.,.<.].q.+.#.Q.-X$ , , , $ $ $ % @ # + + % $ $ $ ",
", , , , , , , , , o , , , , $ # + # (.;XT ^.r.=.,.T =.C.$X:X#.&X*X$ $ , , $ $ $ $ % & & # + % $ $ $ ",
", , , , , , o o , , , o   , @ + @ # + >X,X..6.6.x.=.X.:X+.#.$.XXo , , , , $ $ $ u % $ % $ % O $ , , ",
"$ , , , o o o o o . o o > & + + O # % $ m.i.*.;.7.,.:XO.+.<X;Xo , , , , , , $ $ $ % , % $ % 5 + $ , ",
"o o o X X X X o o , % O # + + # # # % $ $ u X.x.].,.:X1X%XoX, , , , , , , $ $ $ $ $ $ % $ & 5 5 @   ",
"% % % % $ % # O 6 ).2X3X5 + @ % % % $ $ , , g.z =.[ <X4XoX, , , 3 3 3 , u U u u , $ $ % $ & 5 ).w @ ",
"+ + # # # + 6 5 4 ).y 2X+ @ % # # $ , o , , , o  XQ.$.-X, o o o , , , , , $ $ $ $ % $ $ $ # 4 ).h.+ ",
"$ $ $ > > $ & % % % % O # @ % @ # % $ > > ,     . . o o o o o X , I o o o , , $ $ $ $ $ # 6 6 + + $ ",
"$ > > > , , > > $ % % # 5 2 % % % + 2 + @ & > &     . X X o o 8 < X X . o o     , $ & @ + O % $ $ > ",
"> , , , , ,     $ $ $ % ).5 2 6 O + 2 + + + ; - - &   < 1 X 8 8 X o $ @ # @ @ % % % @ @ % $ > @ $ & ",
",         o o   u , , # 6 + @ % # # + O 2 2 + ; - ; - = > 5X6X> @ @ + + + + 2 2 + % @ % & & & & > > ",
",         o o   , , , @ 2 # % % % & % @ @ @ @ @ @ - - - @ < @ - @ @ + + + + 2 2 + % % & $ & $ $ > > "
};
