/* XPM */
static char *result[] = {
/* columns rows colors chars-per-pixel */
"50 50 220 2 ",
"   c #010100",
".  c #0A0802",
"X  c #1C0200",
"o  c #130B02",
"O  c #170807",
"+  c #151302",
"@  c #1B1302",
"#  c #1C1817",
"$  c #240300",
"%  c #2D0202",
"&  c #2C0608",
"*  c #340001",
"=  c #3A0002",
"-  c #330A0D",
";  c #370508",
":  c #291304",
">  c #311608",
",  c #371F0A",
"<  c #241515",
"1  c #3B1918",
"2  c #3D1813",
"3  c #380E10",
"4  c #2C2409",
"5  c #29210B",
"6  c #3C240E",
"7  c #3F201F",
"8  c #3F3713",
"9  c #2A2724",
"0  c #2B2A28",
"q  c #362423",
"w  c #3B3938",
"e  c #420002",
"r  c #4C0003",
"t  c #47050A",
"y  c #530003",
"u  c #590002",
"i  c #5C040B",
"p  c #401A09",
"a  c #481407",
"s  c #48181A",
"d  c #620004",
"f  c #6B0004",
"g  c #63040A",
"h  c #6C0008",
"j  c #730106",
"k  c #780002",
"l  c #74010A",
"z  c #7B010C",
"x  c #7E0C0E",
"c  c #6F130E",
"v  c #650511",
"b  c #790518",
"n  c #6E181D",
"m  c #54210F",
"M  c #5B3717",
"N  c #4C2D14",
"B  c #4F1C21",
"V  c #521B21",
"C  c #7D1728",
"Z  c #6F1F34",
"A  c #6C1C2F",
"S  c #482623",
"D  c #58292A",
"F  c #5F2730",
"G  c #423F3C",
"H  c #553837",
"J  c #692626",
"K  c #792123",
"L  c #763132",
"P  c #56471B",
"I  c #43423E",
"U  c #755024",
"Y  c #7D7930",
"T  c #545144",
"R  c #615F5F",
"E  c #704A49",
"W  c #6A5D60",
"Q  c #696665",
"!  c #746B6A",
"~  c #75726C",
"^  c #767674",
"/  c #7B7B7A",
"(  c #797675",
")  c #6C706B",
"_  c #820007",
"`  c #8A0004",
"'  c #84000C",
"]  c #8B000C",
"[  c #800E0F",
"{  c #990007",
"}  c #8B0117",
"|  c #95001B",
" . c #9A0014",
".. c #8E141B",
"X. c #AE0007",
"o. c #AC011B",
"O. c #A1041F",
"+. c #B50C1A",
"@. c #8E0424",
"#. c #880724",
"$. c #960223",
"%. c #930A2C",
"&. c #9D0727",
"*. c #971333",
"=. c #891D2C",
"-. c #A80529",
";. c #B3032A",
":. c #B0122E",
">. c #AC0132",
",. c #AD0B39",
"<. c #BB0039",
"1. c #B70636",
"2. c #A31636",
"3. c #BC153A",
"4. c #852437",
"5. c #9D2F3F",
"6. c #852829",
"7. c #A8253B",
"8. c #D20007",
"9. c #DC002F",
"0. c #DD0A26",
"q. c #C50839",
"w. c #DE023F",
"e. c #C9143E",
"r. c #C30029",
"t. c #F50836",
"y. c #956637",
"u. c #B8184B",
"i. c #B90D42",
"p. c #8D384B",
"a. c #A92F4A",
"s. c #CC044A",
"d. c #C90945",
"f. c #D70B46",
"g. c #D60B54",
"h. c #CA1651",
"j. c #D71A59",
"k. c #CB164A",
"l. c #F10F40",
"z. c #E60955",
"x. c #EC1053",
"c. c #C12045",
"v. c #D3204F",
"b. c #D3255A",
"n. c #E4235C",
"m. c #E81C66",
"M. c #F11B6B",
"N. c #FA1D6C",
"B. c #D8376C",
"V. c #FB2365",
"C. c #FB397A",
"Z. c #F52973",
"A. c #955559",
"S. c #A74A58",
"D. c #BE455F",
"F. c #B7645E",
"G. c #846F6E",
"H. c #946765",
"J. c #827E7E",
"K. c #847878",
"L. c #BA6261",
"P. c #A36269",
"I. c #C54E53",
"U. c #CB4868",
"Y. c #C05A65",
"T. c #E34275",
"R. c #CF617A",
"E. c #AD8044",
"W. c #8E837D",
"Q. c #B59065",
"!. c #FD3B83",
"~. c #B67C80",
"^. c #F4568C",
"/. c #FF5F9A",
"(. c #EB4B83",
"). c #D67995",
"_. c #E4668F",
"`. c #E76591",
"'. c #FF62A0",
"]. c #FA71A3",
"[. c #898785",
"{. c #928885",
"}. c #9C9C9C",
"|. c gray59",
" X c #BC8D90",
".X c #A39F9F",
"XX c #A58C8E",
"oX c #BEB28D",
"OX c #A0A09F",
"+X c #BDA09F",
"@X c #ADADAD",
"#X c #A5A7A7",
"$X c #B7A7A7",
"%X c #AEB1A0",
"&X c #B8B5B3",
"*X c #D2968D",
"=X c #C2B693",
"-X c #C689A1",
";X c #EF80A9",
":X c #FF87B3",
">X c #EA8DB0",
",X c #CBAFAE",
"<X c #D0A1AB",
"1X c #C1BAB9",
"2X c #D3BAA5",
"3X c #FFA2BF",
"4X c #E8B4BA",
"5X c #BDC0BE",
"6X c #DDC1A0",
"7X c #C4C5BB",
"8X c #EFA3C0",
"9X c #FBBDD5",
"0X c #EEB1C7",
"qX c #C9CAC9",
"wX c #D4D6D6",
"eX c #F1D1CE",
"rX c #DDE2CD",
"tX c #EBE8DF",
"yX c #FFD5E7",
"uX c None",
/* pixels */
"uXuXuXuXuXuXuXuXuXuXuXuXuXuXuXuXuXuXuXuXuXuXuXuXuXuXuXuXuXuXuXuXuXuXuXuXuXuXuXuXuXuXuXuXuXuXuXuXuXuX",
"uXuXuXuXuXuXuXuXuXuXuXuXuXuXuXuXuXuXuXuXuXuXuXuXuXuXuXuXuXuXuXuXuXuXuXuXuXuXuXuXuXuXuXuXuXuXuXuXuXuX",
"uXuXuXuXuXuXuXuXuXuXuXuXuXuXuXuXuXuXuXuXuXuXuXuXuXuXuXuXuXuXuXuXuXuXuXuXuXuXuXuXuXuXuXuXuXuXuXuXuXuX",
"uXuXuXuXuXuXuXuXuXuXuXuXuXuXuXuXuXuXuXuXuXuXuXuXuXuXuXuXuXuXuXuXuXuXuXuXuXuXuXuXuXuXuXuXuXuXuXuXuXuX",
"uXuXuXuXuXuXuXuXuXuXuXuXuXuXuXuXuXuXuXuXuXuXuXuXuXuXuXuXuXuXuXuXuXuXuXuXuXuXuXuXuXuXuXuXuXuXuXuXuXuX",
"uXuXuXuXuXuXuXuXuXuXuXuXuXuXuXuXuXuXuXuXuXuXuXuXuXuXuXuXuXuXuXuXuXuXuXuXuXuXuXuXuXuXuXuXuXuXuXuXuXuX",
"uXuXuXuXuXuXuXuXuXuXuXuXuXuXuXuXuXuXuXuXuXuXuXuXuXuXuXuXuXuXuXuXuXuXuXuXuXuXuXuXuXuXuXuXuXuXuXuXuXuX",
"uXuXuXuXuXuXuXuXuXuXuXuXuXuXuXuXuXuXuXuXuXuXuXuXuXuXuXuXuXuXuXuXuXuXuXuXuXuXuXuXuXuXuXuXuXuXuXuXuXuX",
"uXuXuXuXuXuXuXuXuXuXuXuXuXuXuXuXuXuXuXuXuXuXuXuXuXuXuXuXuXuXuXuXuXuXuXuXuXuXuXuXuXuXuXuXuXuXuXuXuXuX",
"uXuXuXuXuXuXuXuXuXuXuXuXuXuXuXuXuXuXuXuXuXuXuXuXuXuXuXuXuXuXuXuXuXuXuXuXuXuXuXuXuXuXuXuXuXuXuXuXuXuX",
"uXuXuXuXuXuXuXuXuXuXuXuXuXuXuXuXuXuXuXuXuXuXuXuXuXuXuXuXuXuXuXuXuXuXuXuXuXuXuXuXuXuXuXuXuXuXuXuXuXuX",
"uXuXuXuXuXuXuXuXuXuXuXuXuXuXuXuXuXuXuXuXuXuXuXuXuXuXuXuXuXuXuXuXuXuXuXuXuXuXuXuXuXuXuXuXuXuXuXuXuXuX",
"uXuXuXuXuXuXuXuXuXuXuXuXuXuXuXuXuXuXuXuXuXuXuXuXuXuXuXuXuXuXuXuXuXuXuXuXuXuXuXuXuXuXuXuXuXuXuXuXuXuX",
"uXuXuXuXuXuXuXuXuXuXuXuXuXuXuXuXuXuXuXuXuXuXuXuXuXuXuXuXuXuXuXuXuXuXuXuXuXuXuXuXuXuXuXuXuXuXuXuXuXuX",
"uXuXuXuXuXuXuXuXuXuXuXuXuXuXuXuXuXuXuXuXuXuXuXuXuXuXuXuXuXuXuXuXuXuXuXuXuXuXuXuXuXuXuXuXuXuXuXuXuXuX",
"uXuXuXuXuXuXuXuXuXuXuXuXuXuX@X5XuXuXuXuXuXuXuXuXuXuXuXuXuXuXuXuXuXuXuXuXuXuXuXuXuXuXuXuXuXuXuXuXuXuX",
"uXuXuXuXuXuXuXuXuXuXuXuXuXqXw W uXuXuXuXuXuXuXuXuXuXuXuXuXuXuXuXuXuXuXuXuXuXuXuXuXuXuXuXuXuXuXuXuXuX",
"uXuXuXuXuXuXuXuXuXuXuXuX#XG ; 4.].yXuXuXuXuXuXuXuXuXuXuXuXuXuXuXuXuXuXuXH.$XuXuXuXuXuXuXuXuXuXuXuXuX",
"uXuXuXuXuXuXuXuXuXuXuXuX/   * $.Z.9XuXuXuXuXuXuXuXuXuXuXuXuXuXuXuXuXuX Xp.P.uXuXuXuXuXuXuXuXuXuXuXuX",
"uXuXuXuXuXuXuXuXuXuXuXuX/ . e $.b.0XuXuXuXuXuXuXuXuXuXuXuXuXuXuXuXuXG.F ).S.L uXuXuXuXuXuXuXuXuXuXuX",
"uXuXuXuXuXuXuXuXuXuXuX^ q t 2.u.i.A.%XuXuXuXuXuXuXuXuXuXuXuXuXuXuXuXH.n `.p.S uXuXuXuXuXuXuXuXuXuXuX",
"uXuXuXuXuXuXuXuXuXuXuXq * %.j.h.C , T &XuXuXuXuXuXuXuXuXuXuXuXuXuXuXS.:.(.a.F uXuXuXuXuXuXuXuXuXuXuX",
"uXuXuXuXuXuXuXuXuXuXuXJ %.n.i.C N 5 : S ,XuXuXuXuXuXuXuXuXuXuXuX5XH -.x.N.V.k.V K.uXuXuXuXuXuXuXuXuX",
"uXuXuXuXuXuXuXuXuXuXuXJ | e.| i X O $ r D.3XuXuXuXuXuXuXuXuXuX$XE b <.z.f.l.t.o.L J.uXuXuXuXuXuXuXuX",
"uXuXuXuXuXuXuXuXuXuX$XJ f _ j v s D m k r.Z.9XuXuXuXuXuXuXuXuXE r >.k.c...+.0.0.z # uXuXuXuXuXuXuXuX",
"uXuXuXuXuXuXuXuXuX[.S g y e u 5.*X2XQ.x | d.B.8XuXuXuXuXuX4X5.t t >.I.E.U M m a $ # uXuXuXuXuXuXuXuX",
"uXuXuXuXuXuXuXuXuX/ & d z @.:.B.].eX*X[ | <.s.>XuXuXuX XXXA.{ r t 6.y.Y M > @ @   < uXuXuXuXuXuXuXuX",
"uXuXuXuXuXuXuXuXuXW.D K e.x.N.!.'.:XR.[ | q.g.].uXuX Xd e g ] r > P P P a ; * % X < uXuXuXuXuXuXuXuX",
"uXuXuXuXuXuXuXuXuX{.E ,X`.g.g.m.!.'.U.z | q.x.!.^.I.K = h ' z r $ > a [ u.,.z h * < uXuXuXuXuXuXuXuX",
"uXuXuXuXuXuXuXuXuX&X[.}.-X_.U.b.M.!.B.a.&.;.f.x.z.o.d * z ] h * - Z *.3.j.q.' u V uXuXuXuXuXuXuXuXuX",
"uXuXuXuXuXuXuXuXuXuXqXI ~.wXoXL.j.M.!.^.7._ 1.s.s.-.g * h h r = A (.(.x.+.' h & ~ uXuXuXuXuXuXuXuXuX",
"uXuXuXuXuXuXuXuXuXuXuX@X) ) 7X2XL.j.N.!.2.` 9.f.d.} y % r r = #.j.C.n.:.] r 2 uXuXuXuXuXuXuXuXuXuXuX",
"uXuXuXuXuXuXuXuXuXuXuXuX^ # #XwXoXY.b.m.-.' 9.f.<.z r * f y * 3.V.M.3._ y s ! uXuXuXuXuXuXuXuXuXuXuX",
"uXuXuXuXuXuXuXuXuXuXuXuX~.# ) 5XtXoXL.h.| ' ;.;. .z r = { ` t u.N.g.&.u & ^ uXuXuXuXuXuXuXuXuXuXuXuX",
"uXuXuXuXuXuXuXuXuXuXuXuXwX[.I ) qXrX*Xi.1.-.} ' z j r % y _ o.g.g.&.y 1 ~.uXuXuXuXuXuXuXuXuXuXuXuXuX",
"uXuXuXuXuXuXuXuXuXuXuXuXuXuXR w ^ qX<X*.<.,.h j ` j e % * [ t.f.%.i 1 Q uXuXuXuXuXuXuXuXuXuXuXuXuXuX",
"uXuXuXuXuXuXuXuXuXuXuXuXuXuXuX[.9 ^ H.l $.#.e { 8.j = * l ;.d.C > O [.uXuXuXuXuXuXuXuXuXuXuXuXuXuXuX",
"uXuXuXuXuXuXuXuXuXuXuXuXuXuXuXuX^ T I A.=.v * k X.h * * _ -.C 2 .   |.uXuXuXuXuXuXuXuXuXuXuXuXuXuXuX",
"uXuXuXuXuXuXuXuXuXuXuXuXuXuXuXuXuXQ w ! L d = r d u = * l c 4 + o 0 uXuXuXuXuXuXuXuXuXuXuXuXuXuXuXuX",
"uXuXuXuXuXuXuXuXuXuXuXuXuXuXuXuXuXuX[.9 t l d e = r e % p , @   w uXuXuXuXuXuXuXuXuXuXuXuXuXuXuXuXuX",
"uXuXuXuXuXuXuXuXuXuXuXuXuXuXuXuXuXuXwX! s r f h i e > 6 4 + . T }.uXuXuXuXuXuXuXuXuXuXuXuXuXuXuXuXuX",
"uXuXuXuXuXuXuXuXuXuXuXuXuXuXuXuXuXuXuXuX! - g ' ' = 6 P 4 . 9 @XuXuXuXuXuXuXuXuXuXuXuXuXuXuXuXuXuXuX",
"uXuXuXuXuXuXuXuXuXuXuXuXuXuXuXuXuXuXuXuXuX{.3 y l * 4 N + G uXuXuXuXuXuXuXuXuXuXuXuXuXuXuXuXuXuXuXuX",
"uXuXuXuXuXuXuXuXuXuXuXuXuXuXuXuXuXuXuXuXuXuX! B e X o 5 I |.uXuXuXuXuXuXuXuXuXuXuXuXuXuXuXuXuXuXuXuX",
"uXuXuXuXuXuXuXuXuXuXuXuXuXuXuXuXuXuXuXuXuXuXuXK.O O . 9 &XuXuXuXuXuXuXuXuXuXuXuXuXuXuXuXuXuXuXuXuXuX",
"uXuXuXuXuXuXuXuXuXuXuXuXuXuXuXuXuXuXuXuXuXuXuXuX#X.X}.@XuXuXuXuXuXuXuXuXuXuXuXuXuXuXuXuXuXuXuXuXuXuX",
"uXuXuXuXuXuXuXuXuXuXuXuXuXuXuXuXuXuXuXuXuXuXuXuXuXuXuXuXuXuXuXuXuXuXuXuXuXuXuXuXuXuXuXuXuXuXuXuXuXuX",
"uXuXuXuXuXuXuXuXuXuXuXuXuXuXuXuXuXuXuXuXuXuXuXuXuXuXuXuXuXuXuXuXuXuXuXuXuXuXuXuXuXuXuXuXuXuXuXuXuXuX",
"uXuXuXuXuXuXuXuXuXuXuXuXuXuXuXuXuXuXuXuXuXuXuXuXuXuXuXuXuXuXuXuXuXuXuXuXuXuXuXuXuXuXuXuXuXuXuXuXuXuX",
"uXuXuXuXuXuXuXuXuXuXuXuXuXuXuXuXuXuXuXuXuXuXuXuXuXuXuXuXuXuXuXuXuXuXuXuXuXuXuXuXuXuXuXuXuXuXuXuXuXuX"
};
