/* XPM */
static char *result[] = {
/* columns rows colors chars-per-pixel */
"50 50 249 2 ",
"   c #474751",
".  c #4B4B55",
"X  c #4C4C56",
"o  c #494953",
"O  c #37373F",
"+  c #373741",
"@  c #3A3A44",
"#  c #383840",
"$  c #414149",
"%  c #3F3F47",
"&  c #3E3E48",
"*  c #3F3E4C",
"=  c #3B3A48",
"-  c #383745",
";  c #373644",
":  c #343341",
">  c #43434D",
",  c #44444C",
"<  c #4E4E58",
"1  c #51515B",
"2  c #31313D",
"3  c #48494E",
"4  c #2C2C36",
"5  c #2E2E38",
"6  c #313139",
"7  c #4C4D52",
"8  c #4B4C51",
"9  c #2F2E3C",
"0  c #53535D",
"q  c #55555F",
"w  c #2B2B35",
"e  c #404146",
"r  c #3C3D42",
"t  c #3F4045",
"y  c #26262E",
"u  c gray68",
"i  c #BDC0BE",
"p  c #C9CAC9",
"a  c #3B3938",
"s  c #6A5D60",
"d  c #44454A",
"f  c #A5A7A7",
"g  c #423F3C",
"h  c #370508",
"j  c #852437",
"k  c #FA71A3",
"l  c #FFD5E7",
"z  c #946765",
"x  c #B7A7A7",
"c  c #7B7B7A",
"v  c #010100",
"b  c #340001",
"n  c #960223",
"m  c #F52973",
"M  c #FBBDD5",
"N  c #44444E",
"B  c #BC8D90",
"V  c #8D384B",
"C  c #A36269",
"Z  c #0A0802",
"A  c #420002",
"S  c #D3255A",
"D  c #EEB1C7",
"F  c #846F6E",
"G  c #5F2730",
"H  c #D67995",
"J  c #A74A58",
"K  c #763132",
"L  c #767674",
"P  c #362423",
"I  c #47050A",
"U  c #A31636",
"Y  c #B8184B",
"T  c #B90D42",
"R  c #955559",
"E  c #AEB1A0",
"W  c #6E181D",
"Q  c #E76591",
"!  c #482623",
"~  c #930A2C",
"^  c #D71A59",
"/  c #CA1651",
"(  c #7D1728",
")  c #371F0A",
"_  c #545144",
"`  c #B8B5B3",
"'  c #B0122E",
"]  c #EB4B83",
"[  c #A92F4A",
"{  c #692626",
"}  c #E4235C",
"|  c #4C2D14",
" . c #29210B",
".. c #291304",
"X. c #CBAFAE",
"o. c #553837",
"O. c #A80529",
"+. c #EC1053",
"@. c #FA1D6C",
"#. c #FB2365",
"$. c #CB164A",
"%. c #521B21",
"&. c #847878",
"*. c #95001B",
"=. c #C9143E",
"-. c #5C040B",
";. c #1C0200",
":. c #170807",
">. c #240300",
",. c #4C0003",
"<. c #BE455F",
"1. c #FFA2BF",
"2. c #704A49",
"3. c #790518",
"4. c #BB0039",
"5. c #E60955",
"6. c #D70B46",
"7. c #F10F40",
"8. c #F50836",
"9. c #AC011B",
"0. c #827E7E",
"q. c #6B0004",
"w. c #820007",
"e. c #730106",
"r. c #650511",
"t. c #48181A",
"y. c #58292A",
"u. c #54210F",
"i. c #780002",
"p. c #C30029",
"a. c #AC0132",
"s. c #C12045",
"d. c #8E141B",
"f. c #B50C1A",
"g. c #DD0A26",
"h. c #7B010C",
"j. c #1C1817",
"k. c #898785",
"l. c #63040A",
"z. c #530003",
"x. c #590002",
"c. c #9D2F3F",
"v. c #D2968D",
"b. c #D3BAA5",
"n. c #B59065",
"m. c #7E0C0E",
"M. c #C90945",
"N. c #D8376C",
"B. c #EFA3C0",
"V. c #E8B4BA",
"C. c #C54E53",
"Z. c #AD8044",
"A. c #755024",
"S. c #5B3717",
"D. c #481407",
"F. c #2C0608",
"G. c #620004",
"H. c #8E0424",
"J. c #F1D1CE",
"K. c #800E0F",
"L. c #CC044A",
"P. c #EA8DB0",
"I. c #A58C8E",
"U. c #990007",
"Y. c #852829",
"T. c #956637",
"R. c #7D7930",
"E. c #311608",
"W. c #1B1302",
"Q. c #241515",
"!. c #8E837D",
"~. c #792123",
"^. c #FD3B83",
"/. c #FF62A0",
"(. c #FF87B3",
"). c #CF617A",
"_. c #C50839",
"`. c #D60B54",
"'. c #8B000C",
"]. c #56471B",
"[. c #2D0202",
"{. c #928885",
"}. c #E81C66",
"|. c #CB4868",
" X c #F4568C",
".X c #3A0002",
"XX c #6C0008",
"oX c #84000C",
"OX c #AD0B39",
"+X c gray61",
"@X c #C689A1",
"#X c #E4668F",
"$X c #F11B6B",
"%X c #9D0727",
"&X c #B3032A",
"*X c #330A0D",
"=X c #6F1F34",
"-X c #971333",
";X c #BC153A",
":X c #43423E",
">X c #B67C80",
",X c #D4D6D6",
"<X c #BEB28D",
"1X c #BA6261",
"2X c #A8253B",
"3X c #B70636",
"4X c #6C1C2F",
"5X c #75726C",
"6X c #6C706B",
"7X c #C4C5BB",
"8X c #8A0004",
"9X c #DC002F",
"0X c #8B0117",
"qX c #880724",
"wX c #FB397A",
"eX c #3D1813",
"rX c #C05A65",
"tX c #746B6A",
"yX c #EBE8DF",
"uX c #9A0014",
"iX c #DDE2CD",
"pX c #3B1918",
"aX c #615F5F",
"sX c #D0A1AB",
"dX c #696665",
"fX c #2A2A32",
"gX c #2A2724",
"hX c #74010A",
"jX c #D20007",
"kX c #891D2C",
"lX c #AE0007",
"zX c gray59",
"xX c #6F130E",
"cX c #2C2409",
"vX c #151302",
"bX c #130B02",
"nX c #2B2A28",
"mX c #401A09",
"MX c #3C240E",
"NX c #380E10",
"BX c #212129",
"VX c #1C1C24",
"CX c #4F1C21",
"ZX c #434449",
"AX c #262630",
"SX c #A39F9F",
"DX c #47484D",
"FX c #565563",
"GX c #444351",
/* pixels */
"  . X . o . . . X o O + @ # $ % % % % % % $ % % @ + + + & * = + - ; ; ; + : : + # # @ & $ $ > , ,   ",
". X X X < 1 < . & % O + % & & & $ $ $ $ $ $ $ $ $ @ + + @ @ @ + + + + + 2 2 2 + & + 2 # > o   >   o ",
"$ $ , , , o , $ % % % @ % $ % $ $ $ , , , , , $ > $ & % @ + + 2 + + # # + O + # @ @ @ @ # # @ % $ $ ",
"% $ , , $ $ , $     > % & $ & $ $ $ , , , , , $ , , $ $ @ + + # # % % % % % # # @ @ % % & % & $ $ $ ",
"3 o o o , o o o o X % % $ $ , $ $ , , , , , , , $ , , , & @ @ $ % % % % $ % # O # # % $ $ $ $ , $ , ",
"o o , , o o o o X X % $ , $ , $ , , o o o o o , , , $ & # O # & $ $ $ % $ $ % # O # % % % % $ , $ $ ",
"o o , 3 o o o o X o $ , o , , , , , ,   o o o , . $ O 4 4 5 + & % $ $ $ $ $ $ $ $ # O O % $ $ $ , , ",
", 3 o o o o o X X , $ $ , , $ , , , , , o o o , + 6 5 6 O + 2 2 + % > > $ $ > > $ $ # O 4 4 O % , , ",
"o o o o o 7 7 8 X o $ , , , , , 8 , $   . > + 9 2 2 @ $ > % # # O O O @ $ , , $ $ > , > $ # 6 5 & > ",
"+ $ o X X o X X o o , , , $ , o $ , o . > + 2 2 $ ,   > $ , > % & % O 4 6 @ , , $ > $ $ , $ # O 2 2 ",
"# O @ > X 1 0 q o , $ , o o , , . . o , @ O + @ $ , , $ $ > > $ $ $ $ @ 5 w O o o o , ,   > @ + 5 6 ",
"% # O + + @ > . % $ , , , , o 1 , & + O O # # % & & $     , > >   $ & > $ + 6 6 $ , , $ $ % # @ @ @ ",
"$ $ % & @ + @ * , $ , o X o % O 2 2 O # # % % e & % & , o   , > > , > & > , # 4 4 + % @ # # # % & & ",
"r # # % % @ + + , o o o $ O 6 6 # @ & $ $ $ $ t % $ & @ &     , $     > $ > $ % 5 + @ @ % % % % % % ",
"e , , $ # + # @ $ % # O O % $ $ $ $ $ $ $ $ % % $ $ $ @ % , o o o > $   o , $ $ # & & & $ $ $ % $ $ ",
"$ $ $ % % % % # y 6 % $ $ $ u i % $ $ $ $ $ $ $ $ % % & % @ &   ,   o , $ % # # O @ % % % $ $ , $ $ ",
"$ , , % @ % & % # & $ $ $ p a s $ $ $ $ $ , $ $ $ $ $ % % $ $ % & & > & @ @ # + 2 2 # $ $ $ $ o d d ",
"o , $ % & > $ # @ & % % f g h j k l $ $ d , , d $ $ $ $ $ $ $ $ $ % % % z x O 6 % % # # % , , , , , ",
"$ $ $ $ $ > > % + & $ $ c v b n m M $ , , , , , o $ % $ , $ > N & $ > B V C 6 + @ % % # % , o , 8 8 ",
"$ $ $ $ $ & % + @ $ $ $ c Z A n S D , , , , , , , $ $ , , $ $ $ & > F G H J K % @ % % $ $ $ $ , , , ",
", $ $ , , > @ 5 > > % L P I U Y T R E , , , , , $ , , , $ $ ,   o > z W Q V ! @ , $ % % $ $ $ $ $ $ ",
"o , , , > % O 4 # $ $ P b ~ ^ / ( ) _ ` , , , , , , , $ , , > $ + 6 J ' ] [ G 6 % & $ $ $ , , $ , , ",
"o o o $ # 6 5 4 6 # $ { ~ } T ( |  ...! X.3 o o , , , o o > # 2 i o.O.+.@.#.$.%.&.# % $ , , , o , , ",
"$ % % # + + # # # O 6 { *.=.*.-.;.:.>.,.<.1.o o o 3 , , # 6 # x 2.3.4.5.6.7.8.9.K 0.6 % , , , X , , ",
"+ + @ @ @ @ @ @ @ & x { q.w.e.r.t.y.u.i.p.m M X o X   @ + > o 2.,.a.$.s.d.f.g.g.h.j.2 w O & % # O O ",
"O # @ @ @ @ % % % k.! l.z.A x.c.v.b.n.m.*.M.N.B.o % O % o V.c.I I a.C.Z.A.S.u.D.>.j.+ 5 6 O O O + + ",
"+ # @ % % % % & % c F.G.h.H.' N.k J.v.K.*.4.L.P.2 # $ B I.R U.,.I Y.T.R.S.E.W.W.v Q.% O 2 2 2 O + + ",
"@ @ @ @ % & & & & !.y.~.=.+.@.^./.(.).K.*._.`.k 2 , B G.A l.'.,.E.].].].D.h b [.;.Q.# # # # + + + + ",
"% @ # @ % $ $ & & {.2.X.Q `.`.}.^./.|.h.*._.+.^. XC.~..XXXoXh.,.>.E.D.K.Y OXh.XXb Q.O + + # # + + + ",
"@ @ # @ % $ $ > & ` k.+X@X#X|.S $X^.N.[ %X&X6.+.5.9.G.b h.'.XXb *X=X-X;X^ _.oXx.%.O O + O + # # @ @ ",
"@ % % % @ % $ , $ $ p :X>X,X<X1X^ $X^. X2Xw.3XL.L.O.l.b XXXX,..X4X] ] +.f.oXXXF.5XO O # O # % # @ @ ",
"% & $ & @ # & , > > > u 6X6X7Xb.1X^ @.^.U 8X9X6.M.0Xz.[.,.,..XqX^ wX} ' '.,.eXO O 6 O O O # % # @ @ ",
"% % % % % $ $ % > o , > L j.f ,X<XrXS }.O.oX9X6.4.h.,.b q.z.b ;X#.$X;Xw.z.t.tXO O 6 O # # # # # % % ",
"% % % % $ $ $ % >   , , >Xj.6Xi yX<X1X/ *.oX&X&XuXh.,..XU.8XI Y @.`.%Xx.F.L 6 6 6 4 2 # @ % % % % % ",
"$ $ $ $ $ $ $ $ $ , , o ,Xk.:X6Xp iXv.T 3XO.0XoXh.e.,.[.z.w.9.`.`.%Xz.pX>XO O O 4 4 2 @ @ @ % % % % ",
"$ $ $ $ $ $ $ $ > > > . .   aXa L p sX-X4.OXXXe.8Xe.A [.b K.8.6.~ -.pXdX6 6 4 4 4 fX5 # % % % # % % ",
"$ $ $ $ $ $ , , > > $ , , $ > k.gXL z hXn qXA U.jXe..Xb hX&XM.( E.:.k.O O 6 6 6 4 fXw O @ & $ % % % ",
"$ $ $ , , $ , , ,   > , > & & % L _ :XR kXr.b i.lXXXb b w.O.( eXZ v zX$ $ % % % # 6 6 2 + @ % $ $ $ ",
"$ $ , , , $ , , , o , , , $ $ # O dXa tXK G..X,.G.x..Xb hXxXcXvXbXnX$ , , , $ $ $ % @ # + + % $ $ $ ",
", , , , , , , , , o , , , , $ # + # k.gXI hXG.A .X,.A [.mX) W.v a $ $ , , $ $ $ $ % & & # + % $ $ $ ",
", , , , , , o o , , , o   , @ + @ # ,XtXt.,.q.XX-.A E.MXcXvXZ _ +X, , , , $ $ $ d % $ % $ % O $ , , ",
"$ , , , o o o o o . o o > & + + O # % $ tX*Xl.oXoX.XMX].cXZ gXu , , , , , , $ $ $ % , % $ % 5 + $ , ",
"o o o X X X X o o , % O # + + # # # % $ $ {.NXz.hXb cX| vXg , , , , , , , $ $ $ $ $ $ % $ & 5 5 @   ",
"% % % % $ % # O 6 fXBXVX5 + @ % % % $ $ , , tXCXA ;.bX .:XzX, , 3 3 3 , d ZXd d , $ $ % $ & 5 fXw @ ",
"+ + # # # + 6 5 4 fXy BX+ @ % # # $ , o , , , &.:.:.Z gX` o o o , , , , , $ $ $ $ % $ $ $ # 4 fXAX+ ",
"$ $ $ > > $ & % % % % O # @ % @ # % $ > > ,     f SX+Xu o o o X , DXo o o , , $ $ $ $ $ # 6 6 + + $ ",
"$ > > > , , > > $ % % # 5 2 % % % + 2 + @ & > &     . X X o o 8 < X X . o o     , $ & @ + O % $ $ > ",
"> , , , , ,     $ $ $ % fX5 2 6 O + 2 + + + ; - - &   < 1 X 8 8 X o $ @ # @ @ % % % @ @ % $ > @ $ & ",
",         o o   d , , # 6 + @ % # # + O 2 2 + ; - ; - = > FXGX> @ @ + + + + 2 2 + % @ % & & & & > > ",
",         o o   , , , @ 2 # % % % & % @ @ @ @ @ @ - - - @ < @ - @ @ + + + + 2 2 + % % & $ & $ $ > > "
};
