/* XPM */
static char *result[] = {
/* columns rows colors chars-per-pixel */
"50 50 178 2 ",
"   c #030203",
".  c #090305",
"X  c #0B0A0D",
"o  c #070609",
"O  c #140509",
"+  c #1D060C",
"@  c #120D0B",
"#  c #190A0D",
"$  c #0C0E12",
"%  c #110F10",
"&  c #0D1713",
"*  c #141012",
"=  c #1C1613",
"-  c #1B1519",
";  c #171B1C",
":  c #210A0E",
">  c #20070D",
",  c #240A11",
"<  c #2C0B13",
"1  c #340B15",
"2  c #3A0C17",
"3  c #3C0D19",
"4  c #350D18",
"5  c #261E1A",
"6  c #261D17",
"7  c #2C221B",
"8  c #33271E",
"9  c #1C1D23",
"0  c #201F26",
"q  c #1F2127",
"w  c #183B2F",
"e  c #212226",
"r  c #24242C",
"t  c #28272B",
"y  c #3D2E22",
"u  c #352F2A",
"i  c #3F3024",
"p  c #363126",
"a  c #2B2C34",
"s  c #292F38",
"d  c #392A33",
"f  c #2E323D",
"g  c #303038",
"h  c #420E1B",
"j  c #490E1B",
"k  c #510F1F",
"l  c #41101B",
"z  c #4A1622",
"x  c #531221",
"c  c #5A1223",
"v  c #5D1A28",
"b  c #661528",
"n  c #671729",
"m  c #771F35",
"M  c #443226",
"N  c #453328",
"B  c #4C382A",
"V  c #572E3D",
"C  c #422727",
"Z  c #64242D",
"A  c #652532",
"S  c #7A2E39",
"D  c #1D483A",
"F  c #34533F",
"G  c #56412F",
"H  c #554030",
"J  c #7C4F3F",
"K  c #6D503A",
"L  c #74553E",
"P  c #363C47",
"I  c #453341",
"U  c #642F42",
"Y  c #3B404D",
"T  c #245948",
"R  c #3D4551",
"E  c #395844",
"W  c #36644E",
"Q  c #366856",
"!  c #386E62",
"~  c #434243",
"^  c #444C5A",
"/  c #474A57",
"(  c #4D515C",
")  c #51535F",
"_  c #7E4443",
"`  c #6B5D51",
"'  c #4B5361",
"]  c #4D5C68",
"[  c #5C5F6C",
"{  c #535765",
"}  c #675F60",
"|  c #5D616E",
" . c #5B6576",
".. c #5C6F7C",
"X. c #5B6877",
"o. c #766A68",
"O. c #7E706D",
"+. c #636775",
"@. c #766070",
"#. c #801F38",
"$. c #84283D",
"%. c #943A45",
"&. c #8E694D",
"*. c #816147",
"=. c #906C50",
"-. c #957255",
";. c #9B7456",
":. c #9D7759",
">. c #A2604F",
",. c #A37B5A",
"<. c #84667B",
"1. c #867976",
"2. c #438574",
"3. c #4A8E7E",
"4. c #AC825F",
"5. c #B5815D",
"6. c #918077",
"7. c #AB8667",
"8. c #B38563",
"9. c #BB8D66",
"0. c #B88E6E",
"q. c #BF9578",
"w. c #C2936B",
"e. c #CB996F",
"r. c #C9976D",
"t. c #CC9A71",
"y. c #CB9876",
"u. c #D39F75",
"i. c #D49B7A",
"p. c #CCA27F",
"a. c #D6A37A",
"s. c #D9A478",
"d. c #5F7983",
"f. c #647183",
"g. c #6D7588",
"h. c #757B8C",
"j. c #797C8C",
"k. c #777685",
"l. c #797F91",
"z. c #7F808A",
"x. c #7D8293",
"c. c #728D99",
"v. c #718895",
"b. c #88848C",
"n. c #948582",
"m. c #978C8C",
"M. c #828799",
"N. c #858A9C",
"B. c #878794",
"V. c #948C91",
"C. c #A08E86",
"Z. c #AD9589",
"A. c #828CA2",
"S. c #898EA1",
"D. c #9196AA",
"F. c #9399AC",
"G. c #979CB1",
"H. c #9A9FB5",
"J. c #A19AB0",
"K. c #9CA1B7",
"L. c #9FA4BA",
"P. c #A0A6BC",
"I. c #C49B85",
"U. c #D7A393",
"Y. c #D5BB9D",
"T. c #D7AB87",
"R. c #E2B28A",
"E. c #D8BAA4",
"W. c #EAC7AA",
"Q. c #EDCCB3",
"!. c #E6C8B4",
"~. c #F2CFB3",
"^. c #A8ADC4",
"/. c #AFB4CC",
"(. c #B1B3CE",
"). c #C7C8CA",
"_. c #E6DDD9",
"`. c None",
/* pixels */
"`.`.`.`.`.`.`.`.`.`.`.`.`.`.`.`.`.`.`.`.`.`.`.`.`.`.`.`.`.`.`.`.`.`.`.`.`.`.`.`.`.`.`.`.`.`.`.`.`.`.",
"`.`.`.`.`.`.`.`.`.`.`.`.`.`.`.`.`.`.`.`.`.`.`.`.`.`.`.`.`.`.`.`.`.`.`.`.`.`.`.`.`.`.`.`.`.`.`.`.`.`.",
"`.`.`.`.`.`.`.`.`.`.`.`.`.`.`.`.`.`.`.`.`.`.`.`.`.`.`.`.`.`.`.`.`.`.`.`.`.`.`.`.`.`.`.`.`.`.`.`.`.`.",
"`.`.`.`.`.`.`.`.`.`.`.`.`.`.`.`.`.`.`.`.`.`.`.`.`.`.`.`.`.`.`.`.`.`.`.`.`.`.`.`.`.`.`.`.`.`.`.`.`.`.",
"`.`.`.`.`.`.`.`.`.`.`.`.`.`.`.`.`.`.`.`.`.`.`.`.`.`.`.`.`.`.`.`.`.`.`.`.`.`.`.`.`.`.`.`.`.`.`.`.`.`.",
"`.`.`.`.`.`.`.`.`.`.`.`.`.`.`.`.`.`.`.`.`.`.`.`.`.`.`.`.`.`.`.`.`.`.`.`.`.`.`.`.`.`.`.`.`.`.`.`.`.`.",
"`.`.`.`.`.`.`.`.`.`.`.`.`.`.`.`.`.`.`.`.`.`.`.`.`.`.`.`.`.`.`.`.`.`.`.`.`.`.`.`.`.`.`.`.`.`.`.`.`.`.",
"`.`.`.`.`.`.`.`.`.`.`.`.`.`.`.`.`.`.`.`.`.`.`.`.`.`.`.`.`.`.`.`.`.`.`.`.`.`.`.`.`.`.`.`.`.`.`.`.`.`.",
"`.`.`.`.`.`.`.`.`.`.`.`.`.`.`.`.`.`.`.`.`.q h.M.M.N.`.`.`.`.`.`.`.`.`.`.`.`.`.`.`.`.`.`.`.`.`.`.`.`.",
"`.`.`.`.`.`.`.`.`.`.`.`.`.`.`.`.`.`.`.`.; { x.S.K.N.M.M.`.`.`.`.`.`.`.`.`.`.`.`.`.`.`.`.`.`.`.`.`.`.",
"`.`.`.`.`.`.`.`.`.`.`.`.`.`.`.`.`.`.`.9 ) x.N.N.H.K.K.S.M.M.`.`.`.`.`.`.`.`.`.`.`.`.`.`.`.`.`.`.`.`.",
"`.`.`.`.`.`.`.`.`.`.`.`.`.`.`.`.`.`.9 { l.M.M.x.N.H.(.P.S.M.M.`.`.`.`.`.`.`.`.`.`.`.`.`.`.`.`.`.`.`.",
"`.`.`.`.`.`.`.`.`.`.`.`.`.`.`.`.`.e ( h.M.F.x.x.x.N.K./.L.S.M.`.`.`.`.`.`.`.`.`.`.`.`.`.`.`.`.`.`.`.",
"`.`.`.`.`.`.`.`.`.`.`.`.`.`.`.`.`.a h.j.N.D.j.x.x.M.x.F.K.H.S.`.`.`.`.`.`.`.`.`.`.`.`.`.`.`.`.`.`.`.",
"`.`.`.`.`.`.`.`.`.`.`.`.`.`.`.`.q / h.h.h.x.j.6.C.m.x.x.M.^.D.`.`.`.`.`.`.`.`.`.`.`.`.`.`.`.`.`.`.`.",
"`.`.`.`.`.`.`.`.`.`.`.`.`.`.`.`.a h.h.h.h.z.Z.a.s.a.Z.B.x.F.S.`.`.`.`.`.`.`.`.`.`.`.`.`.`.`.`.`.`.`.",
"`.`.`.`.`.`.`.`.`.`.`.`.`.`.`.`.a h.h.h.j.6.-.=.,.s.a.` ' g.M.`.`.`.`.`.`.`.`.`.`.`.`.`.`.`.`.`.`.`.",
"`.`.`.`.`.`.`.`.`.`.`.`.`.`.`.`.r | h.h.b.-.= ~ 5 p.T.6 o [ M.`.`.`.`.`.`.`.`.`.`.`.`.`.`.`.`.`.`.`.",
"`.`.`.`.`.`.`.`.`.`.`.`.`.`.`.`.`.a h.j.V.,.` ).{ E.W./ $ [ M.`.`.`.`.`.`.`.`.`.`.`.`.`.`.`.`.`.`.`.",
"`.`.`.`.`.`.`.`.`.`.`.`.`.`.`.`.`.t | x.V.r.R._.(.!.!.J.r | M.`.`.`.`.`.`.`.`.`.`.`.`.`.`.`.`.`.`.`.",
"`.`.`.`.`.`.`.`.`.`.`.`.`.`.`.`.`.`.t h.B.y.R.W.Q.~.Q.7.5 +.`.`.`.`.`.`.`.`.`.`.`.`.`.`.`.`.`.`.`.`.",
"`.`.`.`.`.`.`.`.`.`.`.`.`.`.`.`.`.`.e X.x.V.I.y.U.U.I.C # ' `.`.`.`.`.`.`.`.`.`.`.`.`.`.`.`.`.`.`.`.",
"`.`.`.`.`.`.`.`.`.`.`.`.`.`.`.`.`.`.`.d g.z.k.Z %.%.Z n x , `.`.`.`.`.`.`.`.`.`.`.`.`.`.`.`.`.`.`.`.",
"`.`.`.`.`.`.`.`.`.`.`.`.`.`.`.`.`.`.O V h.h.@._ i.i.$.n n k # `.`.`.`.`.`.`.`.`.`.`.`.`.`.`.`.`.`.`.",
"`.`.`.`.`.`.`.`.`.`.`.`.`.`.`.`.`.`.+ V j.<.%.q.Y.Y.9.Z b n # `.`.`.`.`.`.`.`.`.`.`.`.`.`.`.`.`.`.`.",
"`.`.`.`.`.`.`.`.`.`.`.`.`.`.`.`.`., x S <.U Z E W Q F C n v # `.`.`.`.`.`.`.`.`.`.`.`.`.`.`.`.`.`.`.",
"`.`.`.`.`.`.`.`.`.`.`.`.`.`.`.`.`.N >.$.$.c & D T T D = ;.8.7 `.`.`.`.`.`.`.`.  . 1 m `.`.`.`.`.`.`.",
"`.`.`.`.`.`.`.`.`.`.`.`.`.`.`.`.y ,.,.J + O & X.....| e ;.w.i `.`.`.`.`.`.`.  > h 2 , `.`.`.`.`.`.`.",
"`.`.`.`.`.`.`.`.`.`.`.`.`.`.`.`.B w.&.=   ;  .c.c.g.f.' u ,.w.N c 3   .     > h `.n h   `.`.`.`.`.`.",
"`.`.`.`.`.`.`.`.`.`.`.`.`.`.`.B 4.e.&.& D T 2.v.v.2.! Q w p 8.N k n b z 3 > O `.`.`.`.`.`.`.`.`.`.`.",
"`.`.`.`.`.`.`.`.`.`.`.`.`.`.`.G e.e.&.e f.v.c.c.c.d...] ;   7 % `.`.`.`.+ 4 `.`.`.`.`.`.`.`.`.`.`.`.",
"`.`.`.`.`.`.`.`.`.`.`.`.`.`.`.G r.e.;.* r g g s w q r q o `.`.`.`.`.`.`.  l $.`.`.`.`.`.`.`.`.`.`.`.",
"`.`.`.`.`.`.`.`.`.`.`.`.`.`.`.7 y y 7 8 :.,.:.K . @ L *.= `.`.`.`.`.`.`.`., x `.`.`.`.`.`.`.`.`.`.`.",
"`.`.`.`.`.`.`.`.`.`.`.`.`.`.`.`.`.  6 -.u.u.8.M @ L 9.9.5 `.`.`.`.`.`.`.`.`., 4 `.`.`.`.`.`.`.`.`.`.",
"`.`.`.`.`.`.`.`.`.`.`.`.`.`.`.`.`.`.t 1.n.o.M `.X o.1.o.; `.`.`.`.`.`.`.`.`.`.`.`.`.`.`.`.`.`.`.`.`.",
"`.`.`.`.`.`.`.`.`.`.`.`.`.`.`.`.`.`.9  .] P `.`.X ' { f `.`.`.`.`.`.`.`.`.`.`.`.`.`.`.`.`.`.`.`.`.`.",
"`.`.`.`.`.`.`.`.`.`.`.`.`.`.`.`.`.`.9 ^ e `.`.`.$ ^ ^ $ `.`.`.`.`.`.`.`.`.`.`.`.`.`.`.`.`.`.`.`.`.`.",
"`.`.`.`.`.`.`.`.`.`.`.`.`.`.`.`.`.- P P   `.`.`.X R s * `.`.`.`.`.`.`.`.`.`.`.`.`.`.`.`.`.`.`.`.`.`.",
"`.`.`.`.`.`.`.`.`.`.`.`.`.`.`.`.`.- I s `.`.`.`.X d < . `.`.`.`.`.`.`.`.`.`.`.`.`.`.`.`.`.`.`.`.`.`.",
"`.`.`.`.`.`.`.`.`.`.`.`.`.`.`.`.O 1 h + `.`.`.`.. j c 3 , O `.`.`.`.`.`.`.`.`.`.`.`.`.`.`.`.`.`.`.`.",
"`.`.`.`.`.`.`.`.`.`.`.`.`.`.`.`.+ k k j   `.`.`.. , h 3 1 . `.`.`.`.`.`.`.`.`.`.`.`.`.`.`.`.`.`.`.`.",
"`.`.`.`.`.`.`.`.`.`.`.`.`.`.`.`.O 1 3 1   `.`.`.            `.`.`.`.`.`.`.`.`.`.`.`.`.`.`.`.`.`.`.`.",
"`.`.`.`.`.`.`.`.`.`.`.`.`.`.`.`.        `.`.`.`.`.`.`.`.`.`.`.`.`.`.`.`.`.`.`.`.`.`.`.`.`.`.`.`.`.`.",
"`.`.`.`.`.`.`.`.`.`.`.`.`.`.`.`.`.`.`.`.`.`.`.`.`.`.`.`.`.`.`.`.`.`.`.`.`.`.`.`.`.`.`.`.`.`.`.`.`.`.",
"`.`.`.`.`.`.`.`.`.`.`.`.`.`.`.`.`.`.`.`.`.`.`.`.`.`.`.`.`.`.`.`.`.`.`.`.`.`.`.`.`.`.`.`.`.`.`.`.`.`.",
"`.`.`.`.`.`.`.`.`.`.`.`.`.`.`.`.`.`.`.`.`.`.`.`.`.`.`.`.`.`.`.`.`.`.`.`.`.`.`.`.`.`.`.`.`.`.`.`.`.`.",
"`.`.`.`.`.`.`.`.`.`.`.`.`.`.`.`.`.`.`.`.`.`.`.`.`.`.`.`.`.`.`.`.`.`.`.`.`.`.`.`.`.`.`.`.`.`.`.`.`.`.",
"`.`.`.`.`.`.`.`.`.`.`.`.`.`.`.`.`.`.`.`.`.`.`.`.`.`.`.`.`.`.`.`.`.`.`.`.`.`.`.`.`.`.`.`.`.`.`.`.`.`.",
"`.`.`.`.`.`.`.`.`.`.`.`.`.`.`.`.`.`.`.`.`.`.`.`.`.`.`.`.`.`.`.`.`.`.`.`.`.`.`.`.`.`.`.`.`.`.`.`.`.`.",
"`.`.`.`.`.`.`.`.`.`.`.`.`.`.`.`.`.`.`.`.`.`.`.`.`.`.`.`.`.`.`.`.`.`.`.`.`.`.`.`.`.`.`.`.`.`.`.`.`.`."
};
