/* XPM */
static char *result[] = {
/* columns rows colors chars-per-pixel */
"50 50 164 2 ",
"   c #474751",
".  c #4B4B55",
"X  c #4C4C56",
"o  c #494953",
"O  c #37373F",
"+  c #373741",
"@  c #3A3A44",
"#  c #383840",
"$  c #414149",
"%  c #3F3F47",
"&  c #FEA400",
"*  c #FFA900",
"=  c #3E3E48",
"-  c #3F3E4C",
";  c #3B3A48",
":  c #383745",
">  c #373644",
",  c #343341",
"<  c #43434D",
"1  c #44444C",
"2  c #4E4E58",
"3  c #51515B",
"4  c #FA9F00",
"5  c #F39A00",
"6  c #31313D",
"7  c #EA9400",
"8  c #DB8B00",
"9  c #D28200",
"0  c #B17300",
"q  c #E18C00",
"w  c #B46B00",
"e  c #875700",
"r  c #654300",
"t  c #563C00",
"y  c #48494E",
"u  c #CF7602",
"i  c #BE6E00",
"p  c #945600",
"a  c #512F00",
"s  c #281700",
"d  c #130B00",
"f  c #C34516",
"g  c #C2530F",
"h  c #B2500C",
"j  c #8A3A0B",
"k  c #571D0B",
"l  c #33040E",
"z  c #2B040C",
"x  c #4C0615",
"c  c #0B0202",
"v  c #3E0411",
"b  c #7B0B21",
"n  c #AE102F",
"m  c #BB2325",
"M  c #BA2F1F",
"N  c #B0301B",
"B  c #98251A",
"V  c #7A141A",
"C  c #6B0A1D",
"Z  c #6E031F",
"A  c #890625",
"S  c #9B0E29",
"D  c #840B23",
"F  c #430512",
"G  c #010000",
"H  c #1A0207",
"J  c #B81A2D",
"K  c #B31A2B",
"L  c #AC182B",
"P  c #A40E2C",
"I  c #B50F30",
"U  c #130205",
"Y  c #2C2C36",
"T  c #4C4D52",
"R  c #4B4C51",
"E  c #1E0308",
"W  c #370610",
"Q  c #610A1B",
"!  c #93132C",
"~  c #B61A39",
"^  c #C01B3C",
"/  c #BC1C3C",
"(  c #B5203E",
")  c #313139",
"_  c #2E2E38",
"`  c #6A1324",
"'  c #8B162D",
"]  c #AD213E",
"[  c #C62B4B",
"{  c #CB2C4D",
"}  c #CD2748",
"|  c #B12B46",
" . c #510716",
".. c #53535D",
"X. c #55555F",
"o. c #9B122D",
"O. c #D33556",
"+. c #DF3F60",
"@. c #D63A5A",
"#. c #2B2B35",
"$. c #62071A",
"%. c #910D27",
"&. c #CD3151",
"*. c #DC4262",
"=. c #CA2546",
"-. c #BA1233",
";. c #DC3759",
":. c #3C3D42",
">. c #950D28",
",. c #AA0F2E",
"<. c #C22343",
"1. c #AF1030",
"2. c #404146",
"3. c #220309",
"4. c #560817",
"5. c #B41131",
"6. c #BA0F31",
"7. c #B42D49",
"8. c #8C0C25",
"9. c #26262E",
"0. c #44454A",
"q. c #B10F2F",
"w. c #5B0819",
"e. c #A4132B",
"r. c #710A1F",
"t. c #2C1A00",
"y. c #190F00",
"u. c #1C1100",
"i. c #4E2D00",
"p. c #693D00",
"a. c #5E3700",
"s. c #3B2300",
"d. c #580718",
"f. c #38050F",
"g. c #8E5300",
"h. c #563300",
"j. c #241500",
"k. c #834C00",
"l. c #B16700",
"z. c #A66100",
"x. c #2C0C12",
"c. c #643A00",
"v. c #A15D00",
"b. c #452800",
"n. c #AB6400",
"m. c #711C2E",
"M. c #742032",
"N. c #B87700",
"B. c #C37100",
"V. c #C06F00",
"C. c #B7334E",
"Z. c #A41C38",
"A. c #311D00",
"S. c #744400",
"D. c #D93D5E",
"F. c #9F5C00",
"G. c #D02547",
"H. c #B0102F",
"J. c #84142B",
"K. c #2A2A32",
"L. c #212129",
"P. c #262630",
"I. c #565563",
"U. c #444351",
/* pixels */
"  . X . o . . . X o O + @ # $ % % % % % % $ & & & * * * = - ; + : > > > + , , + # # @ = $ $ < 1 1   ",
". X X X 2 3 2 . = % O + % = = = $ $ $ $ $ $ & 4 4 5 5 5 @ @ @ + + + + + 6 6 6 + = + 6 # < o   <   o ",
"$ $ 1 1 1 o 1 $ % % % @ % $ % $ $ $ 1 1 1 1 5 7 8 9 0 0 @ + + 6 + + # # + O + # @ @ @ @ # # @ % $ $ ",
"% $ 1 1 $ $ 1 $     < % = $ = $ $ $ 1 1 1 1 q 9 w e r t @ + + # # % % % % % # # @ @ % % = % = $ $ $ ",
"y o o o 1 o o o o X % % $ $ 1 $ $ 1 1 1 1 1 u i p a s d = @ @ $ % % % % $ % # O # # % $ $ $ $ 1 $ 1 ",
"o o 1 1 o o o o X X % $ 1 $ 1 $ 1 1 o o o f g h j k l z x O # = $ $ $ % $ $ % # O # % % % % $ 1 $ $ ",
"o o 1 y o o o o X o $ 1 o 1 1 1 1 c v b n m M N B V C Z A S D F c $ $ $ $ $ $ $ $ # O O % $ $ $ 1 1 ",
"1 y o o o o o X X 1 $ $ 1 1 $ 1 G H F D n J J K L P S P I n D F U G < < $ $ < < $ $ # O Y Y O % 1 1 ",
"o o o o o T T R X o $ 1 1 1 1 U E W Q ! ~ ^ / ( / / / ^ ^ ~ ! Q W E c @ $ 1 1 $ $ < 1 < $ # ) _ = < ",
"+ $ o X X o X X o o 1 1 1 $ c l x ` ' ] [ { [ [ { } [ [ { [ | ' C  .l c ) @ 1 1 $ < $ $ 1 $ # O 6 6 ",
"# O @ < X 3 ..X.o 1 $ 1 o G H F b o.( [ O.+.@.@.@.@.@.+.+.O.[ ( o.b F H G #.O o o o 1 1   < @ + _ ) ",
"% # O + + @ < . % $ 1 1 U E l $.%.~ [ &.+.+.*.*.+.+.+.*.*.+.O.=.-.%.$.l E U ) ) $ 1 1 $ $ % # @ @ @ ",
"$ $ % = @ + @ - 1 $ 1 H l x $.D P ~ } ;.*.*.*.*.*.*.*.*.*.*.@.=./ S D $. .l H Y Y + % @ # # # % = = ",
":.# # % % @ + + 1 o G E x b >.P ,.-.<.O.*.*.*.*.*.*.*.*.*.*.O.<.-.1.P >.b x E G _ + @ @ % % % % % % ",
"2.1 1 $ # + # @ $ G G 3.4.%.5.6.I ~ <.{ @.*.*.*.*.*.*.+.+.O.&.7.-.5.I 5.8.4.3.G G = = = $ $ $ % $ $ ",
"$ $ $ % % % % # 9.G G E 4.>.5.-.I 5./ <.[ &.@.*.*.*.+.+.&.{ =.-.5.6.-.5.>.4.E G G @ % % % $ $ 1 $ $ ",
"$ 1 1 % @ % = % # G G 3.4.%.I 6.I I 5.~ / [ O.+.*.*.*.O.[ ^ ~ 6.5.5.5.I %.4.3.G G 6 # $ $ $ $ o 0.0.",
"o 1 $ % = < $ # @ G G E 4.%.I -.I 1.1.I 5.<.&.@.+.+.O.&.| 6.I I I 5.-.I 8.4.E G G % # # % 1 1 1 1 1 ",
"$ $ $ $ $ < < % + G G 3.4.>.6.-.I I 1.q.5./ <.[ [ &.[ <.~ I ,.q.5.I -.5.>.w.E G G % % # % 1 o 1 R R ",
"$ $ $ $ $ = % + @ G G 3.4.>.I -.I 1.q.q.5.5./ / ( / / ~ 5.I 1.I I I -.5.>.w.3.G G % % $ $ $ $ 1 1 1 ",
"1 $ $ 1 1 < @ _ < G G E x D e.1.1.I I I 1.5.I 1.5.5.5.5.5.I 1.5.I 1.1.P D x E G G $ % % $ $ $ $ $ $ ",
"o 1 1 1 < % O Y # G G U l w.b %.,.I 5.I I 1.I 1.q.q.q.,.1.5.5.I I e.%.b w.l U G G = $ $ $ 1 1 $ 1 1 ",
"o o o $ # ) _ Y ) G G G U z F b o.I -.I 1.I 1.1.q.q.,.I I 5.I 5.5.>.r.F z H G G G # % $ 1 1 1 o 1 1 ",
"$ % % # + + # # # G G G G G E  .D P 1.I I 1.1.I I 5.I 5.1.I 5.5.5.8.4.3.G G G G G O ) % 1 1 1 X 1 1 ",
"+ + @ @ @ @ @ @ @ G G G G G c l w.b >.e.I -.-.I 5.I I I 5.I -.6.I %. .H G G G G G = 6 #.O = % # O O ",
"O # @ @ @ @ % % % G G G G G G U z F b S I 6.-.5.-.5.-.-.-.-.6.^ 5.%. .U G G G G G = + _ ) O O O + + ",
"+ # @ % % % % = % G G G G G G G G 3. .D P 1.1.,.,.,.,.,.,.q.,.q.e.D x H G G G G G = % O 6 6 6 O + + ",
"@ @ @ @ % = = = = G G G G G G G G G z w.b D D b b D b b D r.D D b $.W U G G G G G = # # # # + + + + ",
"% @ # @ % $ $ = = G G G G G G G G G U W F F F F F F F F F F F F W z E c G G G G G + O + + # # + + + ",
"@ @ # @ % $ $ < = c G G G G G G G c c c U c U c U c U c c U U U H U c G G G G G G O O + O + # # @ @ ",
"@ % % % @ % $ 1 $ s t.s y.c G U 3.z H G G G G G G G G G G G G H 3.3.U c c u.s t.s O O # O # % # @ @ ",
"% = $ = @ # = G u.i.p.a.s.d U W d.Q F U G G G G G G G G G G H f.w. .l c d s.a.p.i.u.G O O # % # @ @ ",
"% % % % % $ G G t.p.p g.h.u.H F b D $.z G G G G G G G G G G z Q D b F H j.h.g.p p.t.c G # # # # % % ",
"% % % % $ $ u.s a k.l.z.p.j.U v C D C F z z x.x.x.x.z 3.3.z F C D r.v H j.c.v.l.k.i.s y.@ % % % % % ",
"$ $ $ $ G s b.c.k.z.i n.p.s c 3.F  .$.$.Q ` m.M.m.` $.w.w.$.$.w.d.F E c j.p.n.N.z.k.c.b.s c % % % % ",
"$ $ $ G c t.c.p l.B.V.v.c.j.G G U z  .r.! ] 7.C.| Z.o.S S >.b  .z U G G j.c.v.B.V.l.p c.s G G # % % ",
"$ $ $ G G A.S.n.B.i z.k.i.y.G G G U F D -.=.;.D.O.( 5.5.6.5.8.F U G G G u.i.k.z.V.B.n.S.A.G G % % % ",
"$ $ $ G c A.S.w N.F.S.i.t.d G G G c F D 5.G.;.+.;.=.-.-.-.5.D F c G G G d t.i.S.v.V.w S.s.G G $ $ $ ",
"$ $ 1 G G t.S.n.v.S.s.u.c c G G G U F D 5.[ O.@.O.<.-.5.6.H.D x U G G G G c u.s.S.z.n.S.s.c G $ $ $ ",
"1 1 1 G c s.r p g.a u.G G G G G U z w.%.~ =.&.O.} / 5.5.q.q.8.w.z U G G G G G u.a k.p r t.G G $ $ $ ",
"1 1 1 1 G s i.c.a t.c G G G c 3.f.Q J.] 7.} { [ <./ 5.q.5.,.S b w.v E c G G G c A.a a.i.s G O $ 1 1 ",
"$ 1 1 1 o o s s j.d G G G G U v C ! ( [ &.{ <./ -.5.5.5.5.5.,.P %.C v H G G G G d j.s s $ % _ + $ 1 ",
"o o o X X X G G G G G G G G H x 8.5.=.O.@.&.<.-.1.H.q.5.q.5.5.I n 8. .H G G G G G G G G $ = _ _ @   ",
"% % % % $ % # G G G G G G G E  .%.~ } @.@.&./ H.q.q.5.H.5.q.6.-.5.%. .H G G G G G G G % $ = _ K.#.@ ",
"+ + # # # + ) _ Y K.9.L.G G H x 8.-.} O.D.{ | 5.q.q.q.5.5.H.-.6.5.8. .H G G $ $ $ % $ $ $ # Y K.P.+ ",
"$ $ $ < < $ = % % % % O # G H x D ~ =.@.@.O.^ 5.q.q.5.q.H.5.I -.n 8. .H G 1 1 $ $ $ $ $ # ) ) + + $ ",
"$ < < < 1 1 < < $ % % # _ 6 H x 8.-.} O.@.&./ -.q.q.H.5.5.H.5.-.n 8. .H o o     1 $ = @ + O % $ $ < ",
"< 1 1 1 1 1     $ $ $ % K._ 6 ) O + 6 + + + > : : =   2 3 X R R X o $ @ # @ @ % % % @ @ % $ < @ $ = ",
"1         o o   0.1 1 # ) + @ % # # + O 6 6 + > : > : ; < I.U.< @ @ + + + + 6 6 + % @ % = = = = < < ",
"1         o o   1 1 1 @ 6 # % % % = % @ @ @ @ @ @ : : : @ 2 @ : @ @ + + + + 6 6 + % % = $ = $ $ < < "
};
