/* XPM */
static char *result[] = {
/* columns rows colors chars-per-pixel */
"50 50 236 2 ",
"   c #474751",
".  c #4B4B55",
"X  c #4C4C56",
"o  c #494953",
"O  c #37373F",
"+  c #373741",
"@  c #3A3A44",
"#  c #383840",
"$  c #414149",
"%  c #3F3F47",
"&  c #FEA400",
"*  c #FFA900",
"=  c #3E3E48",
"-  c #3F3E4C",
";  c #3B3A48",
":  c #383745",
">  c #373644",
",  c #343341",
"<  c #43434D",
"1  c #44444C",
"2  c #4E4E58",
"3  c #51515B",
"4  c #FA9F00",
"5  c #F39A00",
"6  c #31313D",
"7  c #EB9500",
"8  c #DC8A00",
"9  c #CB8300",
"0  c #BD7401",
"q  c #AE7100",
"w  c #E58C00",
"e  c #D17A01",
"r  c #B17200",
"t  c #865301",
"y  c #654300",
"u  c #593B00",
"i  c #48494E",
"p  c #C87601",
"a  c #884F00",
"s  c #533200",
"d  c #2A1601",
"f  c #1C0C02",
"g  c #C34C13",
"h  c #AE4D0E",
"j  c #913013",
"k  c #541C0C",
"l  c #32040D",
"z  c #2C020C",
"x  c #4B0514",
"c  c #0B0303",
"v  c #3C0411",
"b  c #7B0A21",
"n  c #AC112D",
"m  c #BB2325",
"M  c #B1351B",
"N  c #9A3017",
"B  c #7B131D",
"V  c #6B091D",
"C  c #6C051F",
"Z  c #890625",
"A  c #9C0D2A",
"S  c #840B24",
"D  c #430412",
"F  c #010100",
"G  c #1B0207",
"H  c #B10F30",
"J  c #BC1434",
"K  c #B61A2C",
"L  c #A6172B",
"P  c #A40E2C",
"I  c #B51333",
"U  c #2C2C36",
"Y  c #4C4D52",
"T  c #4B4C51",
"R  c #23030A",
"E  c #370712",
"W  c #640A1C",
"Q  c #951A33",
"!  c #BC1A3B",
"~  c #C21B3D",
"^  c #95132D",
"/  c #313139",
"(  c #2E2E38",
")  c #530616",
"_  c #720A21",
"`  c #881832",
"'  c #B32543",
"]  c #C72F4E",
"[  c #D32C50",
"{  c #CD2C4D",
"}  c #D52A4D",
"|  c #520418",
" . c #53535D",
".. c #55555F",
"X. c #9C122E",
"o. c #D63758",
"O. c #D43C5C",
"+. c #B5203E",
"@. c #2B2B35",
"#. c #2C0809",
"$. c #4D0B15",
"%. c #950D29",
"&. c #A41E39",
"*. c #AD2A45",
"=. c #B2344E",
"-. c #B33650",
";. c #A52E47",
":. c #5C0819",
">. c #5A0717",
",. c #5B1422",
"<. c #641D2C",
"1. c #67202F",
"2. c #6B2131",
"3. c #68202F",
"4. c #56101E",
"5. c #3C3D42",
"6. c #3B050F",
"7. c #1C0409",
"8. c #220A0F",
"9. c #260B11",
"0. c #63061B",
"q. c #404146",
"w. c #3A0B15",
"e. c #1E0A0E",
"r. c #26262E",
"t. c #651222",
"y. c #5D1D2A",
"u. c #5C1A27",
"i. c #681122",
"p. c #140206",
"a. c #912A3F",
"s. c #AC334C",
"d. c #44454A",
"f. c #150509",
"g. c #310F16",
"h. c #6D1B2D",
"j. c #9E2C44",
"k. c #BE3955",
"l. c #D94161",
"z. c #D3405F",
"x. c #C63B58",
"c. c #4A1722",
"v. c #7C2738",
"b. c #932D42",
"n. c #A53149",
"m. c #82273A",
"M. c #2A0C13",
"N. c #0C0800",
"B. c #511924",
"V. c #892A3D",
"C. c #752334",
"Z. c #43141E",
"A. c #BB3652",
"S. c #1F0B10",
"D. c #4D101F",
"F. c #97203C",
"G. c #B12A46",
"H. c #A21A36",
"J. c #4A0A19",
"K. c #8C1524",
"L. c #A51738",
"P. c #76162B",
"I. c #920D27",
"U. c #B2361A",
"Y. c #862A14",
"T. c #3E130A",
"R. c #5C0619",
"E. c #5E3203",
"W. c #AD570A",
"Q. c #CA660B",
"!. c #984B0A",
"~. c #462503",
"^. c #8D0D26",
"/. c #231400",
"(. c #A66301",
"). c #4C3100",
"_. c #6B4200",
"`. c #1D1200",
"'. c #6E4A00",
"]. c #E79600",
"[. c #734B00",
"{. c #C37B00",
"}. c #A66A00",
"|. c #241900",
" X c #2B1A00",
".X c #311C00",
"XX c #703806",
"oX c #9E5F03",
"OX c #7A5000",
"+X c #362400",
"@X c #452A00",
"#X c #643A00",
"$X c #712411",
"%X c #691118",
"&X c #610F24",
"*X c #6B2311",
"=X c #693606",
"-X c #3B2B00",
";X c #171300",
":X c #623702",
">X c #4C2D00",
",X c #965700",
"<X c #9D2220",
"1X c #42160A",
"2X c #881028",
"3X c #8D5200",
"4X c #6A3C01",
"5X c #BB6D00",
"6X c #AE6800",
"7X c #B56D00",
"8X c #DB8301",
"9X c #CC7C00",
"0X c #710A1E",
"qX c #864F00",
"wX c #D58100",
"eX c #AC0F2E",
"rX c #784F00",
"tX c #B06600",
"yX c #F09400",
"uX c #C42343",
"iX c #714300",
"pX c #EE8E00",
"aX c #CA1B3E",
"sX c #D02446",
"dX c #AD6500",
"fX c #BF1738",
"gX c #130C00",
"hX c #2A2A32",
"jX c #212129",
"kX c #8E2C41",
"lX c #262630",
"zX c #AF1333",
"xX c #DC3A5B",
"cX c #E74365",
"vX c #565563",
"bX c #444351",
/* pixels */
"  . X . o . . . X o O + @ # $ % % % % % % $ & & & * * * = - ; + : > > > + , , + # # @ = $ $ < 1 1   ",
". X X X 2 3 2 . = % O + % = = = $ $ $ $ $ $ & 4 4 5 5 5 @ @ @ + + + + + 6 6 6 + = + 6 # < o   <   o ",
"$ $ 1 1 1 o 1 $ % % % @ % $ % $ $ $ 1 1 1 1 7 7 8 9 0 q @ + + 6 + + # # + O + # @ @ @ @ # # @ % $ $ ",
"% $ 1 1 $ $ 1 $     < % = $ = $ $ $ 1 1 1 1 w e r t y u @ + + # # % % % % % # # @ @ % % = % = $ $ $ ",
"i o o o 1 o o o o X % % $ $ 1 $ $ 1 1 1 1 1 e p a s d f = @ @ $ % % % % $ % # O # # % $ $ $ $ 1 $ 1 ",
"o o 1 1 o o o o X X % $ 1 $ 1 $ 1 1 o o o g g h j k l z x O # = $ $ $ % $ $ % # O # % % % % $ 1 $ $ ",
"o o 1 i o o o o X o $ 1 o 1 1 1 1 c v b n m M M N B V C Z A S D c $ $ $ $ $ $ $ $ # O O % $ $ $ 1 1 ",
"1 i o o o o o X X 1 $ $ 1 1 $ 1 F G D S H J K K L L A P I n S D G F < < $ $ < < $ $ # O U U O % 1 1 ",
"o o o o o Y Y T X o $ 1 1 1 1 G R E W Q ! ~ ~ ! ~ ~ ~ ~ ~ ! ^ W E R G @ $ 1 1 $ $ < 1 < $ # / ( = < ",
"+ $ o X X o X X o o 1 1 1 $ c l ) _ ` ' ] [ [ { } } [ [ [ } ' Q _ | z c / @ 1 1 $ < $ $ 1 $ # O 6 6 ",
"# O @ < X 3  ...o 1 $ 1 o F G x B X.! ] o.O.O.o.o.O.o.O.O.o.] +.X.b D G F @.O o o o 1 1   < @ + ( / ",
"% # O + + @ < . % $ 1 1 G G #.$.b %.&.*.=.-.-.-.=.=.-.-.-.=.;.&.%.B $.l G G / / $ 1 1 $ $ % # @ @ @ ",
"$ $ % = @ + @ - 1 $ 1 G v ) :.>.>.:.,.<.1.2.1.1.1.1.1.1.3.3.<.4.:.) :.>.) v G U U + % @ # # # % = = ",
"5.# # % % @ + + 1 o F R ) b S W 6.7.G 8.9.9.9.9.9.9.9.9.9.9.8.R R 6.0.S b | R F ( + @ @ % % % % % % ",
"q.1 1 $ # + # @ $ F F G $.b S V w.9.e.8.e.e.8.e.8.e.e.8.8.e.8.e.9.w.W S b $.G F F = = = $ $ $ % $ $ ",
"$ $ $ % % % % # r.F F c l x W t.<.<.<.y.u.u.1.<.<.1.y.1.y.u.u.1.1.<.i.W $.l c F F @ % % % $ $ 1 $ $ ",
"$ 1 1 % @ % = % # F F F p.G E <.a.s.=.s.s.s.s.s.s.s.s.s.s.s.s.=.s.a.<.w.G p.F F F 6 # $ $ $ $ o d.d.",
"o 1 $ % = < $ # @ F F F F f.g.h.j.k.O.l.z.z.x.x.k.k.k.x.O.z.z.O.k.j.<.g.p.c F F F % # # % 1 1 1 1 1 ",
"$ $ $ $ $ < < % + F F c 9.c.y.3.v.b.=.z.l.x.n.a.m.m.a.n.x.z.z.=.a.v.2.y.c.M.N.F F % % # % 1 o 1 T T ",
"$ $ $ $ $ = % + @ F F e.B.V.b.C.B.B.v.-.x.s.2.Z.g.g.Z.2.n.z.A.v.B.B.C.a.m.B.S.F F % % $ $ $ $ 1 1 1 ",
"1 $ $ 1 1 < @ ( < F F 9.h.s.=.C.M.9.u.;.A.a.c.c F F f.Z.a.k.;.u.8.g.C.=.s.h.9.F F $ % % $ $ $ $ $ $ ",
"o 1 1 1 < % O U # F F 9.h.*.' h.8.f.D.j.' ` w.F F F F w.` *.F.D.f.#.h.G.' h.9.F F = $ $ $ 1 1 $ 1 1 ",
"o o o $ # / ( U / F F 8.t.H.H.t.R p.J.K.L.P.E F F F F v P.L.` J.p.8.i.H.Q i.R F F # % $ 1 1 1 o 1 1 ",
"$ % % # + + # # # F F R :.%.%.0.R 7.$.K.L b E c F F c 6.B L K.$.G R 0.%.^ 0.G F F O / % 1 1 1 X 1 1 ",
"+ + @ @ @ @ @ @ @ F F R >.I.A 0.8.f k N U.Y.T.c F F c T.Y.U.N k 7.R 0.%.%.R.R F F = 6 @.O = % # O O ",
"O # @ @ @ @ % % % F F R 0.%.A 0.R e.E.W.Q.!.~.c F F c ~.!.Q.W.E.f z 0.%.I.0.R F F = + ( / O O O + + ",
"+ # @ % % % % = % F F R ) ^.^.R.R /.y 0 8 (.).N.F F c ).(.8 0 _./.R | ^.^.>.R F F = % O 6 6 6 O + + ",
"@ @ @ @ % = = = = F F G D W W v p.`.'.9 ].q ).N.F F N.s q ].9 '.`.f.v _ V v p.F F = # # # # + + + + ",
"% @ # @ % $ $ = = F F F 7.z l 7.F `.[.9 ].r u N.F F N.s q ].9 [.`.F 7.E l R F F F + O + + # # + + + ",
"@ @ # @ % $ $ < = F F c c p.p.F F /.'.{.8 }.).N.F F N.).}.8 {.'./.F F p.c c c c F O O + O + # # @ @ ",
"@ % % % @ % $ 1 $ |. X.X#.#.z R z T.XXoX}.OX+Xc F F c +XOX}.oXXXT.G c F F f |.d d O O # O # % # @ @ ",
"% = $ = @ # = F `.@X#XXX$X%XC C &XW *X=Xu -X;XF F F F ;X-Xu =X*X%X| z c N.+Xu :X>X`.F O O # % # @ @ ",
"% % % % % $ F c  Xu ,XW.U.<X%.P P ^.V 1X/.p.c F F F F N.N./.1X_ 2Xb D 7.`.u 3X,X4X XF F # # # # % % ",
"% % % % $ $ f  X>Xt 5XQ.h <X%.P H P B D R 7.M.M.g.g.g.9.R z x b P %.| G |._.6X5X3X>X Xf @ % % % % % ",
"$ $ $ $ F |.~.#Xt 7X8X9Xh $XV S P H %.0X&X&Xh.C.v.v.C.h.&XR.0XA H %.| G |.[.{.8Xr qX:X@X|.F % % % % ",
"$ $ $ F c  X#X,X5X8 7 wXt 1Xl | I.eXeXP A L.G.A.k.k.A.G.&.A P eXeX^.x G  XrX9X7 w 5X,X:X Xc F # % % ",
"$ $ $ F c  X4XtX8XyXyX9 [. Xp.v V %.P eXI uX{ o.z.O.o.{ uXJ H P %._ E p.d rX9X7 yXe tX_. Xc F % % % ",
"$ $ $ F c  XiX7X8XpXw 0 '.|.F f.v 0.S n J aXsX} [ [ } sXaXJ P S V v 7.p. X[.p w pX8X7XiX.Xc F $ $ $ ",
"$ $ 1 F c .X'.dXe e 9X}.#X/.F F p.l 0.I.I J ~ fX~ ~ fXJ J I I.:.z p.F F |.#XdXe e e 6XiX XF F $ $ $ ",
"1 1 1 F F  X#X,XdXtXW.a s /.F F F p.v 0XI.%.A %.%.%.%.X.%.%.0Xv p.F F F f s a (.7XtX,X4X Xc F $ $ $ ",
"1 1 1 1 c |.@X:X4X4X#Xs .XgXF F F F G v >.:.:.:.:.:.:.:.:.>.v 7.F F F F gX.Xs #X4X4XE.>X|.F O $ 1 1 ",
"$ 1 1 1 o o /. Xd  Xd |.gXc F F F F c G R R R R z R R R R 7.G c F F F F F gX/. Xd d d |.$ % ( + $ 1 ",
"o o o X X X F F F F F F F F F c p.p.7.7.7.e.N.F F F F c p.e.7.7.G c c F F F F F F F c F $ = ( ( @   ",
"% % % % $ % # F F F F F F F c R E $.4.,.B.w.S.F F F F e.Z.B.u.,.$.v R c F F F F F F F % $ = ( hX@.@ ",
"+ + # # # + / ( U hXr.jXF F p.6.V S Q j.j.kX1 o d.i T o kXj.;.Q 2XV 6.p.F F $ $ $ % $ $ $ # U hXlX+ ",
"$ $ $ < < $ = % % % % O # F G x S zXuXo.O.z.    . . o o z.O.] uXzXS x G F 1 1 $ $ $ $ $ # / / + + $ ",
"$ < < < 1 1 < < $ % % # ( 6 G ) I.~ } xXcX= < =     . X X cXxX} ~ I.x G o o     1 $ = @ + O % $ $ < ",
"< 1 1 1 1 1     $ $ $ % hX( 6 / O + 6 + + + > : : =   2 3 X T T X o $ @ # @ @ % % % @ @ % $ < @ $ = ",
"1         o o   d.1 1 # / + @ % # # + O 6 6 + > : > : ; < vXbX< @ @ + + + + 6 6 + % @ % = = = = < < ",
"1         o o   1 1 1 @ 6 # % % % = % @ @ @ @ @ @ : : : @ 2 @ : @ @ + + + + 6 6 + % % = $ = $ $ < < "
};
