/* XPM */
static char *result[] = {
/* columns rows colors chars-per-pixel */
"50 50 241 2 ",
"   c #474751",
".  c #4B4B55",
"X  c #4C4C56",
"o  c #494953",
"O  c #37373F",
"+  c #373741",
"@  c #3A3A44",
"#  c #383840",
"$  c #414149",
"%  c #3F3F47",
"&  c #FFA300",
"*  c #FFA900",
"=  c #383745",
"-  c #373644",
";  c #343341",
":  c #3E3E48",
">  c #43434D",
",  c #44444C",
"<  c #4E4E58",
"1  c #51515B",
"2  c #FB9F00",
"3  c #F49A00",
"4  c #31313D",
"5  c #EB9300",
"6  c #DC8A00",
"7  c #CD8300",
"8  c #B47300",
"9  c #E38C00",
"0  c #D48400",
"q  c #8C5B00",
"w  c #6B4300",
"e  c #5B3B00",
"r  c #48494E",
"t  c #D37D00",
"y  c #BD6D00",
"u  c #975A01",
"i  c #2C1B01",
"p  c #180D01",
"a  c #C95916",
"s  c #B74B14",
"d  c #8F400D",
"f  c #5E2709",
"g  c #330A0B",
"h  c #32040E",
"j  c #430512",
"k  c #130408",
"l  c #521925",
"z  c #9B3147",
"x  c #DB4362",
"c  c #E9466A",
"v  c #D54045",
"b  c #C63C2D",
"n  c #AE301F",
"m  c #9C281B",
"M  c #7F161D",
"N  c #6E0520",
"B  c #840C24",
"V  c #A40E2C",
"C  c #8C0D26",
"Z  c #4C0614",
"A  c #140205",
"S  c #020000",
"D  c #1C090D",
"F  c #A23047",
"G  c #D43B5B",
"H  c #C6334E",
"J  c #BF273A",
"K  c #B61C2D",
"L  c #AD112E",
"P  c #A2112B",
"I  c #AD0D30",
"U  c #AB0F2E",
"Y  c #4A0C19",
"T  c #1C0309",
"R  c #2C2C36",
"E  c #4C4D52",
"W  c #4B4C51",
"Q  c #2B0C12",
"!  c #45151F",
"~  c #741F31",
"^  c #AC2C46",
"/  c #CC3352",
"(  c #BC3752",
")  c #AE314B",
"_  c #B01B39",
"`  c #B31131",
"'  c #B50F30",
"]  c #BB1233",
"[  c #B0102F",
"{  c #950D28",
"}  c #64091B",
"|  c #39040F",
" . c #23030A",
".. c #313139",
"X. c #2E2E38",
"o. c #491722",
"O. c #6C1C2C",
"+. c #822639",
"@. c #9B2E45",
"#. c #BD2443",
"$. c #C32444",
"%. c #A6253F",
"&. c #721C2F",
"*. c #78162A",
"=. c #9A1732",
"-. c #6B0A1D",
";. c #510716",
":. c #53535D",
">. c #55555F",
",. c #5B1826",
"<. c #932C42",
"1. c #B8334E",
"2. c #A81B37",
"3. c #7A1125",
"4. c #320D15",
"5. c #9B0E2A",
"6. c #B42B47",
"7. c #A31A36",
"8. c #0B0203",
"9. c #730A1F",
"0. c #B20F2F",
"q. c #3F3E4C",
"w. c #2E1016",
"e. c #69202F",
"r. c #5C091A",
"t. c #B80F32",
"y. c #1A0207",
"u. c #3C3D42",
"i. c #260B11",
"p. c #404146",
"a. c #910D27",
"s. c #B91838",
"d. c #BA1738",
"f. c #61071A",
"g. c #26262E",
"h. c #580718",
"j. c #C11C3D",
"k. c #CB294A",
"l. c #D32447",
"z. c #760A20",
"x. c #CB2547",
"c. c #5A0619",
"v. c #44454A",
"b. c #55101E",
"n. c #93112A",
"m. c #7C0B21",
"M. c #C52B4A",
"N. c #CE3C5B",
"B. c #D6405F",
"V. c #C83A57",
"C. c #24090F",
"Z. c #651424",
"A. c #AB1D3B",
"S. c #AC1532",
"D. c #550817",
"F. c #87152C",
"G. c #CC405D",
"H. c #AE3850",
"J. c #88273B",
"K. c #912138",
"L. c #2B030C",
"P. c #3C0511",
"I. c #B1314B",
"U. c #7E2235",
"Y. c #391019",
"T. c #C11134",
"R. c #7A1D30",
"E. c #A72943",
"W. c #6C1025",
"Q. c #250711",
"!. c #2D080F",
"~. c #130C00",
"^. c #370011",
"/. c #71121A",
"(. c #6D1F12",
"). c #4B3000",
"_. c #2B2000",
"`. c #4C160D",
"'. c #753809",
"]. c #976300",
"[. c #624200",
"{. c #311406",
"}. c #7C4B01",
"|. c #BC7300",
" X c #D38900",
".X c #3C2800",
"XX c #0D0900",
"oX c #241900",
"OX c #7C5300",
"+X c #E69400",
"@X c #A46900",
"#X c #442B00",
"$X c #550518",
"%X c #1D1100",
"&X c #1F1900",
"*X c #9B6200",
"=X c #663D00",
"-X c #5C3600",
";X c #362200",
":X c #341F00",
">X c #714200",
",X c #9B5B00",
"<X c #8E5300",
"1X c #533300",
"2X c #903E0B",
"3X c #CB6A0C",
"4X c #904E07",
"5X c #B66A00",
"6X c #241600",
"7X c #7C2F10",
"8X c #C27100",
"9X c #A15E00",
"0X c #A51D26",
"qX c #4A2D00",
"wX c #DE8500",
"eX c #955600",
"rX c #E18700",
"tX c #CA7600",
"yX c #F29400",
"uX c #402700",
"iX c #865100",
"pX c #D17703",
"aX c #B16700",
"sX c #C06F01",
"dX c #171000",
"fX c #3B2401",
"gX c #824B00",
"hX c #6C3F00",
"jX c #641D2C",
"kX c #4A0815",
"lX c #2A2A32",
"zX c #212129",
"xX c #1C1C24",
"cX c #461620",
"vX c #6C2130",
"bX c #2B2B35",
"nX c #262630",
"mX c #D83354",
"MX c #3B3A48",
"NX c #565563",
"BX c #444351",
/* pixels */
"  . X . o . . . X o O + @ # $ % % % % % % $ % % @ & & & * * * + = - - - + ; ; + # # @ : $ $ > , ,   ",
". X X X < 1 < . : % O + % : : : $ $ $ $ $ $ $ $ $ & 2 & 3 3 3 + + + + + 4 4 4 + : + 4 # > o   >   o ",
"$ $ , , , o , $ % % % @ % $ % $ $ $ , , , , , $ > 3 5 6 7 8 8 4 + + # # + O + # @ @ @ @ # # @ % $ $ ",
"% $ , , $ $ , $     > % : $ : $ $ $ , , , , , $ , 9 0 8 q w e # # % % % % % # # @ @ % % : % : $ $ $ ",
"r o o o , o o o o X % % $ $ , $ $ , , , , , , , $ t y u e i p $ % % % % $ % # O # # % $ $ $ $ , $ , ",
"o o , , o o o o X X % $ , $ , $ , , o o o o o , , a s d f g h j $ $ $ % $ $ % # O # % % % % $ , $ $ ",
"o o , r o o o o X o $ , o , , , , k l z x c c c v b n m M N N B V C Z A $ $ $ $ $ # O O % $ $ $ , , ",
", r o o o o o X X , $ $ , , $ , S D l F x x c G H J K L P V V I U C Y T S $ > > $ $ # O R R O % , , ",
"o o o o o E E W X o $ , , , , D Q ! ~ ^ / / ( ) ^ _ ` ' ' ` ] ] [ { } |  .A , $ $ > , > $ # ..X.: > ",
"+ $ o X X o X X o o , , , $ D o.O.+.@.#.$.%.+.&.*.=.I ' ' ' ] ' [ V B -.;.h A , $ > $ $ , $ # O 4 4 ",
"# O @ > X 1 :.>.o , $ , o S D ,.<.1.$.J 2.3.Y 4.Y B V ] ` ` ' ` [ [ U 5.B ;.T S o o , ,   > @ + X...",
"% # O + + @ > . % $ , , S S D l <.) 6.7.B ;. .8.| 9.L ` ] [ ` 0.0.0.] [ { } |  .A , , $ $ % # @ @ @ ",
"$ $ % : @ + @ q., $ , S S S 8.w.l e.O.r.Z  .8.S h 9.U ] ] ` [ 0.0.0.' t.V C } Z | y.% @ # # # % : : ",
"u.# # % % @ + + , o S S S S S A D i.i. .T 8.S 8.| 9.U ] ' 0.[ ` [ 0.` [ U P 5.B ;. .S @ % % % % % % ",
"p., , $ # + # @ $ S S S 8.A y.y.y.y.y.y.y.A y. .j -.a.V L ` ` ] s.s.d.d.] d.] { f. .S S $ $ $ % $ $ ",
"$ $ $ % % % % # g.S S 8. .j ;.;.;.Z ;.;.;.;.;.;.;.h.r.9.{ ` d.j.$.k.k.k.l.j.d.5.f. .S S % $ $ , $ $ ",
"$ , , % @ % : % # S S y.j z.C a.C C a.C C a.a.B } j h Z 9.U j.x./ G G G / x.d.5.c. .S S $ $ $ o v.v.",
"o , $ % : > $ # @ S S y.b.n.` I V 5.5.5.5.U L V m.j  .| } { _ M.N.B.G V.H $.s.5.r. .S S % , , , , , ",
"$ $ $ $ $ > > % + S S C.Z.A.J 2.B 9.-.-.z.C U S.{ } Y Z D.-.F.6.N.G.H.<.J.7.S.5.f. .S S % , o , W W ",
"$ $ $ $ $ : % + @ S S i.O.^ 1.K.b.h  .L.| } C V L 5.B } j P.,.K.G.( +.l Y 3.P 5.} L.S S $ $ $ , , , ",
", $ $ , , > @ X.> S S i.&.I.1.U.4.S S S A j B L ] ` U 9.P.D Y.+.1.I.O.i.T h.B C r. .S S $ $ $ $ $ $ ",
"o , , , > % O R # S S C.O.^ ^ *.i.S S S 8.P.m.L T.T.0.m.| A Q R.6.E.,.y.8.h h.f.j y.S S $ , , $ , , ",
"o o o $ # ..X.R ..S S C.Z.7.7.W.Q.S S S 8.P.m.P ] T.U m.P.A !.*.7.=.b.y.S A L.L.T 8.S S , , , o , , ",
"$ % % # + + # # # S S T D.C n.-.g ~.S S A j B L ] ] U M P.A  .f.n.C h.y.S S S S S S S S , , , X , , ",
"+ + @ @ @ @ @ @ @ S S A ^.} /.(.f )._.~.A j B S.T.T.0.B | A y.j } c.h A S S S S S S S S O : % # O O ",
"O # @ @ @ @ % % % S S 8.A L.`.'.u ].[.i A j m.I T.T.0.B j A 8.y.L.L.y.8.S S S S S S S S ..O O O + + ",
"+ # @ % % % % : % S S S S S {.}.|. Xq .XA ^.z.V 0.0.V 9.P.A S S ~.A XXS S S 8.8.S S S S 4 4 4 O + + ",
"@ @ @ @ % : : : : S S S S S oXOX X+X@X#XA  .$Xz.B B 9.$XL.S XX%Xi oX~.8.S y.L.L.y.8.S S # # + + + + ",
"% @ # @ % $ $ : : S S S S S &XOX X+X*X).XX8.L.P.j j ^.Q.8.S ~.#X=X-X;X~.A ^.c.r.j y.S S + # # + + + ",
"@ @ # @ % $ $ > : S S S S S oX}.7 6 ].#XXXS 8.8.A y.A 8.8.XX:X>X,X<X1X%Xy.;.B C h. .S S O + # # @ @ ",
"@ % % % @ % $ , $ S S S 8. .`.2X3X3X4X.XS S S S XXoX;X.X.X#X=Xu 5X,X1X6X .r.5.5.}  .S S O # % # @ @ ",
"% : $ : @ # : , > S S A ^.c.M n b s 7X{.S S S XX_.[.q ].*X*X@Xy 8X9X1Xp  .c.{ 5.}  .S S O # % # @ @ ",
"% % % % % $ $ % > S S T Z B 5.K K 0X9.g 8.S S XXqXu  X+X+X9 wXwX8XeX1X%X .c.a.{ } L.S S # # # # % % ",
"% % % % $ $ $ % >   S y.Z 9.a.U I V 9.Z L.8.S ~.1X@X+X& 2 2 5 rXtXu 1X%Xy.c.{ V m.j C.y.@ % % % % % ",
"$ $ $ $ $ $ $ $ $ , , y.h Z } B V I 5.B r.^.A p qX*XwXyXyX9 rXrXtX,X1X%X .c.5.U { z.c.j  .S % % % % ",
"$ $ $ $ $ $ $ $ > > > . 8.y.h r.a.U 0.V C c. .A uXiX8Xt t tXpXtX8XeX1X%Xy.;.a.S.' V C h.L.S S # % % ",
"$ $ $ $ $ $ , , > > $ , , S y.j 9.a.5.{ B $X .~.i =XeXaXy sXy 5X9X}.uX~.A j z.5.L ` P -.L.S S % % % ",
"$ $ $ , , $ , , ,   > , > : A h Y D.} c.;.h A S dXfX-XgX9Xy aXeXhXqX6XXX8. .j -.C V V -.L.8.S $ $ $ ",
"$ $ , , , $ , , , o , , , $ $ A  . . .y.y.A 8.S 8.XXoX1XeXaX9XhX:Xp XXS S 8.y.^.-.5.5.-.L.8.S $ $ $ ",
", , , , , , , , , o , , , , $ # S S 8.D D  .T y.8.S XX:XhXeXgXqXp S 8.A y.S S y.h.C 5.-.L.S S $ $ $ ",
", , , , , , o o , , , o   , @ + S 8.D o.jXjXb.Y L.8.S dXuX-XqX6XS 8.L.j j  .8.A h.a.V -.h S S $ , , ",
"$ , , , o o o o o . o o > : + + S k o.U.F E.=.B c.L.S 8.p 6X%XXXS y.Z m.9.j y.y.;.C 5.-.L.8.S + $ , ",
"o o o X X X X o o , % O # + + # S D l <.( M.#.S.B kXT 8.S 8.S 8.y.h } C B Z T y.kXm.C } L.8.S X.@   ",
"% % % % $ % # O ..lXzXxXX.+ @ % % D cXvXJ.E.#.#.7.3.D.L.A S 8.L.j D.} } h.h A 8.L.;.r.kX .S X.lXbX@ ",
"+ + # # # + ..X.R lXg.zX+ @ % # # $ i.Q cX~ ^ H M.2.B c.L.8.y.Z z.z.r.P. .A S 8.A  .L.L.$ # R lXnX+ ",
"$ $ $ > > $ : % % % % O # @ % @ # % $ S D l @.N.mX$.L 9.| A L.} { C h. .S S S S S S S S # ....+ + $ ",
"$ > > > , , > > $ % % # X.4 % % % + 4 + 8.cXz G mXl.` B j A L.9.P n.h.A S S S S S S S @ + O % $ $ > ",
"> , , , , ,     $ $ $ % lXX.4 ..O + 4 + + + - = = :   < 1 X W W X o $ @ # @ @ % % % @ @ % $ > @ $ : ",
",         o o   v., , # ..+ @ % # # + O 4 4 + - = - = MX> NXBX> @ @ + + + + 4 4 + % @ % : : : : > > ",
",         o o   , , , @ 4 # % % % : % @ @ @ @ @ @ = = = @ < @ = @ @ + + + + 4 4 + % % : $ : $ $ > > "
};
