/* XPM */
static char *_5ba496543eb4059afc86cbe595d9839lnenVahRqm3EpE3g[] = {
/* columns rows colors chars-per-pixel */
"50 50 230 2 ",
"   c #47704C",
".  c #010102",
"X  c #020204",
"o  c None",
"O  c #838699",
"+  c #040509",
"@  c #030203",
"#  c #3A3D5D",
"$  c #020103",
"%  c #000002",
"&  c #0C0307",
"*  c #030103",
"=  c #000102",
"-  c #000103",
";  c #040203",
":  c #05070C",
">  c #0B0C0F",
",  c #1C1D22",
"<  c #1F0911",
"1  c #0F050B",
"2  c #030409",
"3  c #060609",
"4  c #050407",
"5  c #302E36",
"6  c #83879A",
"7  c #211016",
"8  c #888DA0",
"9  c #0F0408",
"0  c #751B32",
"q  c #3E0D18",
"w  c #050102",
"e  c #0E0306",
"r  c #020204",
"t  c #1B070B",
"y  c #000102",
"u  c #060205",
"i  c #070406",
"p  c #020204",
"a  c #000002",
"s  c #040204",
"d  c #120E0E",
"f  c #291E18",
"g  c #413025",
"h  c #1A1B21",
"j  c #1E1F24",
"k  c #828497",
"l  c #828497",
"z  c #84889A",
"x  c #48111E",
"c  c #792039",
"v  c #020103",
"b  c #060203",
"n  c #5E1629",
"m  c #1F080F",
"M  c #31181A",
"N  c #360C17",
"B  c #100A0F",
"V  c #828698",
"C  c #621527",
"Z  c #501020",
"A  c #020204",
"S  c #270C14",
"D  c #120407",
"F  c #210C0F",
"G  c #1A1615",
"H  c #1F2228",
"J  c #2B2E39",
"K  c #727787",
"L  c #4B4E59",
"P  c #25262C",
"I  c #878C9F",
"U  c #771F35",
"Y  c #828799",
"T  c #818699",
"R  c #828699",
"E  c #4A1321",
"W  c #87213A",
"Q  c #430E1B",
"!  c #801F38",
"~  c #410F1D",
"^  c #671628",
"/  c #9095A9",
"(  c #838698",
")  c #250810",
"_  c #27282E",
"`  c #842038",
"'  c #6D7281",
"]  c #8B8FA2",
"[  c #828799",
"{  c #52525E",
"}  c #280A15",
"|  c #646876",
" . c #4D3A2C",
".. c #554030",
"X. c #292F38",
"o. c #6B1E38",
"O. c #3C2D22",
"+. c #2E323D",
"@. c #5D1428",
"#. c #363C47",
"$. c #3F3024",
"%. c #3F3024",
"&. c #282424",
"*. c #7D7C9C",
"=. c #757B8B",
"-. c #7C8293",
";. c #767C8D",
":. c #84899C",
">. c #D4A077",
",. c #9CA1B7",
"<. c #2A2B33",
"1. c #370B16",
"2. c #1E060C",
"3. c #5C606D",
"4. c #CB996F",
"5. c #888DA0",
"6. c #222228",
"7. c #787E8E",
"8. c #2E0912",
"9. c #798091",
"0. c #440E1A",
"q. c #4A505D",
"w. c #551221",
"e. c #4F5A68",
"r. c #1C1715",
"t. c #251E19",
"y. c #967255",
"u. c #8E6A4E",
"i. c #5F1E29",
"p. c #C2936B",
"a. c #5C6675",
"s. c #B38461",
"d. c #9D7657",
"f. c #728C98",
"g. c #9298AC",
"h. c #979DB2",
"j. c #9FA5BB",
"k. c #B1B3CD",
"l. c #797B8B",
"z. c #110608",
"x. c #938C90",
"c. c #81273B",
"v. c #D6BB9F",
"b. c #671427",
"n. c #412329",
"m. c #AC8464",
"M. c #160D0E",
"N. c #A37B5A",
"B. c #040404",
"V. c #444957",
"C. c #26262D",
"Z. c #0E1113",
"A. c #4F5462",
"S. c #5F707F",
"D. c #51545F",
"F. c #7D7E8A",
"G. c #7E8596",
"H. c #94837C",
"J. c #510F1F",
"K. c #AD9589",
"L. c #80828F",
"P. c #8D878D",
"I. c #687083",
"U. c #443A42",
"Y. c #6C172A",
"T. c #84667A",
"R. c #4B3729",
"E. c #C09881",
"W. c #D9A57A",
"Q. c #BB9071",
"!. c #DDAE86",
"~. c #EEC9AA",
"^. c #F1CFB3",
"/. c #973944",
"(. c #CAA081",
"). c #E8C9B4",
"_. c #D7A393",
"`. c #6C6262",
"'. c #365541",
"]. c #66252F",
"[. c #70788B",
"{. c #215645",
"}. c #3C424F",
"|. c #1D493B",
" X c #2F614D",
".X c #78523E",
"XX c #35695D",
"oX c #453226",
"OX c #141C1D",
"+X c #353028",
"@X c #808CA3",
"#X c #867876",
"$X c #BB8D66",
"%X c #438574",
"&X c #31251D",
"*X c #498E7D",
"=X c #6F523C",
"-X c #A8ADC4",
";X c #5C1223",
":X c #A08E86",
">X c #9B8C88",
",X c #542D3B",
"<X c #783738",
"1X c #592E3E",
"2X c #D19878",
"3X c #903B48",
"4X c #6B5D51",
"5X c #7C7482",
"6X c #766070",
"7X c #642F42",
"8X c #7E4443",
"9X c #56412F",
"0X c #A2604F",
"qX c #396C54",
"wX c #E2C2AA",
"eX c #A19AB0",
"rX c #C79074",
"tX c #C7C8CA",
"yX c #E1B48E",
"uX c #E6DDD9",
"iX c #796E6C",
"pX c #183B2F",
"aX c #9C7054",
"sX c #1C4436",
"dX c #586F7A",
"fX c #816147",
"gX c #5F7983",
"hX c #918484",
"jX c #7E706D",
"kX c #47704C",
/* pixels */
"                                                                                                    ",
"                                                                                                    ",
"                                                                                                    ",
"                                                                                                    ",
"                                                                                                    ",
"                                                                                                    ",
"                                                                                                    ",
"                                          #   # #                                                   ",
"                                        . j K 6 6 z l                                               ",
"                                      % 7 e.-.5.,.I T R l                                           ",
"                                    . , D.-.:.5.h.j.,.8 6 z k                                       ",
"                                  % , D.7.o o -.:.h.k.j.5.o Y k                                     ",
"                                . , q.;.:.g.-.-.-.:.,.k.j.5.o O                                     ",
"                                @ <.;.;.:.g.7.9.-.o G.h.,.,.8 O                                     ",
"                              X j L =.=.;.9.l.H.:X>XL.-.:.-X/ O                                     ",
"                              ; <.=.=.=.=.F.K.>.>.>.K.L.G.g.8 O                                     ",
"                              * <.;.=.=.F.H.y.u.d.W.W.`.q.I.V O                                     ",
"                              = P 3.=.;.P.y.r.U.t.(.!.t.B.3.V O                                     ",
"                                r <.=.9.x.N.4XtXA.v.wXV.Z.3.o O                                     ",
"                                = _ 3.7.x.4.yXuXk.).).eX6.3.[ (                                     ",
"                                  r C.;.P.E.!.~.^.^.~.m.t.| ]                                       ",
"                                  = H a.7.x.(.rX_._.E.n.M.{ '                                       ",
"                                  + * 5 [.9.5X]././.i.b.w.S 4 2                                     ",
"                                  p D ,X=.l.6X8X>.2X<XY.Y.w.D =                                     ",
"                                2 ; 2.1Xl.T.3XQ.v.v.Q.].b.b.t y                                     ",
"                                y F w.7XT.c.i.'. XqX'.n.i.i.t y             + & & & c               ",
"                              : ; R.0Xc.c.w.M.|.{.{.|.r.aXs.f y           : 3 b b N U               ",
"                              @ g N.s..X2.z.h a.S.S.e.6.d.p.$.@ o.1 1 1 + * w t Q 1.7 +             ",
"                              A R.p.u.r.B.OXa.@X@X[.I.A.+Xm.p.g @.N e e e w 2.~ n ^ x v :           ",
"                            p  .m.4.u.Z.sX X%X*X*X%XXXXXpX+Xs.oXZ C C Z q 2.9 < c 0 E X #           ",
"                            * 9X4.4.u.6.S.f.f.f.f.gXdXe.OXi f d } 0 ` 0 m 1.n                       ",
"                            ; ..p.4.y.Z.C.5 5 5 <.6.C.6.i * a a 1       v 0.!                       ",
"                            & M O.%.&X&Xd.N.d.=XB.z..XfXG -             X m x W                     ",
"                              & @ v t.y.>.>.s.oXM.=X$X$Xf -               . 7 M                     ",
"                                  @ &.#XhXjXg 3 d `.#XiXG -                 X -                     ",
"                                  4 h a.e.J 4 % > q.e.+.3 <                                         ",
"                                  4 h V.H @   % > V.q.> X                                           ",
"                                . , #.}.s 2   % > }.X.B +                                           ",
"                                @ r.U.J r :   % > n.S u A <                                         ",
"                              X 9 1.0.e p :   % D 0.;X1.) B <                                       ",
"                              ; 2.J.w.0.s +   % w 8.q q 8.i -                                       ",
"                              * z.8.1.1.s +   & u $ $ $ $ 9 .                                       ",
"                              a $ $ $ $ 3 2               #                                         ",
"                                # #   #                                                             ",
"                                                                                                    ",
"                                                                                                    ",
"                                                                                                    ",
"                                                                                                    ",
"                                                                                                    ",
"                                                                                                    "
};
