/* XPM */
static char *result[] = {
/* columns rows colors chars-per-pixel */
"50 50 219 2 ",
"   c #474751",
".  c #4B4B55",
"X  c #4C4C56",
"o  c #494953",
"O  c #37373F",
"+  c #373741",
"@  c #3A3A44",
"#  c #383840",
"$  c #414149",
"%  c #3F3F47",
"&  c #3E3E48",
"*  c #3F3E4C",
"=  c #3B3A48",
"-  c #383745",
";  c #373644",
":  c #343341",
">  c #43434D",
",  c #44444C",
"<  c #4E4E58",
"1  c #51515B",
"2  c #31313D",
"3  c #FFA900",
"4  c #FEA200",
"5  c #48494E",
"6  c #F99E00",
"7  c #BF7900",
"8  c #C57B00",
"9  c #D48600",
"0  c #E59100",
"q  c #ED9600",
"w  c #F59B00",
"e  c #664400",
"r  c #764D00",
"t  c #9A6400",
"y  c #D98500",
"u  c #2C2C36",
"i  c #2E2E38",
"p  c #1C1100",
"a  c #362200",
"s  c #633A00",
"d  c #9D5B00",
"f  c #C47200",
"g  c #D37C00",
"h  c #313139",
"j  c #4C4D52",
"k  c #4B4C51",
"l  c #0F0008",
"z  c #1A0207",
"x  c #340B0A",
"c  c #602808",
"v  c #96440A",
"b  c #B9560A",
"n  c #C4570E",
"m  c #2F2E3C",
"M  c #0B0203",
"N  c #2B030C",
"B  c #4B0614",
"V  c #63091B",
"C  c #811A1A",
"Z  c #9F2C19",
"A  c #B6331B",
"S  c #B82629",
"D  c #B1122D",
"F  c #AB0E2E",
"G  c #B50F30",
"H  c #BA0F31",
"J  c #78091F",
"K  c #3E0411",
"L  c #53535D",
"P  c #55555F",
"I  c #010000",
"U  c #440612",
"Y  c #760B21",
"T  c #980C27",
"R  c #AC102F",
"E  c #AF1A29",
"W  c #B41B2B",
"Q  c #B20E2F",
"!  c #B91233",
"~  c #840C24",
"^  c #140205",
"/  c #2B2B35",
"(  c #1C0309",
")  c #34040E",
"_  c #920D27",
"`  c #B31031",
"'  c #BC1738",
"]  c #BB1B3B",
"[  c #B31C3A",
"{  c #C21A3C",
"}  c #95122C",
"|  c #5D0919",
" . c #A30E2C",
".. c #C42343",
"X. c #C8274A",
"o. c #C52A4A",
"O. c #AB213D",
"+. c #85152C",
"@. c #150409",
"#. c #3C3D42",
"$. c #7B0B21",
"%. c #CF2F50",
"&. c #D53758",
"*. c #D43959",
"=. c #B6213F",
"-. c #404146",
";. c #D93E5E",
":. c #DC4262",
">. c #CB3251",
",. c #CB2C4C",
"<. c #D23555",
"1. c #CA2446",
"2. c #8C0C25",
"3. c #25030A",
"4. c #950D28",
"5. c #530716",
"6. c #44454A",
"7. c #BC2845",
"8. c #19080B",
"9. c #9B0E2A",
"0. c #AC1231",
"q. c #520A18",
"w. c #4E1420",
"e. c #541925",
"r. c #41131D",
"t. c #240B10",
"y. c #5E061B",
"u. c #D93556",
"i. c #C93957",
"p. c #AB1E3A",
"a. c #8C122A",
"s. c #972038",
"d. c #A6314A",
"f. c #90283E",
"g. c #651B2A",
"h. c #2C0D14",
"j. c #A51633",
"k. c #B2314C",
"l. c #712132",
"z. c #9E2C44",
"x. c #BA2846",
"c. c #9B1D36",
"v. c #AC2A45",
"b. c #771428",
"n. c #691627",
"m. c #5A1C29",
"M. c #881B32",
"N. c #A21A35",
"B. c #4E0915",
"V. c #730A1F",
"C. c #9D102C",
"Z. c #23090F",
"A. c #530518",
"S. c #69071E",
"D. c #5A0A15",
"F. c #6F0C20",
"G. c #330310",
"H. c #3A050F",
"J. c #6B091D",
"K. c #0F0900",
"L. c #161000",
"P. c #241500",
"I. c #4E190B",
"U. c #5D1213",
"Y. c #76141C",
"T. c #601D10",
"R. c #492604",
"E. c #3A2600",
"W. c #331E00",
"Q. c #2A1900",
"!. c #190F00",
"~. c #5C3600",
"^. c #763B08",
"/. c #502E00",
"(. c #530816",
"). c #865300",
"_. c #925E00",
"`. c #7C4900",
"'. c #140E00",
"]. c #915301",
"[. c #663404",
"{. c #381607",
"}. c #8B5401",
"|. c #CC8000",
" X c #DC8A00",
".X c #CB7A00",
"XX c #B46B00",
"oX c #854902",
"OX c #3E2A00",
"+X c #AD6500",
"@X c #4A2B00",
"#X c #442900",
"$X c #63240C",
"%X c #B57000",
"&X c #734300",
"*X c #8F5B00",
"=X c #2A2A32",
"-X c #6B2131",
";X c #A46200",
":X c #CA7600",
">X c #C36C03",
",X c #A15F00",
"<X c #E03F61",
"1X c #B36701",
"2X c #BF6605",
"3X c #A45507",
"4X c #6E3906",
"5X c #A44A0B",
"6X c #B44616",
"7X c #983422",
"8X c #742528",
"9X c #A72720",
"0X c #B8324A",
"qX c #262630",
"wX c #AB1A35",
"eX c #902B40",
"rX c #3C0C17",
"tX c #3F131C",
"yX c #351018",
/* pixels */
"  . X . o . . . X o O + @ # $ % % % % % % $ % % @ + + + & * = + - ; ; ; + : : + # # @ & $ $ > , ,   ",
". X X X < 1 < . & % O + % & & & $ $ $ $ $ $ $ $ $ @ + + @ @ @ + + + + + 2 2 2 + & + 2 # > o   >   o ",
"$ $ , , , o , $ % % % @ % $ % $ $ $ , , , , , $ > $ & % @ + + 2 + + # # + O + # @ @ @ @ # # @ % $ $ ",
"% $ , , $ $ , $     > % & $ & $ $ 3 3 3 4 , , $ , , $ $ @ + + # # % % % % % # # @ @ % % & % & $ $ $ ",
"5 o o o , o o o o X % % $ $ , $ 6 6 6 6 4 4 , , $ , , , & @ @ $ % % % % $ % # O # # % $ $ $ $ , $ , ",
"o o , , o o o o X X % $ , $ , $ 7 8 9 0 q w o , , , $ & # O # & $ $ $ % $ $ % # O # % % % % $ , $ $ ",
"o o , 5 o o o o X o $ , o , , , e r t 7 y 0 o , . $ O u u i + & % $ $ $ $ $ $ $ $ # O O % $ $ $ , , ",
", 5 o o o o o X X , $ $ , , $ , p a s d f g o , + h i h O + 2 2 + % > > $ $ > > $ $ # O u u O % , , ",
"o o o o o j j k X o $ , , , , l z x c v b n + m 2 2 @ $ > % # # O O O @ $ , , $ $ > , > $ # h i & > ",
"+ $ o X X o X X o o , , , $ M N B V C Z A A S D F G F G H F J K M % O u h @ , , $ > $ $ , $ # O 2 2 ",
"# O @ > X 1 L P o , $ , o I z U Y T R E E W W F G Q Q G ! R ~ B ^ I $ @ i / O o o o , ,   > @ + i h ",
"% # O + + @ > . % $ , , ^ ( ) V _ ` ! ' ' ' ] ] ' ] [ ] { [ } | ) z ^ > $ + h h $ , , $ $ % # @ @ @ ",
"$ $ % & @ + @ * , $ , ^ N B V ~  .! { ..X.o.X.o.o.o.o.o.X.o.O.+.V B N @.> , # u u + % @ # # # % & & ",
"#.# # % % @ + + , o I z B $.T  .Q [ ..%.&.*.*.&.&.&.&.*.*.&.o.=.} J U z I > $ % i + @ @ % % % % % % ",
"-., , $ # + # @ $ M ( ) V T ` D G [ ] %.*.;.:.:.:.:.:.;.;.&.>...! ~ B z I I $ $ # & & & $ $ $ % $ $ ",
"$ $ $ % % % % # z ) B V ~  .! H G ` ] ..,.&.;.:.:.:.:.;.<.X.1.{ ! 2.B @.I I I # O @ % % % $ $ , $ $ ",
"$ , , % @ % & M 3.B $.4. .F ! G G ` ` [ ] X.*.:.:.:.:.&.X.] ' ' Q 2.5.z I I I I 2 2 # $ $ $ $ o 6.6.",
"o , $ % & > I I 3.| 4.` ! ` F ` G Q G G ! 7.>.*.;.;.*.>...] ! ' [ } | N ^ ^ @.8.8.% # # % , , , , , ",
"$ $ $ $ $ > I I 3.V 9.! ! G Q 0.Q G Q Q ` ] ..,.>.,.,.,.o.1.o.1...O.+.| q.w.e.e.r.t.% # % , o , k k ",
"$ $ $ $ $ & I I 3.y.T H ! G ` ` 0.0.Q Q ` ` ] ] ] ] ] o.,.&.u.u.i.o.p.} a.s.d.f.g.h.I $ $ $ $ , , , ",
", $ $ , , > I I 3.y.4.D ! Q G G G ` 0.G ` 0.` ` ` G ! [ o.i.i.*.*.>.=.j.j.7.>.k.l.h.I I $ $ $ $ $ $ ",
"o , , , > % I I 3.V T G ! G Q 0.G ` G ` G G Q Q Q Q 0.j.s.f.z.k.>.x.c.~ a.p.o.v.b.h.I I $ , , $ , , ",
"o o o $ # h I I 3.| T ! ! G ` G 0.Q ` ` 0.0.Q F Q G R a.n.w.m.M.p.N.Y B.q.b.p.N.n.N I I , , , o , , ",
"$ % % # + + I I 3.| 4.` ! G 0.G G ` 0.G G G ` G G ! R $.U ( x V.9.} q.3.3.V 4.C.V Z.I I , , , X , , ",
"+ + @ @ @ @ I I 3.V 9.H ! G ` 0.0.G 0.G G 0.D ` ! G F Y ) M 3.V T _ B z z A.4.T V 3.I I O & % # O O ",
"O # @ @ @ @ I I 3.V 9.! ! ! G 0.G ` G G ` Q G G G ! F $.) M 3.S.9._ A.z ( D.T T S.N I I h O O O + + ",
"+ # @ % % % I I 3.A._ Q G G G Q ` G Q 0.` G ` ` G ! F $.U z N S.4.~ B z 3.A.2._ V 3.M I 2 2 2 O + + ",
"@ @ @ @ % & I I z K V ~ 9.F G ! ` ` ! G ` ` G D ! ! Q 2.V U U | F.V G.l ^ H.J.J.5.3.I # # # + + + + ",
"% @ # @ % $ I I M ( ) A.$.9.H ! ! ! ! H ! ! H ! ! ! !  ._ J J.5.K N @.I I ( ) U ) ( O + + # # + + + ",
"@ @ # @ % $ I I I I ^ x V _ Q ! F R 0.F R R R R F F F R F T J B 3.K.I M M M M M M O O + O + # # @ @ ",
"@ % % % @ % I I M L.P.I.U.Y.~ ~ ~ ~ ~ ~ ~ ~ ~ ~ ~ ~ ~ ~ 2.~ Y.T.R.E.E.W.Q.!.I I I O O # O # % # @ @ ",
"% & $ & @ # I I !.E.~.^./.I.U U B B B B B B B B B U U U B (.T.^.)._.).`.s a '.I I h O O O # % # @ @ ",
"% % % % % $ I I Q.~.].].[.{.^ ^ @.@.^ ^ ^ ^ ^ ^ ^ ^ z ^ l 8.R.}.|. X.XXX}./.p I I h O # # # # # % % ",
"% % % % $ $ $ I Q.s }.oX[.{.( M I I I I I I I I M z ( z I K.OXt 0 w y +X`.@X!.I I u 2 # @ % % % % % ",
"$ $ $ $ $ $ $ $ P.#X~.~.$XU.B N M I I I I I I I z U A.U z M OXt 0 q %X&X#XP.K.I I u 2 @ @ @ % % % % ",
"$ $ $ $ $ $ $ $ > '.p x U.~ ~ A.3.I I I I I I M ) J.~ S.G.^ #Xt 0 9 *XOXp I I I I =Xi # % % % # % % ",
"$ $ $ $ $ $ , , > I I ( A.4. .Y U 3.8.t.t.Z.Z.3.U Y ~ V G.^ OX_.9 |.).#X!.M I I I =X/ O @ & $ % % % ",
"$ $ $ , , $ , , , I I z A.T F _ J.| U.g.-Xg.| D.| y.D.K ( K.E.).8 8 ;X&X@XP.K.I I h h 2 + @ % $ $ $ ",
"$ $ , , , $ , , , I I ( A._ Q  .4.} O.v.k.v.N.2.J.B 3.^ I M W.r XX:X>X,XoX@Xp I I % @ # + + % $ $ $ ",
", , , , , , , , , M z ) S.4.G ! ! ] o.&.*.<.{ F J H.M I I M Q.&X+X:Xg f d ~.P.I I % & & # + % $ $ $ ",
", , , , , , o o ( ) B V ~ 9.! ] ..,.u.<X<Xu.1.D J H.I I I I W.&X1Xg g :X;Xs p I I I $ % $ % O $ , , ",
"$ , , , o o o I 3.5.$.4. .F ' ..>.u.;.<X;.u...R J H.M I I I W.&X+X:Xg 8 ;Xs p I I I I % $ % i + $ , ",
"o o o X X X I I 3.| 4.D G G [ ..<.;.:.;.&.,.{ R J H.K.I I I Q.s d 1X>X2X3X4XW.8.M I I I $ & i i @   ",
"% % % % $ % I I 3.y.T ! H D ' 1.&.:.;.<.o...{ D $.H.^ I I I p #X[.oX5X6X6X7X8Xe.h.@.I I $ & i =X/ @ ",
"+ + # # # + I I 3.| 4.! H G [ X.&.;.<.o.] ] ' R J K M I I I M L.Q.R.C 9XS 0Xv.f.m.t.I I $ # u =XqX+ ",
"$ $ $ > > $ I I N V T Q G ` ] ..<.&.o.=.! Q F T J.K M I I I I I M 3.U.2.wXx.>.d.-Xh.I I # h h + + $ ",
"$ > > > , , > I ) V.9.! G D ! =...o...' F 4.~ J.(.N M I I I I I I ^ ) y.Y M.eXl.m.h.M @ + O % $ $ > ",
"> , , , , ,     $ 2.F G G R ! ' ] ] ] !  .~ (.) N &   < I I I I I I z N G.rXw.tXyX% @ @ % $ > @ $ & ",
",         o o   6.Q ` ` G ` G ` ` ` ! G  .Y G.^ I ; - = I I I I I I I M M M M M M % @ % & & & & > > ",
",         o o   , ! ! F ` ` ` F Q D G ! 9.J.N I I - - - I I I I I I I I I I I I I % % & $ & $ $ > > "
};
