/* XPM */
static char *result[] = {
/* columns rows colors chars-per-pixel */
"50 50 128 2 ",
"   c #010000",
".  c #0B0202",
"X  c #130205",
"o  c #1A0207",
"O  c #130B00",
"+  c #190F00",
"@  c #1E0308",
"#  c #1C1100",
"$  c #220309",
"%  c #2B040C",
"&  c #33040E",
"*  c #38050F",
"=  c #241500",
"-  c #281700",
";  c #2C1A00",
":  c #311D00",
">  c #2C0C12",
",  c #370610",
"<  c #3E0411",
"1  c #3B2300",
"2  c #571D0B",
"3  c #430512",
"4  c #4C0615",
"5  c #510716",
"6  c #560817",
"7  c #580718",
"8  c #5B0819",
"9  c #62071A",
"0  c #6E031F",
"q  c #610A1B",
"w  c #6B0A1D",
"e  c #710A1F",
"r  c #7A141A",
"t  c #452800",
"y  c #4E2D00",
"u  c #512F00",
"i  c #563300",
"p  c #5E3700",
"a  c #563C00",
"s  c #643A00",
"d  c #693D00",
"f  c #7B0B21",
"g  c #6A1324",
"h  c #711C2E",
"j  c #742032",
"k  c #654300",
"l  c #744400",
"z  c #8A3A0B",
"x  c #98251A",
"c  c #BA2F1F",
"v  c #B0301B",
"b  c #890625",
"n  c #840B23",
"m  c #8C0C25",
"M  c #910D27",
"N  c #950D28",
"B  c #9B0E29",
"V  c #84142B",
"C  c #8B162D",
"Z  c #93132C",
"A  c #9B122D",
"S  c #A40E2C",
"D  c #AA0F2E",
"F  c #B10F2F",
"G  c #A4132B",
"H  c #AE102F",
"J  c #AC182B",
"K  c #B0102F",
"L  c #B31A2B",
"P  c #B81A2D",
"I  c #B50F30",
"U  c #BA0F31",
"Y  c #AF1030",
"T  c #A41C38",
"R  c #AB1F3B",
"E  c #B41131",
"W  c #BA1233",
"Q  c #B61A39",
"!  c #BC1C3C",
"~  c #BB2325",
"^  c #AD213E",
"/  c #B5203E",
"(  c #C01B3C",
")  c #834C00",
"_  c #875700",
"`  c #8E5300",
"'  c #945600",
"]  c #9F5C00",
"[  c #A15D00",
"{  c #B2500C",
"}  c #A66100",
"|  c #AB6400",
" . c #B16700",
".. c #B46B00",
"X. c #BE6E00",
"o. c #B17300",
"O. c #B87700",
"+. c #C2530F",
"@. c #C34516",
"#. c #C06F00",
"$. c #C37100",
"%. c #CF7602",
"&. c #C77F00",
"*. c #B12B46",
"=. c #B42D49",
"-. c #B7334E",
";. c #C22343",
":. c #CA2546",
">. c #CD2748",
",. c #C62B4B",
"<. c #CB2C4D",
"1. c #D02547",
"2. c #CD3151",
"3. c #D33556",
"4. c #DC3759",
"5. c #D63A5A",
"6. c #D93D5E",
"7. c #DF3F60",
"8. c #DC4262",
"9. c #D28200",
"0. c #DB8B00",
"q. c #E18C00",
"w. c #EA9400",
"e. c #F39A00",
"r. c #FA9F00",
"t. c #FEA400",
"y. c #FFA900",
"u. c None",
/* pixels */
"u.u.u.u.u.u.u.u.u.u.u.u.u.u.u.u.u.u.u.u.u.u.t.t.t.y.y.y.u.u.u.u.u.u.u.u.u.u.u.u.u.u.u.u.u.u.u.u.u.u.",
"u.u.u.u.u.u.u.u.u.u.u.u.u.u.u.u.u.u.u.u.u.u.t.r.r.e.e.e.u.u.u.u.u.u.u.u.u.u.u.u.u.u.u.u.u.u.u.u.u.u.",
"u.u.u.u.u.u.u.u.u.u.u.u.u.u.u.u.u.u.u.u.u.u.e.w.0.9.o.o.u.u.u.u.u.u.u.u.u.u.u.u.u.u.u.u.u.u.u.u.u.u.",
"u.u.u.u.u.u.u.u.u.u.u.u.u.u.u.u.u.u.u.u.u.u.q.9..._ k a u.u.u.u.u.u.u.u.u.u.u.u.u.u.u.u.u.u.u.u.u.u.",
"u.u.u.u.u.u.u.u.u.u.u.u.u.u.u.u.u.u.u.u.u.u.%.X.' u - O u.u.u.u.u.u.u.u.u.u.u.u.u.u.u.u.u.u.u.u.u.u.",
"u.u.u.u.u.u.u.u.u.u.u.u.u.u.u.u.u.u.u.u.u.@.+.{ z 2 & % 4 u.u.u.u.u.u.u.u.u.u.u.u.u.u.u.u.u.u.u.u.u.",
"u.u.u.u.u.u.u.u.u.u.u.u.u.u.u.u.u.. < f H ~ c v x r w 0 b B n 3 . u.u.u.u.u.u.u.u.u.u.u.u.u.u.u.u.u.",
"u.u.u.u.u.u.u.u.u.u.u.u.u.u.u.u.  o 3 n H P P L J S B S I H n 3 X   u.u.u.u.u.u.u.u.u.u.u.u.u.u.u.u.",
"u.u.u.u.u.u.u.u.u.u.u.u.u.u.u.X @ , q Z Q ( ! / ! ! ! ( ( Q Z q , @ . u.u.u.u.u.u.u.u.u.u.u.u.u.u.u.",
"u.u.u.u.u.u.u.u.u.u.u.u.u.u.. & 4 g C ^ ,.<.,.,.<.>.,.,.<.,.*.C w 5 & . u.u.u.u.u.u.u.u.u.u.u.u.u.u.",
"u.u.u.u.u.u.u.u.u.u.u.u.u.  o 3 f A / ,.3.7.5.5.5.5.5.7.7.3.,./ A f 3 o   u.u.u.u.u.u.u.u.u.u.u.u.u.",
"u.u.u.u.u.u.u.u.u.u.u.u.X @ & 9 M Q ,.2.7.7.8.8.7.7.7.8.8.7.3.:.W M 9 & @ X u.u.u.u.u.u.u.u.u.u.u.u.",
"u.u.u.u.u.u.u.u.u.u.u.o & 4 9 n S Q >.4.8.8.8.8.8.8.8.8.8.8.5.:.! B n 9 5 & o u.u.u.u.u.u.u.u.u.u.u.",
"u.u.u.u.u.u.u.u.u.u.  @ 4 f N S D W ;.3.8.8.8.8.8.8.8.8.8.8.3.;.W Y S N f 4 @   u.u.u.u.u.u.u.u.u.u.",
"u.u.u.u.u.u.u.u.u.    $ 6 M E U I Q ;.<.5.8.8.8.8.8.8.7.7.3.2.=.W E I E m 6 $     u.u.u.u.u.u.u.u.u.",
"u.u.u.u.u.u.u.u.u.    @ 6 N E W I E ! ;.,.2.5.8.8.8.7.7.2.<.:.W E U W E N 6 @     u.u.u.u.u.u.u.u.u.",
"u.u.u.u.u.u.u.u.u.    $ 6 M I U I I E Q ! ,.3.7.8.8.8.3.,.( Q U E E E I M 6 $     u.u.u.u.u.u.u.u.u.",
"u.u.u.u.u.u.u.u.u.    @ 6 M I W I Y Y I E ;.2.5.7.7.3.2.*.U I I I E W I m 6 @     u.u.u.u.u.u.u.u.u.",
"u.u.u.u.u.u.u.u.u.    $ 6 N U W I I Y F E ! ;.,.,.2.,.;.Q I D F E I W E N 8 @     u.u.u.u.u.u.u.u.u.",
"u.u.u.u.u.u.u.u.u.    $ 6 N I W I Y F F E E ! ! / ! ! Q E I Y I I I W E N 8 $     u.u.u.u.u.u.u.u.u.",
"u.u.u.u.u.u.u.u.u.    @ 4 n G Y Y I I I Y E I Y E E E E E I Y E I Y Y S n 4 @     u.u.u.u.u.u.u.u.u.",
"u.u.u.u.u.u.u.u.u.    X & 8 f M D I E I I Y I Y F F F D Y E E I I G M f 8 & X     u.u.u.u.u.u.u.u.u.",
"u.u.u.u.u.u.u.u.u.      X % 3 f A I W I Y I Y Y F F D I I E I E E N e 3 % o       u.u.u.u.u.u.u.u.u.",
"u.u.u.u.u.u.u.u.u.          @ 5 n S Y I I Y Y I I E I E Y I E E E m 6 $           u.u.u.u.u.u.u.u.u.",
"u.u.u.u.u.u.u.u.u.          . & 8 f N G I W W I E I I I E I W U I M 5 o           u.u.u.u.u.u.u.u.u.",
"u.u.u.u.u.u.u.u.u.            X % 3 f B I U W E W E W W W W U ( E M 5 X           u.u.u.u.u.u.u.u.u.",
"u.u.u.u.u.u.u.u.u.                $ 5 n S Y Y D D D D D D F D F G n 4 o           u.u.u.u.u.u.u.u.u.",
"u.u.u.u.u.u.u.u.u.                  % 8 f n n f f n f f n e n n f 9 , X           u.u.u.u.u.u.u.u.u.",
"u.u.u.u.u.u.u.u.u.                  X , 3 3 3 3 3 3 3 3 3 3 3 3 , % @ .           u.u.u.u.u.u.u.u.u.",
"u.u.u.u.u.u.u.u.u..               . . . X . X . X . X . . X X X o X .             u.u.u.u.u.u.u.u.u.",
"u.u.u.u.u.u.u.u.u.- ; - + .   X $ % o                         o $ $ X . . # - ; - u.u.u.u.u.u.u.u.u.",
"u.u.u.u.u.u.u.  # y d p 1 O X , 7 q 3 X                     o * 8 5 & . O 1 p d y #   u.u.u.u.u.u.u.",
"u.u.u.u.u.u.    ; d ' ` i # o 3 f n 9 %                     % q n f 3 o = i ` ' d ; .   u.u.u.u.u.u.",
"u.u.u.u.u.u.# - u )  .} d = X < w n w 3 % % > > > > % $ $ % 3 w n e < o = s [  .) y - + u.u.u.u.u.u.",
"u.u.u.u.  - t s ) } X.| d - . $ 3 5 9 9 q g h j h g 9 8 8 9 9 8 7 3 @ . = d | O.} ) s t - . u.u.u.u.",
"u.u.u.  . ; s '  .$.#.[ s =     X % 5 e Z ^ =.-.*.T A B B N f 5 % X     = s [ $.#. .' s -     u.u.u.",
"u.u.u.    : l | $.X.} ) y +       X 3 n W :.4.6.3./ E E U E m 3 X       # y ) } #.$.| l :     u.u.u.",
"u.u.u.  . : l ..O.] l y ; O       . 3 n E 1.4.7.4.:.W W W E n 3 .       O ; y l [ #...l 1     u.u.u.",
"u.u.u.    ; l | [ l 1 # . .       X 3 n E ,.3.5.3.;.W E U K n 4 X         . # 1 l } | l 1 .   u.u.u.",
"u.u.u.  . 1 k ' ` u #           X % 8 M Q :.2.3.>.! E E F F m 8 % X           # u ) ' k ;     u.u.u.",
"u.u.u.u.  - y s u ; .       . $ * q V ^ =.>.<.,.;.! E F E D B f 8 < @ .       . : u p y -   u.u.u.u.",
"u.u.u.u.u.u.- - = O         X < w Z / ,.2.<.;.! W E E E E E D S M w < o         O = - - u.u.u.u.u.u.",
"u.u.u.u.u.u.                o 4 m E :.3.5.2.;.W Y K F E F E E I H m 5 o                 u.u.u.u.u.u.",
"u.u.u.u.u.u.u.              @ 5 M Q >.5.5.2.! K F F E K E F U W E M 5 o               u.u.u.u.u.u.u.",
"u.u.u.u.u.u.u.u.u.u.u.u.    o 4 m W >.3.6.<.*.E F F F E E K W U E m 5 o     u.u.u.u.u.u.u.u.u.u.u.u.",
"u.u.u.u.u.u.u.u.u.u.u.u.u.  o 4 n Q :.5.5.3.( E F F E F K E I W H m 5 o   u.u.u.u.u.u.u.u.u.u.u.u.u.",
"u.u.u.u.u.u.u.u.u.u.u.u.u.u.o 4 m W >.3.5.2.! W F F K E E K E W H m 5 o u.u.u.u.u.u.u.u.u.u.u.u.u.u.",
"u.u.u.u.u.u.u.u.u.u.u.u.u.u.u.u.u.u.u.u.u.u.u.u.u.u.u.u.u.u.u.u.u.u.u.u.u.u.u.u.u.u.u.u.u.u.u.u.u.u.",
"u.u.u.u.u.u.u.u.u.u.u.u.u.u.u.u.u.u.u.u.u.u.u.u.u.u.u.u.u.u.u.u.u.u.u.u.u.u.u.u.u.u.u.u.u.u.u.u.u.u.",
"u.u.u.u.u.u.u.u.u.u.u.u.u.u.u.u.u.u.u.u.u.u.u.u.u.u.u.u.u.u.u.u.u.u.u.u.u.u.u.u.u.u.u.u.u.u.u.u.u.u."
};
