/* XPM */
static char *result[] = {
/* columns rows colors chars-per-pixel */
"50 50 175 2 ",
"   c black",
".  c #010100",
"X  c #000101",
"o  c #010200",
"O  c #000201",
"+  c #010201",
"@  c #020303",
"#  c #020501",
"$  c #030502",
"%  c #020403",
"&  c #030403",
"*  c #040701",
"=  c #050702",
"-  c #020304",
";  c #030404",
":  c #030405",
">  c #040506",
",  c #050802",
"<  c #060903",
"1  c #060A02",
"2  c #050805",
"3  c #080B06",
"4  c #080C06",
"5  c #06080A",
"6  c #090C0D",
"7  c #0A0D0D",
"8  c #0A0D0F",
"9  c #0B1006",
"0  c #0D1205",
"q  c #0F1506",
"w  c #0E1407",
"e  c #0C1009",
"r  c #0C1109",
"t  c #0D1308",
"y  c #0F1408",
"u  c #0F140D",
"i  c #101804",
"p  c #121A07",
"a  c #12180A",
"s  c #151C0D",
"d  c #0D1112",
"f  c #0F1411",
"g  c #111710",
"h  c #111517",
"j  c #121A11",
"k  c #141A15",
"l  c #161C1C",
"z  c #181F1C",
"x  c #18210A",
"c  c #19230A",
"v  c #19210F",
"b  c #1A2111",
"n  c #1C2411",
"m  c #1E2713",
"M  c #1A2116",
"N  c #1F2817",
"B  c #1A201B",
"V  c #1C231A",
"C  c #18201E",
"Z  c #1E281C",
"A  c #232E17",
"S  c #242D17",
"D  c #242A19",
"F  c #242F1B",
"G  c #253710",
"H  c #273516",
"J  c #263018",
"K  c #29351C",
"L  c #2A361C",
"P  c #2F3B1C",
"I  c #2E3A1D",
"U  c #1D2621",
"Y  c #1F2523",
"T  c #1B2124",
"R  c #222A23",
"E  c #262C23",
"W  c #232A2B",
"Q  c #282F2D",
"!  c #2E3922",
"~  c #313B2C",
"^  c #343F2C",
"/  c #2B3233",
"(  c #2F3730",
")  c #323A33",
"_  c #324021",
"`  c #364425",
"'  c #3B452F",
"]  c #3D4B2A",
"[  c #38403E",
"{  c #3F4B3B",
"}  c #41502E",
"|  c #41502F",
" . c #41443C",
".. c #43483C",
"X. c #485830",
"o. c #48503B",
"O. c #49563B",
"+. c #4E5D38",
"@. c #515C3E",
"#. c #526238",
"$. c #394A41",
"%. c #464E40",
"&. c #434C48",
"*. c #475348",
"=. c #4B574E",
"-. c #505A4E",
";. c #4A5E52",
":. c #566443",
">. c #5B6A45",
",. c #59644B",
"<. c #5D6A4F",
"1. c #5F7544",
"2. c #4F6458",
"3. c #5C6658",
"4. c #586D5F",
"5. c #62714C",
"6. c #65774F",
"7. c #6B7C51",
"8. c #697856",
"9. c #6B7A5E",
"0. c #566669",
"q. c #5F7665",
"w. c #667162",
"e. c #6B7865",
"r. c #717F65",
"t. c #707B6B",
"y. c #647C70",
"u. c #6E814B",
"i. c #748C4E",
"p. c #71805A",
"a. c #6A8269",
"s. c #788664",
"d. c #7C8D63",
"f. c #7F9067",
"g. c #778370",
"h. c #708874",
"j. c #7C8873",
"k. c #7B947D",
"l. c #859963",
"z. c #86976F",
"x. c #8A9A73",
"c. c #8F9F74",
"v. c #85927A",
"b. c #8B997E",
"n. c #8AA263",
"m. c #95AA6F",
"M. c #92A771",
"N. c #93A37D",
"B. c #A5BA7D",
"V. c #93A187",
"C. c #9DAE81",
"Z. c #96A389",
"A. c #9BAA8B",
"S. c #93AF94",
"D. c #9DB495",
"F. c #A3B589",
"G. c #A8BA90",
"H. c #ACBA96",
"J. c #A8B898",
"K. c #B1BF97",
"L. c #B0C391",
"P. c #B3C29D",
"I. c #B7C7A0",
"U. c #BACCA7",
"Y. c #BBCBAC",
"T. c #C0D0A2",
"R. c #C4D5AC",
"E. c #C7D9B1",
"W. c #D0DDBA",
"Q. c #CCE0B4",
"!. c #D4E3BD",
"~. c #D6E5BD",
"^. c #DBE8C6",
"/. c #E2F2C7",
"(. c None",
/* pixels */
"(.(.(.(.(.(.(.(.(.(.(.(.(.(.(.(.(.(.(.(.(.(.(.(.(.(.(.(.(.(.(.(.(.(.(.(.(.(.(.(.(.(.(.(.(.(.(.(.(.(.",
"(.(.(.(.(.(.(.(.(.(.(.(.(.(.(.(.(.(.(.(.(.(.(.(.(.(.(.(.(.(.(.(.(.(.(.(.(.(.(.(.(.(.(.(.(.(.(.(.(.(.",
"(.(.(.(.(.(.(.(.(.(.(.(.(.(.(.(.(.(.(.(.(.(.(.(.(.(.(.(.(.(.(.(.(.(.(.(.(.(.(.(.(.(.(.(.(.(.(.(.(.(.",
"(.(.(.(.(.(.(.(.(.(.(.(.(.(.(.(.(.(.(.(.(.(.(.(.(.(.(.(.(.(.(.(.(.(.(.(.(.(.(.(.(.(.(.(.(.(.(.(.(.(.",
"(.(.(.(.(.(.(.(.(.(.(.(.(.(.(.(.(.(.(.(.(.(.(.(.(.(.(.(.(.(.(.(.(.(.(.(.(.(.(.(.(.(.(.(.(.(.(.(.(.(.",
"(.(.(.(.(.(.(.(.(.(.(.(.(.(.(.(.(.(.(.(.(.(.(.(.(.(.(.(.(.(.(.(.(.(.(.(.(.(.(.(.(.(.(.(.(.(.(.(.(.(.",
"(.(.(.(.(.(.(.(.(.(.(.(.(.(.(.(.(.(.(.(.(.(.(.(.(.(.(.(.(.(.(.(.(.(.(.(.+   o o (.(.(.(.(.(.(.(.(.(.",
"(.(.(.(.(.(.(.(.(.(.(.(.(.(.(.(.(.(.(.(.(.(.(.(.(.(.(.(.(.(.(.(.(.(.(.(.B k f V S (.(.(.(.(.(.(.(.(.",
"(.(.(.(.(.(.(.(.(.(.(.(.(.(.(.(.(.(.(.(.(.(.(.(.(.(.(.(.(.(.(.(.(.(.. B 2.;.{ 8.:.G (.(.(.(.(.(.(.(.",
"(.(.(.(.(.(.(.(.(.(.(.(.(.(.(.(.(.(.(.(.(.(.(.(.(.(.(.(.(.(.(.(.(.. U ;.D.D.b.x.1.H p (.(.(.(.(.(.(.",
"(.(.(.(.(.(.(.(.(.(.(.(.(.(.(.(.(.(.(.(.(.(.(.(.(.(.(.(.(.(.(.(.(.) 4.S.Q.Q.H.z.:.H 9 % (.(.(.(.(.(.",
"(.(.(.(.(.(.(.(.(.(.(.(.(.(.(.(.(.(.(.(.(.(.(.(.(.(.(.(.(.(.(.+  .Y.!.Q.R.G.z.8.| v k 7 $ (.(.(.(.(.",
"(.(.(.(.(.(.(.(.(.(.(.(.(.(.(.(.(.(.(.(.* i i i (.(.(.(.(.(.(.o { W./.E.G.d.#.] N 9 V M 3 (.(.(.(.(.",
"(.(.(.(.(.(.(.(.(.(.(.(.(.(.(.(.(.(.(.B ! _ I H F (.(.(.(.(.(.P :.A.P.G.f.+.H v 9 @ n N y (.(.(.(.(.",
"(.(.(.(.(.(.(.(.(.(.(.(.(.(.(.(.% $ ..H.P.F.n.7.} v (.(.(.(.S s.v.-.r.f.X.! Y T d @ f f & (.(.(.(.(.",
"(.(.(.(.(.(.(.(.(.(.(.(.(.(.(.g Q *.b.~.Q.L.m.5._ s e (.(.Z { e.j.w.5.#._ R T l 8 O 8 8 - (.(.(.(.(.",
"(.(.(.(.(.(.(.(.(.(.(.(.= 7 3 ) h.Y.!.I.N.p.:.! w w i (.; R 4.*.3.A.5.K Q W C d > @ 8 8 @ (.(.(.(.(.",
"(.(.(.(.(.(.(.(.(.(.(.  F ;.4.k.J.G.F.N.<.( M m m 9 = (.+ k *.j.v.3.( k l h d > > 8 5 % (.(.(.(.(.(.",
"(.(.(.(.(.(.(.(.(.(.(.U $.y.S.D.v.9.<.,.Q 8 @ u b + (.(.t ( e.b.t./ &.*.l 5 5 9 f d > o (.(.(.(.(.(.",
"(.(.(.(.(.(.(.(.< & B 2.;.=.A.j./ W Y l 6 > 5 > % (.(.2 Q j.R.e./ [ Z.H.( > < N N f > , (.(.(.(.(.(.",
"(.(.(.(.(.(.(.o.b.w.$.&.[ [ -.{ j u 6 > 5 5 >   (.(.(.8 j.E.R.,.' j.U.U.9.E @ k k 4 + (.(.(.(.(.(.(.",
"(.(.(.(.(.(.P p.^.Y.a.( Y R l k v n a < 6 4 % (.(.(.D %.H.R.N.5.7.G.G.c.p.^ 5 8 5 X (.(.(.(.(.(.(.(.",
"(.(.(.(.(.F u.B.U.Y.b.! a s w v K ] _ a < % (.(.(.+ ,.K.C.7.X.z.F.x.>.` H M d 8 > 2 (.(.(.(.(.(.(.(.",
"(.(.(.(.% M #.i.7.8.:._ A A ! A v A F i (.(.(.(.(.r :.F.7.+.>.f.d.+.K s j f 8 > $ (.(.(.(.(.(.(.(.(.",
"(.(.(.# X d H _ H v v ! ! K ` L $ 0 e (.(.(.(.(.(.c } 6.] X.p.5.] n j k f 8 - @ (.(.(.(.(.(.(.(.(.(.",
"(.(.(.(.* 3 f C Y l f s a w a g (.(.(.(.(.(.(.(.(.(.D I ` | O._ m k N A a < @ (.(.(.(.(.(.(.(.(.(.(.",
"(.(.(.(.(.. @ 6 d 8 2 q * * = (.(.(.(.(.(.(.(.(.(.(.(.s J I K J v 6 u b q . (.(.(.(.(.(.(.(.(.(.(.(.",
"(.(.(.(.(.(.  X @ X   (.(.(.(.(.(.(.(.(.(.(.(.(.(.(.(.r x x x A b @ X ; (.(.(.(.(.(.(.(.(.(.(.(.(.(.",
"(.(.(.(.(.(.(.(.(.(.(.(.(.+ + % o (.(.(.(.p p p q (.(.(.t w 9 w t (.(.(.(.(.(.(.(.(.(.(.(.(.(.(.(.(.",
"(.(.(.(.(.(.(.(.(.(.(.(.; k Y W Q e (.(.@.>.#.X.} (.(.(.= q # , (.(.(.(.(.(.(.(.(.(.(.(.(.(.(.(.(.(.",
"(.(.(.(.(.(.(.(.(.  3 4 E *.q.y.0.Q y L x.T.B.n.1.L 3 < (.(.(.(.(.(.(.(.(.(.(.(.(.(.(.(.(.(.(.(.(.(.",
"(.(.(.(.(.(.(.  o r ~ 6.z.A.U.b.O.j.A.N.C.C.d.:.^ V h h % (.(.(.(.(.(.(.(.(.(.(.(.(.(.(.(.(.(.(.(.(.",
"(.(.(.(.(.(.z R ! *.9.l.c.Z.J.x.p.T./.T.x.<.O.*.=.=.*.[ V p (.(.(.(.(.(.(.(.(.(.(.(.(.(.(.(.(.(.(.(.",
"(.(.(.(.(.r $.a.m.G.N.X.^ [ [ g.R.R.H.z.-.Q W e.J.J.N.p.O.J 0 (.(.(.(.(.(.(.(.(.(.(.(.(.(.(.(.(.(.(.",
"(.(.(.(.(.3 ! 6.M.l.>.~ 3.V.v.j.j.e.3.%.Y 8 j ' <.,.O.' K v 9 (.(.(.(.(.(.(.(.(.(.(.(.(.(.(.(.(.(.(.",
"(.(.(.(.(.4 x ] 6.| m Q g.U.J.w.W T T C k s m n s w w w 9 4 1 (.(.(.(.(.(.(.(.(.(.(.(.(.(.(.(.(.(.(.",
"(.(.(.(.(.4 s J _ v 8 W [ &.&.W 5 > 9 n ] +.| _ A n v s 9 o (.(.(.(.(.(.(.(.(.(.(.(.(.(.(.(.(.(.(.(.",
"(.(.(.(.(.* r a n 9 5 h h d d d 5 > < w J _ K N v a a y , (.(.(.(.(.(.(.(.(.(.(.(.(.(.(.(.(.(.(.(.(.",
"(.(.(.(.(.(.+ 2 d 6 5 @ @ @ O 5 d 6 > > 2 < < < < < @ 1 (.(.(.(.(.(.(.(.(.(.(.(.(.(.(.(.(.(.(.(.(.(.",
"(.(.(.(.(.(.(.(.& @ > 8 d 8 5 > > @ O - = (.(.(.(.(.(.(.(.(.(.(.(.(.(.(.(.(.(.(.(.(.(.(.(.(.(.(.(.(.",
"(.(.(.(.(.(.(.(..   o 7 8 6 5 :   +   + (.(.(.(.(.(.(.(.(.(.(.(.(.(.(.(.(.(.(.(.(.(.(.(.(.(.(.(.(.(.",
"(.(.(.(.(.(.(.(.(.(.(.% & X X . (.(.(.(.(.(.(.(.(.(.(.(.(.(.(.(.(.(.(.(.(.(.(.(.(.(.(.(.(.(.(.(.(.(.",
"(.(.(.(.(.(.(.(.(.(.(.(.(.(.(.(.(.(.(.(.(.(.(.(.(.(.(.(.(.(.(.(.(.(.(.(.(.(.(.(.(.(.(.(.(.(.(.(.(.(.",
"(.(.(.(.(.(.(.(.(.(.(.(.(.(.(.(.(.(.(.(.(.(.(.(.(.(.(.(.(.(.(.(.(.(.(.(.(.(.(.(.(.(.(.(.(.(.(.(.(.(.",
"(.(.(.(.(.(.(.(.(.(.(.(.(.(.(.(.(.(.(.(.(.(.(.(.(.(.(.(.(.(.(.(.(.(.(.(.(.(.(.(.(.(.(.(.(.(.(.(.(.(.",
"(.(.(.(.(.(.(.(.(.(.(.(.(.(.(.(.(.(.(.(.(.(.(.(.(.(.(.(.(.(.(.(.(.(.(.(.(.(.(.(.(.(.(.(.(.(.(.(.(.(.",
"(.(.(.(.(.(.(.(.(.(.(.(.(.(.(.(.(.(.(.(.(.(.(.(.(.(.(.(.(.(.(.(.(.(.(.(.(.(.(.(.(.(.(.(.(.(.(.(.(.(.",
"(.(.(.(.(.(.(.(.(.(.(.(.(.(.(.(.(.(.(.(.(.(.(.(.(.(.(.(.(.(.(.(.(.(.(.(.(.(.(.(.(.(.(.(.(.(.(.(.(.(.",
"(.(.(.(.(.(.(.(.(.(.(.(.(.(.(.(.(.(.(.(.(.(.(.(.(.(.(.(.(.(.(.(.(.(.(.(.(.(.(.(.(.(.(.(.(.(.(.(.(.(.",
"(.(.(.(.(.(.(.(.(.(.(.(.(.(.(.(.(.(.(.(.(.(.(.(.(.(.(.(.(.(.(.(.(.(.(.(.(.(.(.(.(.(.(.(.(.(.(.(.(.(."
};
