/* XPM */
static char *f9314380a4084461e59fde0d96bd7173BaKLMF88ingfNQKy[] = {
/* columns rows colors chars-per-pixel */
"50 50 132 2 ",
"   c #404751",
".  c #454A55",
"X  c #494D57",
"o  c #474C59",
"O  c #4A4E5A",
"+  c #4D515C",
"@  c #51545E",
"#  c #4E5561",
"$  c #525561",
"%  c #555A64",
"&  c #565D68",
"*  c #5A5E6A",
"=  c #5D626D",
"-  c #5F6571",
";  c #5F6871",
":  c #60646F",
">  c #616672",
",  c #646A75",
"<  c #696D76",
"1  c #666C79",
"2  c #6A6E7A",
"3  c #6C7077",
"4  c #6D717B",
"5  c #71757E",
"6  c #70747F",
"7  c #72757E",
"8  c #72767F",
"9  c #71757D",
"0  c #71747D",
"q  c #6C6F80",
"w  c #6A7080",
"e  c #6C7280",
"r  c #6D7381",
"t  c #6C7282",
"y  c #6E7480",
"u  c #6F7581",
"i  c #6E7681",
"p  c #6E7482",
"a  c #6F7583",
"s  c #6E7683",
"d  c #6E7484",
"f  c #6F7585",
"g  c #6E7481",
"h  c #707480",
"j  c #737780",
"k  c #707682",
"l  c #717783",
"z  c #707684",
"x  c #707686",
"c  c #717682",
"v  c #727884",
"b  c #737985",
"n  c #727886",
"m  c #737987",
"M  c #727A87",
"N  c #747A86",
"B  c #757B87",
"V  c #747985",
"C  c #747A88",
"Z  c #757B89",
"A  c #747A8A",
"S  c #747B8B",
"D  c #757B8B",
"F  c #767C88",
"G  c #777D89",
"H  c #767C8C",
"J  c #777F8C",
"K  c #777E8E",
"L  c #767C89",
"P  c #787E8A",
"I  c #797F8B",
"U  c #787E8C",
"Y  c #787F8F",
"T  c #797E8B",
"R  c #77818B",
"E  c #778089",
"W  c #7A808C",
"Q  c #7B818D",
"!  c #7A808E",
"~  c #7B818F",
"^  c #7C828E",
"/  c #7C848F",
"(  c #7B818D",
")  c #7A8090",
"_  c #7B8292",
"`  c #7C8290",
"'  c #7E8490",
"]  c #7D8592",
"[  c #818795",
"{  c #818793",
"}  c #828A95",
"|  c #818996",
" . c #828A97",
".. c #848A96",
"X. c #828996",
"o. c #858B99",
"O. c #848C99",
"+. c #858D9A",
"@. c #868C9A",
"#. c #878D9B",
"$. c #868E9B",
"%. c #858C9A",
"&. c #888E9A",
"*. c #898F9B",
"=. c #888E9C",
"-. c #898F9D",
";. c #8B8E9D",
":. c #888E9E",
">. c #898E9C",
",. c #8A909C",
"<. c #8B919D",
"1. c #8A929D",
"2. c #89919E",
"3. c #8A909E",
"4. c #8C909C",
"5. c #8C929E",
"6. c #8B919E",
"7. c #8C8FA0",
"8. c #8E91A0",
"9. c #8C92A0",
"0. c #8C94A1",
"q. c #8E94A2",
"w. c #8D93A1",
"e. c #8F99A3",
"r. c #9096A2",
"t. c #9197A5",
"y. c #9196A4",
"u. c #9399A5",
"i. c #9399A6",
"p. c #959BAA",
"a. c #989EAD",
"s. c #9BA1AF",
/* pixels */
"x , 4 2 2 4 4 , 1 u f 1 2 , 2 2 2 4 4 S f 4 2 2 2 > > , 2 S u 2 , < 2 2 6 4 , S f , 4 4 4 6 4 < 4 B ",
"2 o X X + @ @ + + S x o . + % + $ X o S u o X $ O $ + . + K e + + + @ @ O + $ S 1 + + + @ @ + X + 2 ",
"B = , 4 0 2 < , * ~ v * , > , k , 4 & S x * 2 , 4 2 , , = Y u = , , < 2 < > = T v = , < 4 4 2 4 & k ",
"4 = 4 4 < < 4 4 = G e = 0 4 2 0 4 0 = B k = k 4 4 4 4 0 = v u > 0 4 < 4 0 4 > T 4 = 4 4 4 2 3 4 , B ",
"k , 4 < , 4 0 4 = T S > 4 4 4 2 < < = ~ G - < < < 3 3 4 = ~ G , 4 4 2 2 2 4 , ^ B , 4 2 4 9 4 3 > v ",
"u = 4 0 4 3 < , > v v , 4 < 4 0 4 4 > B u , 4 4 0 3 3 0 , Y v , 4 9 0 0 4 4 > G k > 4 < < 4 9 4 1 B ",
"B > 4 0 4 < 4 4 > ~ S > < 4 4 2 4 < - ~ S > 2 0 2 4 9 < > _ S , 4 4 2 2 4 4 , ] k , 0 4 4 2 2 2 1 B ",
"G , 2 2 2 4 < , > ` K > 4 < 2 4 < 2 - ~ S - 2 4 4 4 4 , 1 _ v > < < < 4 2 , - ^ B - , < 4 4 2 < > G ",
"K 1 4 4 u e 2 2 1 Y S 1 4 4 e 4 w 1 2 K u 2 2 f 4 e e 1 1 _ Y 1 4 , u e 1 1 4 E v 1 1 u 4 2 e 2 1 v ",
"_ +.t.&.r.t.=.=.+.0.o.[ t.3.=.5.=.8.+.3. .o.0.8.3.=.+.=.=.3. .3.5...&.5.5.3. .3.+.+.5.u.3.3.t.3.+.8.",
"x 1 1 - 2 2 , 2 1 ~ v > 4 2 2 2 2 2 , ~ k , 2 2 < 2 , , 2 T x 1 2 2 4 4 4 4 2 / u > > 1 , < 4 , 1 v ",
"4 X X @ % @ + O X x 4 X + $ $ @ @ + X B 2 X + @ @ @ $ + X B k . X + $ @ + X + u 2 X . + @ @ $ O $ 1 ",
"k = , < < < < , * T k = < < < < , < * T k * 2 < < , 2 2 * T T * < 2 < 2 < , = Y B = , 2 4 , < < * 4 ",
"k < 4 < 4 4 4 0 > T k > 4 4 4 9 4 4 : B 4 > 0 4 4 4 2 4 > B 4 > 4 4 < 4 4 2 = S 4 > k 4 4 4 0 4 > u ",
"k , 4 4 9 3 , < > Y v > 2 2 4 3 4 2 > Y x > 4 2 < 4 , 2 > T e , 2 4 < 3 < 4 , ~ x > 4 < 4 4 0 2 - k ",
"B - 4 4 < 3 k 4 1 S k , 4 4 4 4 4 4 , G u , 0 4 4 2 2 0 = ~ S > 4 4 < 3 , 4 > C v - u 4 4 2 4 4 , v ",
"v , 0 4 0 4 4 4 > T G , 1 4 0 2 2 k > ^ G > 4 4 4 3 4 4 > ^ Y > 2 4 4 0 < 4 , G B , u < 3 0 3 < > v ",
"~ = , < < < 4 1 , G k > 4 4 2 , < 2 - T v > 2 , 4 < 2 4 > B u - 4 2 < 2 , , > ~ B = 1 1 < < < 4 , B ",
"G , u k 4 2 4 2 , / ~ , 2 4 4 4 k , - ] K , 2 4 0 0 2 , , { Y > 1 2 4 4 4 4 1 K Y , 1 4 v k 4 , 1 v ",
" . .3. .&.=.=.t.+.3. .O.i.=.+.u.r.5.o.9. .+.u.5.+.+.+.&.] 3.+.+.9.0.t.&.3.3. .9. .] 0.r.5.=.0.9.o.8.",
"v 1 , * , 2 1 w 4 G u , u 1 , 2 2 2 4 ~ u 2 4 2 > , 1 4 1 G u 1 2 2 2 > 2 1 1 ~ u 1 4 2 , > 2 q 1 S ",
"2 X + + + + + X . v u . . + $ X $ . X S 4 o . + + $ X . + B 2 o + X X + + X X 4 2 + X + $ $ + X # 1 ",
"u * , 4 < < < , * T k * 2 4 2 2 2 < = T k = , 2 4 < > > * B k = 2 2 < 4 4 > * ~ k = < < 2 < < 2 & 4 ",
"4 > 4 4 0 4 4 4 - B 4 = 4 4 < 0 2 4 * k k > 4 4 2 2 4 2 = B x > 2 0 < 2 4 6 = T 4 > k 4 3 9 3 4 , u ",
"k > < 4 4 < 4 6 > Y h , 4 4 , 4 2 2 , Y e > 4 2 4 2 2 4 > ^ S > 6 4 < 2 4 4 > S S , 4 0 4 < < 0 , x ",
"v , 4 3 4 4 4 < - ~ B > 4 4 3 < 2 4 , T k > 4 2 < 3 4 2 , B k 2 < 3 3 4 4 4 , T k > 4 2 3 4 3 < > u ",
"k 1 4 4 4 4 0 0 > G G > 4 < 4 < 4 4 - R v - 2 3 4 4 4 < 1 B k , 3 4 4 4 3 < - E v > 4 4 4 4 4 3 , v ",
"v , 1 4 < , 1 1 , G B , 4 1 4 < 1 1 = G B ; > 1 4 , 4 > , R G - 1 2 2 4 4 2 , ] v > 2 2 4 1 1 2 , v ",
"C 1 2 4 4 u u 1 1 _ C 1 4 x e 1 1 1 1 G C 4 , 2 4 e x 1 2 K S 1 1 e 4 2 1 4 1 K S 1 4 2 4 u u 4 1 v ",
"o.] 9.+.3.t.i.=.O.q.o.o.q.0.+.+.+.=.O.9.o.+.+.=.o.u.t.:.=.8.o.:.9.a.p.=.#.0.o.q.:.O.0.+.o.5.t.7.+.5.",
"u , 4 2 , 2 2 , 1 G u , k 4 2 4 2 4 , G u > 4 2 > 2 2 , , T x 1 > 2 4 , , 2 , ~ e , 4 , > , 2 2 1 v ",
"4 X . + $ @ @ O o v 0 . X + @ + X + o G 4 . + X @ X + @ X B u   + + + @ + X + v 4 + X X + + + + + 2 ",
"e = 4 2 < 2 , < * T k = , 2 < < , 1 * v u = < < 3 < 1 , = T v * 2 , < 3 < > = G x = 1 1 < 4 < , = u ",
"B = 2 4 4 4 2 4 > T k > 4 4 4 4 4 4 = G x = 4 4 4 3 4 2 = v k - 4 2 3 9 4 2 > S u - 4 0 4 4 4 k - u ",
"B = 2 4 4 4 4 4 = v k > 2 , < < 4 4 > ~ B > 2 < 4 4 4 4 > B v , 0 4 3 4 3 2 > B k > 2 4 4 4 4 2 , v ",
"k , 0 4 3 0 0 4 > B B > 4 < 3 3 < 4 , G k , 2 , < < 4 4 > B k > 0 4 4 4 3 4 , G B < 4 2 4 0 0 2 , v ",
"k > 4 4 2 2 4 2 , G v = 4 4 0 3 4 4 , T v < 4 4 2 0 0 4 , T B , 2 2 4 4 4 4 , G B , 4 4 2 < 4 2 1 S ",
"~ , 1 4 4 2 2 2 , Y G > 1 < 4 2 2 , - ~ B > , 4 2 4 , , > ^ B > 4 2 4 4 2 2 1 ~ G , , 4 4 , 2 2 , v ",
"G , , 4 4 4 e , 1 Y S 1 2 4 0 4 2 1 1 ] K 1 2 4 4 4 2 2 1 _ v 1 4 2 2 4 4 2 , ~ G , , 4 k 4 u 2 4 G ",
" . .3.3.0.a.s.=...8. . .t.a.p.8.o.+. .0.+. .:.=.=.u.a.i. .9.+.O.+.+.5.a.a.0.] e.O. .:.3.0.t.a.t. .3.",
"C > , , , 2 2 < 2 S x 1 4 , , , : 4 , Y u > 2 > > , , 4 1 S 4 1 : , < 2 2 2 > Y B , 2 > = , 2 2 < B ",
"1 + + + + + + X o x u X X $ % X X + + S e + + + O $ @ X + x 1 X + + + + X X + x 1 X + + @ + + + + , ",
"B = , < 4 2 < < * G v = , , 2 4 < , = G x = , 4 2 4 < , * ~ v & , , < 4 2 , = ~ B = , 4 2 , , 2 * 4 ",
"k > 4 0 4 3 3 4 > G 4 = k 0 4 4 4 4 - k 4 > 0 4 4 2 4 0 = x u > 0 4 3 0 6 < = G 4 > 4 4 3 4 0 4 , k ",
"v , 0 4 , , 3 4 = ~ v : 4 4 2 < 2 4 > ~ B > 2 < 2 < 3 2 = G v = < 4 3 < < , > T 4 > 2 < < 4 4 , = 4 ",
"B , 0 4 3 4 0 4 > G v , k 4 4 0 0 4 > T v > 4 4 4 4 4 4 > ~ v = < 4 9 0 6 0 1 T B > 4 4 3 3 4 4 > k ",
"G , 4 4 4 4 < , , ^ G > 2 4 4 < 3 4 > T v > 4 3 2 3 3 4 , ~ v , 4 4 2 < 2 4 , T B > 4 4 < < 2 4 1 k ",
"G > 2 4 4 < 2 4 > G B , < < 4 2 < < - ^ B - < < 2 4 < , , _ x - < 2 4 4 < , > ^ T > 2 < 4 4 4 , , B ",
"G 2 2 u k u 4 4 2 Y v u 1 w u 4 2 1 2 ^ v 2 1 e 4 u e 2 1 ^ k 2 4 e u u 2 , 1 ^ v 4 2 4 v u 1 1 2 x ",
"=.o.+.0.u.0.3.o.o.t.O.+.:.8.8.+.o. . .r.+.o.[ =.5.i.t.9. .i.+.O.+.8.0.=.{ { { u...{  .8.p.0.+.o.O.3."
};
